LinguisticsPro-Italic.ufo
<glyph name="exclam" format="1">
  <advance width="265"/>
  <unicode hex="0021"/>
  <outline>
    <contour>
      <point x="163" y="209" type="line"/>
      <point x="218" y="644" type="line" smooth="yes"/>
      <point x="223" y="680"/>
      <point x="236" y="707"/>
      <point x="289" y="707" type="curve" smooth="yes"/>
      <point x="344" y="707"/>
      <point x="344" y="679"/>
      <point x="331" y="639" type="curve" smooth="yes"/>
      <point x="191" y="209" type="line"/>
    </contour>
    <contour>
      <point x="82" y="45" type="curve" smooth="yes"/>
      <point x="82" y="86"/>
      <point x="109" y="113"/>
      <point x="147" y="113" type="curve" smooth="yes"/>
      <point x="183" y="113"/>
      <point x="204" y="87"/>
      <point x="204" y="57" type="curve" smooth="yes"/>
      <point x="204" y="15"/>
      <point x="178" y="-12"/>
      <point x="139" y="-12" type="curve" smooth="yes"/>
      <point x="103" y="-12"/>
      <point x="82" y="13"/>
    </contour>
  </outline>
</glyph>
<glyph name="quotedbl" format="1">
  <advance width="402"/>
  <unicode hex="0022"/>
  <outline>
    <contour>
      <point x="206" y="469" type="line"/>
      <point x="218" y="690" type="line" smooth="yes"/>
      <point x="221" y="725"/>
      <point x="235" y="742"/>
      <point x="273" y="742" type="curve" smooth="yes"/>
      <point x="315" y="742"/>
      <point x="327" y="725"/>
      <point x="314" y="690" type="curve" smooth="yes"/>
      <point x="234" y="469" type="line"/>
    </contour>
    <contour>
      <point x="376" y="469" type="line"/>
      <point x="388" y="690" type="line" smooth="yes"/>
      <point x="391" y="725"/>
      <point x="405" y="742"/>
      <point x="443" y="742" type="curve" smooth="yes"/>
      <point x="485" y="742"/>
      <point x="497" y="725"/>
      <point x="484" y="690" type="curve" smooth="yes"/>
      <point x="404" y="469" type="line"/>
    </contour>
  </outline>
</glyph>
<glyph name="numbersign" format="1">
  <advance width="530"/>
  <unicode hex="0023"/>
  <outline>
    <contour>
      <point x="89" y="231" type="line"/>
      <point x="106" y="279" type="line"/>
      <point x="210" y="279" type="line"/>
      <point x="256" y="410" type="line"/>
      <point x="151" y="410" type="line"/>
      <point x="168" y="458" type="line"/>
      <point x="273" y="458" type="line"/>
      <point x="347" y="668" type="line"/>
      <point x="403" y="668" type="line"/>
      <point x="330" y="458" type="line"/>
      <point x="462" y="458" type="line"/>
      <point x="536" y="668" type="line"/>
      <point x="591" y="668" type="line"/>
      <point x="518" y="458" type="line"/>
      <point x="620" y="458" type="line"/>
      <point x="605" y="410" type="line"/>
      <point x="501" y="410" type="line"/>
      <point x="455" y="279" type="line"/>
      <point x="558" y="279" type="line"/>
      <point x="543" y="231" type="line"/>
      <point x="438" y="231" type="line"/>
      <point x="357" y="0" type="line"/>
      <point x="301" y="0" type="line"/>
      <point x="382" y="231" type="line"/>
      <point x="250" y="231" type="line"/>
      <point x="169" y="0" type="line"/>
      <point x="112" y="0" type="line"/>
      <point x="193" y="231" type="line"/>
    </contour>
    <contour>
      <point x="267" y="279" type="line"/>
      <point x="399" y="279" type="line"/>
      <point x="445" y="410" type="line"/>
      <point x="313" y="410" type="line"/>
    </contour>
  </outline>
</glyph>
<glyph name="percent" format="1">
  <advance width="826"/>
  <unicode hex="0025"/>
  <outline>
    <contour>
      <point x="133" y="447" type="curve" smooth="yes"/>
      <point x="133" y="533"/>
      <point x="185" y="680"/>
      <point x="333" y="680" type="curve" smooth="yes"/>
      <point x="385" y="680"/>
      <point x="420" y="659"/>
      <point x="440" y="644" type="curve" smooth="yes"/>
      <point x="451" y="635"/>
      <point x="460" y="631"/>
      <point x="486" y="631" type="curve" smooth="yes"/>
      <point x="665" y="631" type="line" smooth="yes"/>
      <point x="698" y="633"/>
      <point x="722" y="649"/>
      <point x="750" y="677" type="curve" smooth="yes"/>
      <point x="775" y="702" type="line"/>
      <point x="805" y="678" type="line"/>
      <point x="200" y="-25" type="line"/>
      <point x="169" y="3" type="line"/>
      <point x="679" y="597" type="line"/>
      <point x="463" y="597" type="line"/>
      <point x="467" y="582"/>
      <point x="468" y="560"/>
      <point x="468" y="543" type="curve" smooth="yes"/>
      <point x="468" y="461"/>
      <point x="422" y="314"/>
      <point x="272" y="314" type="curve" smooth="yes"/>
      <point x="169" y="314"/>
      <point x="133" y="382"/>
    </contour>
    <contour>
      <point x="210" y="424" type="curve" smooth="yes"/>
      <point x="210" y="393"/>
      <point x="217" y="344"/>
      <point x="273" y="344" type="curve" smooth="yes"/>
      <point x="367" y="344"/>
      <point x="391" y="524"/>
      <point x="391" y="570" type="curve" smooth="yes"/>
      <point x="391" y="601"/>
      <point x="386" y="650"/>
      <point x="332" y="650" type="curve" smooth="yes"/>
      <point x="243" y="650"/>
      <point x="210" y="473"/>
    </contour>
    <contour>
      <point x="495" y="121" type="curve" smooth="yes"/>
      <point x="495" y="207"/>
      <point x="547" y="354"/>
      <point x="695" y="354" type="curve" smooth="yes"/>
      <point x="788" y="354"/>
      <point x="830" y="293"/>
      <point x="830" y="217" type="curve" smooth="yes"/>
      <point x="830" y="135"/>
      <point x="784" y="-12"/>
      <point x="634" y="-12" type="curve" smooth="yes"/>
      <point x="531" y="-12"/>
      <point x="495" y="56"/>
    </contour>
    <contour>
      <point x="572" y="98" type="curve" smooth="yes"/>
      <point x="572" y="67"/>
      <point x="579" y="18"/>
      <point x="635" y="18" type="curve" smooth="yes"/>
      <point x="729" y="18"/>
      <point x="753" y="198"/>
      <point x="753" y="244" type="curve" smooth="yes"/>
      <point x="753" y="275"/>
      <point x="748" y="324"/>
      <point x="694" y="324" type="curve" smooth="yes"/>
      <point x="605" y="324"/>
      <point x="572" y="147"/>
    </contour>
  </outline>
</glyph>
<glyph name="ampersand" format="1">
  <advance width="725"/>
  <unicode hex="0026"/>
  <outline>
    <contour>
      <point x="95" y="162" type="curve" smooth="yes"/>
      <point x="95" y="285"/>
      <point x="204" y="335"/>
      <point x="277" y="369" type="curve"/>
      <point x="257" y="403"/>
      <point x="242" y="459"/>
      <point x="242" y="493" type="curve" smooth="yes"/>
      <point x="242" y="610"/>
      <point x="325" y="680"/>
      <point x="417" y="680" type="curve" smooth="yes"/>
      <point x="495" y="680"/>
      <point x="561" y="635"/>
      <point x="561" y="552" type="curve" smooth="yes"/>
      <point x="561" y="456"/>
      <point x="472" y="415"/>
      <point x="373" y="375" type="curve"/>
      <point x="408" y="312"/>
      <point x="468" y="231"/>
      <point x="535" y="159" type="curve"/>
      <point x="621" y="248"/>
      <point x="646" y="340"/>
      <point x="653" y="417" type="curve"/>
      <point x="680" y="430"/>
      <point x="706" y="436"/>
      <point x="730" y="433" type="curve"/>
      <point x="745" y="389"/>
      <point x="738" y="361"/>
      <point x="723" y="330" type="curve" smooth="yes"/>
      <point x="688" y="266"/>
      <point x="640" y="207"/>
      <point x="557" y="133" type="curve"/>
      <point x="600" y="94"/>
      <point x="659" y="31"/>
      <point x="734" y="18" type="curve"/>
      <point x="730" y="-7" type="line"/>
      <point x="680" y="-5" type="line" smooth="yes"/>
      <point x="601" y="-2"/>
      <point x="546" y="29"/>
      <point x="498" y="75" type="curve"/>
      <point x="423" y="13"/>
      <point x="362" y="-12"/>
      <point x="286" y="-12" type="curve" smooth="yes"/>
      <point x="156" y="-12"/>
      <point x="95" y="76"/>
    </contour>
    <contour>
      <point x="190" y="172" type="curve" smooth="yes"/>
      <point x="190" y="105"/>
      <point x="242" y="37"/>
      <point x="327" y="37" type="curve" smooth="yes"/>
      <point x="385" y="37"/>
      <point x="437" y="64"/>
      <point x="475" y="99" type="curve"/>
      <point x="403" y="174"/>
      <point x="341" y="258"/>
      <point x="293" y="339" type="curve"/>
      <point x="265" y="327"/>
      <point x="190" y="276"/>
    </contour>
    <contour>
      <point x="322" y="524" type="curve" smooth="yes"/>
      <point x="322" y="486"/>
      <point x="336" y="435"/>
      <point x="358" y="401" type="curve"/>
      <point x="423" y="432"/>
      <point x="483" y="488"/>
      <point x="483" y="564" type="curve" smooth="yes"/>
      <point x="483" y="603"/>
      <point x="463" y="645"/>
      <point x="411" y="645" type="curve" smooth="yes"/>
      <point x="367" y="645"/>
      <point x="322" y="600"/>
    </contour>
  </outline>
</glyph>
<glyph name="parenleft" format="1">
  <advance width="350"/>
  <unicode hex="0028"/>
  <outline>
    <contour>
      <point x="160" y="301" type="curve" smooth="yes"/>
      <point x="212" y="536"/>
      <point x="323" y="698"/>
      <point x="493" y="692" type="curve"/>
      <point x="488" y="667" type="line"/>
      <point x="395" y="652"/>
      <point x="288" y="554"/>
      <point x="231" y="306" type="curve" smooth="yes"/>
      <point x="167" y="28"/>
      <point x="254" y="-92"/>
      <point x="309" y="-105" type="curve"/>
      <point x="303" y="-128" type="line"/>
      <point x="167" y="-118"/>
      <point x="108" y="68"/>
    </contour>
  </outline>
</glyph>
<glyph name="parenright" format="1">
  <advance width="350"/>
  <unicode hex="0029"/>
  <outline>
    <contour>
      <point x="-11" y="-128" type="curve"/>
      <point x="-6" y="-105" type="line"/>
      <point x="87" y="-90"/>
      <point x="194" y="10"/>
      <point x="251" y="258" type="curve" smooth="yes"/>
      <point x="315" y="536"/>
      <point x="228" y="654"/>
      <point x="173" y="667" type="curve"/>
      <point x="179" y="692" type="line"/>
      <point x="315" y="682"/>
      <point x="374" y="496"/>
      <point x="322" y="263" type="curve" smooth="yes"/>
      <point x="270" y="28"/>
      <point x="159" y="-134"/>
    </contour>
  </outline>
</glyph>
<glyph name="asterisk" format="1">
  <advance width="412"/>
  <unicode hex="002A"/>
  <outline>
    <contour>
      <point x="146" y="441" type="curve" smooth="yes"/>
      <point x="136" y="463"/>
      <point x="140" y="479"/>
      <point x="163" y="487" type="curve" smooth="yes"/>
      <point x="283" y="528" type="line" smooth="yes"/>
      <point x="295" y="532"/>
      <point x="295" y="541"/>
      <point x="282" y="546" type="curve" smooth="yes"/>
      <point x="196" y="577" type="line" smooth="yes"/>
      <point x="171" y="586"/>
      <point x="171" y="607"/>
      <point x="185" y="627" type="curve" smooth="yes"/>
      <point x="203" y="652"/>
      <point x="219" y="651"/>
      <point x="231" y="639" type="curve" smooth="yes"/>
      <point x="299" y="569" type="line" smooth="yes"/>
      <point x="307" y="561"/>
      <point x="314" y="565"/>
      <point x="314" y="578" type="curve" smooth="yes"/>
      <point x="312" y="676" type="line" smooth="yes"/>
      <point x="312" y="696"/>
      <point x="322" y="707"/>
      <point x="353" y="707" type="curve" smooth="yes"/>
      <point x="379" y="707"/>
      <point x="391" y="695"/>
      <point x="381" y="675" type="curve" smooth="yes"/>
      <point x="337" y="578" type="line" smooth="yes"/>
      <point x="331" y="564"/>
      <point x="338" y="560"/>
      <point x="350" y="569" type="curve" smooth="yes"/>
      <point x="441" y="640" type="line" smooth="yes"/>
      <point x="459" y="653"/>
      <point x="474" y="651"/>
      <point x="486" y="629" type="curve" smooth="yes"/>
      <point x="500" y="604"/>
      <point x="493" y="589"/>
      <point x="474" y="583" type="curve" smooth="yes"/>
      <point x="355" y="544" type="line" smooth="yes"/>
      <point x="341" y="539"/>
      <point x="336" y="530"/>
      <point x="348" y="526" type="curve" smooth="yes"/>
      <point x="444" y="487" type="line" smooth="yes"/>
      <point x="461" y="480"/>
      <point x="464" y="461"/>
      <point x="446" y="439" type="curve" smooth="yes"/>
      <point x="430" y="419"/>
      <point x="415" y="415"/>
      <point x="400" y="432" type="curve" smooth="yes"/>
      <point x="337" y="503" type="line" smooth="yes"/>
      <point x="327" y="514"/>
      <point x="320" y="505"/>
      <point x="320" y="494" type="curve" smooth="yes"/>
      <point x="322" y="389" type="line" smooth="yes"/>
      <point x="323" y="364"/>
      <point x="307" y="356"/>
      <point x="282" y="356" type="curve" smooth="yes"/>
      <point x="251" y="356"/>
      <point x="243" y="373"/>
      <point x="253" y="396" type="curve" smooth="yes"/>
      <point x="297" y="494" type="line" smooth="yes"/>
      <point x="303" y="506"/>
      <point x="298" y="515"/>
      <point x="283" y="503" type="curve" smooth="yes"/>
      <point x="199" y="432" type="line" smooth="yes"/>
      <point x="175" y="412"/>
      <point x="158" y="417"/>
    </contour>
  </outline>
</glyph>
<glyph name="comma" format="1">
  <advance width="265"/>
  <unicode hex="002C"/>
  <outline>
    <contour>
      <point x="46" y="-116" type="line"/>
      <point x="82" y="-81"/>
      <point x="113" y="-41"/>
      <point x="117" y="-1" type="curve" smooth="yes"/>
      <point x="119" y="20"/>
      <point x="113" y="34"/>
      <point x="106" y="49" type="curve" smooth="yes"/>
      <point x="101" y="61"/>
      <point x="94" y="74"/>
      <point x="94" y="89" type="curve" smooth="yes"/>
      <point x="94" y="117"/>
      <point x="118" y="142"/>
      <point x="150" y="142" type="curve" smooth="yes"/>
      <point x="187" y="144"/>
      <point x="208" y="106"/>
      <point x="208" y="74" type="curve" smooth="yes"/>
      <point x="208" y="-16"/>
      <point x="125" y="-82"/>
      <point x="63" y="-134" type="curve"/>
    </contour>
  </outline>
</glyph>
<glyph name="slash" format="1">
  <advance width="270"/>
  <unicode hex="002F"/>
  <outline>
    <contour>
      <point x="35" y="-15" type="line"/>
      <point x="305" y="707" type="line"/>
      <point x="376" y="707" type="line"/>
      <point x="106" y="-15" type="line"/>
    </contour>
  </outline>
</glyph>
<glyph name="one" format="1">
  <advance width="530"/>
  <unicode hex="0031"/>
  <outline>
    <contour>
      <point x="109" y="0" type="line"/>
      <point x="115" y="29" type="line"/>
      <point x="206" y="36" type="line" smooth="yes"/>
      <point x="223" y="37"/>
      <point x="234" y="48"/>
      <point x="239" y="72" type="curve" smooth="yes"/>
      <point x="352" y="578" type="line" smooth="yes"/>
      <point x="356" y="597"/>
      <point x="354" y="609"/>
      <point x="340" y="611" type="curve" smooth="yes"/>
      <point x="243" y="621" type="line"/>
      <point x="251" y="645" type="line"/>
      <point x="456" y="680" type="line"/>
      <point x="464" y="674" type="line"/>
      <point x="328" y="72" type="line" smooth="yes"/>
      <point x="322" y="44"/>
      <point x="333" y="35"/>
      <point x="349" y="34" type="curve" smooth="yes"/>
      <point x="438" y="29" type="line"/>
      <point x="432" y="0" type="line"/>
    </contour>
  </outline>
</glyph>
<glyph name="three" format="1">
  <advance width="530"/>
  <unicode hex="0033"/>
  <outline>
    <contour>
      <point x="54" y="111" type="curve" smooth="yes"/>
      <point x="54" y="144"/>
      <point x="82" y="166"/>
      <point x="105" y="166" type="curve" smooth="yes"/>
      <point x="121" y="166"/>
      <point x="129" y="155"/>
      <point x="135" y="135" type="curve" smooth="yes"/>
      <point x="156" y="55"/>
      <point x="203" y="23"/>
      <point x="265" y="23" type="curve" smooth="yes"/>
      <point x="329" y="23"/>
      <point x="417" y="71"/>
      <point x="417" y="223" type="curve" smooth="yes"/>
      <point x="417" y="269"/>
      <point x="398" y="350"/>
      <point x="311" y="350" type="curve" smooth="yes"/>
      <point x="269" y="350"/>
      <point x="233" y="340"/>
      <point x="220" y="340" type="curve" smooth="yes"/>
      <point x="204" y="340"/>
      <point x="201" y="350"/>
      <point x="201" y="362" type="curve" smooth="yes"/>
      <point x="201" y="379"/>
      <point x="210" y="399"/>
      <point x="223" y="399" type="curve" smooth="yes"/>
      <point x="241" y="399"/>
      <point x="274" y="388"/>
      <point x="320" y="388" type="curve" smooth="yes"/>
      <point x="400" y="388"/>
      <point x="461" y="457"/>
      <point x="461" y="542" type="curve" smooth="yes"/>
      <point x="461" y="581"/>
      <point x="448" y="645"/>
      <point x="368" y="645" type="curve" smooth="yes"/>
      <point x="314" y="645"/>
      <point x="275" y="604"/>
      <point x="250" y="540" type="curve" smooth="yes"/>
      <point x="242" y="521"/>
      <point x="233" y="513"/>
      <point x="219" y="513" type="curve" smooth="yes"/>
      <point x="202" y="513"/>
      <point x="175" y="528"/>
      <point x="175" y="559" type="curve" smooth="yes"/>
      <point x="175" y="615"/>
      <point x="261" y="680"/>
      <point x="373" y="680" type="curve" smooth="yes"/>
      <point x="453" y="680"/>
      <point x="559" y="648"/>
      <point x="559" y="531" type="curve" smooth="yes"/>
      <point x="559" y="422"/>
      <point x="458" y="380"/>
      <point x="382" y="374" type="curve"/>
      <point x="382" y="371" type="line"/>
      <point x="440" y="363"/>
      <point x="521" y="319"/>
      <point x="521" y="213" type="curve" smooth="yes"/>
      <point x="521" y="58"/>
      <point x="394" y="-12"/>
      <point x="262" y="-12" type="curve" smooth="yes"/>
      <point x="120" y="-12"/>
      <point x="54" y="63"/>
    </contour>
  </outline>
</glyph>
<glyph name="four" format="1">
  <advance width="530"/>
  <unicode hex="0034"/>
  <outline>
    <contour>
      <point x="67" y="206" type="line"/>
      <point x="196" y="367"/>
      <point x="329" y="526"/>
      <point x="469" y="668" type="curve"/>
      <point x="537" y="668" type="line"/>
      <point x="446" y="233" type="line"/>
      <point x="544" y="233" type="line"/>
      <point x="534" y="187" type="line"/>
      <point x="436" y="187" type="line"/>
      <point x="411" y="67" type="line" smooth="yes"/>
      <point x="406" y="43"/>
      <point x="411" y="33"/>
      <point x="431" y="32" type="curve" smooth="yes"/>
      <point x="481" y="29" type="line"/>
      <point x="474" y="0" type="line"/>
      <point x="210" y="0" type="line"/>
      <point x="218" y="29" type="line"/>
      <point x="292" y="34" type="line" smooth="yes"/>
      <point x="308" y="35"/>
      <point x="321" y="42"/>
      <point x="326" y="67" type="curve" smooth="yes"/>
      <point x="351" y="187" type="line"/>
      <point x="76" y="187" type="line"/>
    </contour>
    <contour>
      <point x="151" y="233" type="curve"/>
      <point x="361" y="233" type="line"/>
      <point x="434" y="573" type="line"/>
      <point x="432" y="575" type="line"/>
      <point x="333" y="469"/>
      <point x="239" y="351"/>
    </contour>
  </outline>
</glyph>
<glyph name="nine" format="1">
  <advance width="530"/>
  <unicode hex="0039"/>
  <outline>
    <contour>
      <point x="86" y="96" type="curve" smooth="yes"/>
      <point x="86" y="132"/>
      <point x="114" y="152"/>
      <point x="135" y="152" type="curve" smooth="yes"/>
      <point x="151" y="152"/>
      <point x="159" y="141"/>
      <point x="164" y="122" type="curve" smooth="yes"/>
      <point x="183" y="51"/>
      <point x="218" y="23"/>
      <point x="266" y="23" type="curve" smooth="yes"/>
      <point x="329" y="23"/>
      <point x="373" y="69"/>
      <point x="406" y="138" type="curve" smooth="yes"/>
      <point x="440" y="210"/>
      <point x="457" y="278"/>
      <point x="466" y="338" type="curve"/>
      <point x="464" y="338" type="line"/>
      <point x="419" y="293"/>
      <point x="371" y="266"/>
      <point x="310" y="266" type="curve" smooth="yes"/>
      <point x="210" y="266"/>
      <point x="133" y="334"/>
      <point x="133" y="439" type="curve" smooth="yes"/>
      <point x="133" y="589"/>
      <point x="242" y="680"/>
      <point x="363" y="680" type="curve" smooth="yes"/>
      <point x="509" y="680"/>
      <point x="571" y="582"/>
      <point x="571" y="426" type="curve" smooth="yes"/>
      <point x="571" y="324"/>
      <point x="539" y="180"/>
      <point x="464" y="86" type="curve" smooth="yes"/>
      <point x="413" y="22"/>
      <point x="351" y="-12"/>
      <point x="263" y="-12" type="curve" smooth="yes"/>
      <point x="150" y="-12"/>
      <point x="86" y="51"/>
    </contour>
    <contour>
      <point x="226" y="452" type="curve" smooth="yes"/>
      <point x="226" y="381"/>
      <point x="256" y="316"/>
      <point x="350" y="316" type="curve" smooth="yes"/>
      <point x="425" y="316"/>
      <point x="476" y="372"/>
      <point x="476" y="459" type="curve" smooth="yes"/>
      <point x="476" y="561"/>
      <point x="455" y="645"/>
      <point x="361" y="645" type="curve" smooth="yes"/>
      <point x="289" y="645"/>
      <point x="226" y="579"/>
    </contour>
  </outline>
</glyph>
<glyph name="greater" format="1">
  <advance width="570"/>
  <unicode hex="003E"/>
  <outline>
    <contour>
      <point x="86" y="1" type="line"/>
      <point x="86" y="68" type="line"/>
      <point x="505" y="248" type="line"/>
      <point x="86" y="428" type="line"/>
      <point x="86" y="497" type="line"/>
      <point x="564" y="288" type="line"/>
      <point x="564" y="207" type="line"/>
    </contour>
  </outline>
</glyph>
<glyph name="at" format="1">
  <advance width="794"/>
  <unicode hex="0040"/>
  <outline>
    <contour>
      <point x="123" y="303" type="curve" smooth="yes"/>
      <point x="123" y="557"/>
      <point x="320" y="707"/>
      <point x="526" y="707" type="curve" smooth="yes"/>
      <point x="716" y="707"/>
      <point x="832" y="576"/>
      <point x="832" y="414" type="curve" smooth="yes"/>
      <point x="832" y="277"/>
      <point x="724" y="172"/>
      <point x="607" y="172" type="curve" smooth="yes"/>
      <point x="547" y="172"/>
      <point x="517" y="203"/>
      <point x="551" y="309" type="curve"/>
      <point x="549" y="310" type="line"/>
      <point x="521" y="260"/>
      <point x="442" y="170"/>
      <point x="366" y="172" type="curve" smooth="yes"/>
      <point x="336" y="173"/>
      <point x="300" y="190"/>
      <point x="300" y="255" type="curve" smooth="yes"/>
      <point x="300" y="329"/>
      <point x="374" y="533"/>
      <point x="552" y="533" type="curve" smooth="yes"/>
      <point x="575" y="533"/>
      <point x="588" y="530"/>
      <point x="607" y="520" type="curve"/>
      <point x="611" y="528" type="line"/>
      <point x="676" y="528" type="line"/>
      <point x="610" y="270" type="line" smooth="yes"/>
      <point x="598" y="222"/>
      <point x="616" y="210"/>
      <point x="644" y="210" type="curve" smooth="yes"/>
      <point x="711" y="210"/>
      <point x="782" y="306"/>
      <point x="782" y="409" type="curve" smooth="yes"/>
      <point x="785" y="573"/>
      <point x="670" y="666"/>
      <point x="528" y="666" type="curve" smooth="yes"/>
      <point x="327" y="666"/>
      <point x="201" y="490"/>
      <point x="201" y="307" type="curve" smooth="yes"/>
      <point x="201" y="184"/>
      <point x="267" y="24"/>
      <point x="492" y="24" type="curve" smooth="yes"/>
      <point x="550" y="24"/>
      <point x="616" y="36"/>
      <point x="661" y="55" type="curve"/>
      <point x="669" y="30" type="line"/>
      <point x="607" y="-4"/>
      <point x="526" y="-15"/>
      <point x="464" y="-15" type="curve" smooth="yes"/>
      <point x="297" y="-15"/>
      <point x="123" y="87"/>
    </contour>
    <contour>
      <point x="382" y="270" type="curve" smooth="yes"/>
      <point x="382" y="237"/>
      <point x="394" y="219"/>
      <point x="416" y="219" type="curve" smooth="yes"/>
      <point x="487" y="219"/>
      <point x="581" y="397"/>
      <point x="600" y="490" type="curve"/>
      <point x="585" y="500"/>
      <point x="573" y="504"/>
      <point x="553" y="504" type="curve" smooth="yes"/>
      <point x="448" y="504"/>
      <point x="382" y="331"/>
    </contour>
  </outline>
</glyph>
<glyph name="B" format="1">
  <advance width="632"/>
  <unicode hex="0042"/>
  <outline>
    <contour>
      <point x="38" y="0" type="line"/>
      <point x="44" y="29" type="line"/>
      <point x="100" y="35" type="line" smooth="yes"/>
      <point x="124" y="38"/>
      <point x="135" y="50"/>
      <point x="142" y="83" type="curve" smooth="yes"/>
      <point x="260" y="609" type="line" smooth="yes"/>
      <point x="268" y="643"/>
      <point x="262" y="655"/>
      <point x="239" y="657" type="curve" smooth="yes"/>
      <point x="180" y="663" type="line"/>
      <point x="186" y="692" type="line"/>
      <point x="427" y="692" type="line" smooth="yes"/>
      <point x="499" y="693"/>
      <point x="564" y="686"/>
      <point x="608" y="659" type="curve" smooth="yes"/>
      <point x="650" y="634"/>
      <point x="671" y="593"/>
      <point x="671" y="541" type="curve" smooth="yes"/>
      <point x="671" y="465"/>
      <point x="615" y="391"/>
      <point x="482" y="375" type="curve"/>
      <point x="481" y="372" type="line"/>
      <point x="554" y="358"/>
      <point x="632" y="312"/>
      <point x="632" y="207" type="curve" smooth="yes"/>
      <point x="632" y="124"/>
      <point x="584" y="0"/>
      <point x="342" y="0" type="curve" smooth="yes"/>
    </contour>
    <contour>
      <point x="242" y="99" type="line" smooth="yes"/>
      <point x="233" y="60"/>
      <point x="237" y="35"/>
      <point x="336" y="35" type="curve" smooth="yes"/>
      <point x="470" y="35"/>
      <point x="524" y="124"/>
      <point x="524" y="213" type="curve" smooth="yes"/>
      <point x="524" y="327"/>
      <point x="437" y="355"/>
      <point x="338" y="355" type="curve" smooth="yes"/>
      <point x="299" y="355" type="line"/>
    </contour>
    <contour>
      <point x="306" y="390" type="line"/>
      <point x="371" y="390" type="line" smooth="yes"/>
      <point x="425" y="390"/>
      <point x="477" y="402"/>
      <point x="510" y="427" type="curve" smooth="yes"/>
      <point x="545" y="455"/>
      <point x="569" y="494"/>
      <point x="569" y="545" type="curve" smooth="yes"/>
      <point x="569" y="615"/>
      <point x="522" y="657"/>
      <point x="438" y="657" type="curve" smooth="yes"/>
      <point x="371" y="657"/>
      <point x="366" y="652"/>
      <point x="359" y="622" type="curve" smooth="yes"/>
    </contour>
  </outline>
</glyph>
<glyph name="H" format="1">
  <advance width="775"/>
  <unicode hex="0048"/>
  <outline>
    <contour>
      <point x="40" y="0" type="line"/>
      <point x="46" y="29" type="line"/>
      <point x="101" y="35" type="line" smooth="yes"/>
      <point x="125" y="37"/>
      <point x="135" y="49"/>
      <point x="143" y="83" type="curve" smooth="yes"/>
      <point x="263" y="609" type="line" smooth="yes"/>
      <point x="270" y="641"/>
      <point x="264" y="657"/>
      <point x="241" y="659" type="curve" smooth="yes"/>
      <point x="182" y="663" type="line"/>
      <point x="189" y="692" type="line"/>
      <point x="463" y="692" type="line"/>
      <point x="456" y="663" type="line"/>
      <point x="401" y="658" type="line" smooth="yes"/>
      <point x="376" y="656"/>
      <point x="367" y="642"/>
      <point x="359" y="609" type="curve" smooth="yes"/>
      <point x="306" y="379" type="line"/>
      <point x="640" y="379" type="line"/>
      <point x="692" y="609" type="line" smooth="yes"/>
      <point x="699" y="641"/>
      <point x="693" y="657"/>
      <point x="670" y="659" type="curve" smooth="yes"/>
      <point x="611" y="663" type="line"/>
      <point x="618" y="692" type="line"/>
      <point x="892" y="692" type="line"/>
      <point x="885" y="663" type="line"/>
      <point x="830" y="658" type="line" smooth="yes"/>
      <point x="805" y="656"/>
      <point x="796" y="642"/>
      <point x="788" y="609" type="curve" smooth="yes"/>
      <point x="668" y="83" type="line" smooth="yes"/>
      <point x="660" y="50"/>
      <point x="666" y="35"/>
      <point x="690" y="33" type="curve" smooth="yes"/>
      <point x="749" y="29" type="line"/>
      <point x="743" y="0" type="line"/>
      <point x="469" y="0" type="line"/>
      <point x="475" y="29" type="line"/>
      <point x="530" y="35" type="line" smooth="yes"/>
      <point x="554" y="37"/>
      <point x="564" y="49"/>
      <point x="572" y="83" type="curve" smooth="yes"/>
      <point x="631" y="341" type="line"/>
      <point x="297" y="341" type="line"/>
      <point x="239" y="83" type="line" smooth="yes"/>
      <point x="232" y="50"/>
      <point x="237" y="35"/>
      <point x="261" y="33" type="curve" smooth="yes"/>
      <point x="320" y="29" type="line"/>
      <point x="314" y="0" type="line"/>
    </contour>
  </outline>
</glyph>
<glyph name="J" format="1">
  <advance width="352"/>
  <unicode hex="004A"/>
  <outline>
    <contour>
      <point x="-43" y="-92" type="line"/>
      <point x="7" y="-87"/>
      <point x="48" y="-73"/>
      <point x="82" y="-42" type="curve" smooth="yes"/>
      <point x="113" y="-13"/>
      <point x="140" y="50"/>
      <point x="162" y="144" type="curve" smooth="yes"/>
      <point x="271" y="612" type="line" smooth="yes"/>
      <point x="278" y="643"/>
      <point x="272" y="656"/>
      <point x="248" y="658" type="curve" smooth="yes"/>
      <point x="189" y="663" type="line"/>
      <point x="196" y="692" type="line"/>
      <point x="471" y="692" type="line"/>
      <point x="464" y="663" type="line"/>
      <point x="409" y="659" type="line" smooth="yes"/>
      <point x="384" y="657"/>
      <point x="374" y="643"/>
      <point x="367" y="612" type="curve" smooth="yes"/>
      <point x="250" y="109" type="line" smooth="yes"/>
      <point x="227" y="9"/>
      <point x="192" y="-47"/>
      <point x="145" y="-80" type="curve" smooth="yes"/>
      <point x="105" y="-108"/>
      <point x="36" y="-119"/>
      <point x="-10" y="-119" type="curve" smooth="yes"/>
      <point x="-21" y="-119"/>
      <point x="-32" y="-118"/>
      <point x="-43" y="-117" type="curve"/>
    </contour>
  </outline>
</glyph>
<glyph name="L" format="1">
  <advance width="565"/>
  <unicode hex="004C"/>
  <outline>
    <contour>
      <point x="40" y="0" type="line"/>
      <point x="46" y="29" type="line"/>
      <point x="101" y="35" type="line" smooth="yes"/>
      <point x="125" y="37"/>
      <point x="135" y="48"/>
      <point x="143" y="83" type="curve" smooth="yes"/>
      <point x="263" y="609" type="line" smooth="yes"/>
      <point x="271" y="642"/>
      <point x="264" y="656"/>
      <point x="241" y="658" type="curve" smooth="yes"/>
      <point x="182" y="663" type="line"/>
      <point x="189" y="692" type="line"/>
      <point x="468" y="692" type="line"/>
      <point x="461" y="663" type="line"/>
      <point x="401" y="659" type="line" smooth="yes"/>
      <point x="376" y="657"/>
      <point x="366" y="642"/>
      <point x="358" y="609" type="curve" smooth="yes"/>
      <point x="247" y="122" type="line" smooth="yes"/>
      <point x="236" y="75"/>
      <point x="237" y="60"/>
      <point x="252" y="48" type="curve" smooth="yes"/>
      <point x="265" y="38"/>
      <point x="315" y="35"/>
      <point x="364" y="35" type="curve" smooth="yes"/>
      <point x="477" y="35"/>
      <point x="522" y="53"/>
      <point x="573" y="176" type="curve"/>
      <point x="603" y="176" type="line"/>
      <point x="552" y="0" type="line"/>
    </contour>
  </outline>
</glyph>
<glyph name="P" format="1">
  <advance width="614"/>
  <unicode hex="0050"/>
  <outline>
    <contour>
      <point x="40" y="0" type="line"/>
      <point x="46" y="29" type="line"/>
      <point x="101" y="35" type="line" smooth="yes"/>
      <point x="125" y="37"/>
      <point x="135" y="49"/>
      <point x="143" y="83" type="curve" smooth="yes"/>
      <point x="263" y="609" type="line" smooth="yes"/>
      <point x="271" y="642"/>
      <point x="264" y="656"/>
      <point x="241" y="658" type="curve" smooth="yes"/>
      <point x="182" y="663" type="line"/>
      <point x="189" y="692" type="line"/>
      <point x="423" y="692" type="line" smooth="yes"/>
      <point x="489" y="692"/>
      <point x="553" y="683"/>
      <point x="600" y="656" type="curve" smooth="yes"/>
      <point x="649" y="628"/>
      <point x="681" y="576"/>
      <point x="681" y="508" type="curve" smooth="yes"/>
      <point x="681" y="433"/>
      <point x="644" y="366"/>
      <point x="580" y="327" type="curve" smooth="yes"/>
      <point x="523" y="292"/>
      <point x="443" y="280"/>
      <point x="358" y="280" type="curve" smooth="yes"/>
      <point x="284" y="280" type="line"/>
      <point x="239" y="83" type="line" smooth="yes"/>
      <point x="232" y="51"/>
      <point x="237" y="37"/>
      <point x="261" y="35" type="curve" smooth="yes"/>
      <point x="330" y="29" type="line"/>
      <point x="324" y="0" type="line"/>
    </contour>
    <contour>
      <point x="301" y="357" type="line" smooth="yes"/>
      <point x="294" y="325"/>
      <point x="292" y="315"/>
      <point x="361" y="315" type="curve" smooth="yes"/>
      <point x="496" y="315"/>
      <point x="576" y="383"/>
      <point x="576" y="526" type="curve" smooth="yes"/>
      <point x="576" y="611"/>
      <point x="525" y="657"/>
      <point x="426" y="657" type="curve" smooth="yes"/>
      <point x="375" y="657"/>
      <point x="368" y="648"/>
      <point x="362" y="622" type="curve" smooth="yes"/>
    </contour>
  </outline>
</glyph>
<glyph name="Q" format="1">
  <advance width="753"/>
  <unicode hex="0051"/>
  <outline>
    <contour>
      <point x="114" y="270" type="curve" smooth="yes"/>
      <point x="114" y="336"/>
      <point x="128" y="430"/>
      <point x="183" y="523" type="curve" smooth="yes"/>
      <point x="241" y="619"/>
      <point x="340" y="707"/>
      <point x="500" y="707" type="curve" smooth="yes"/>
      <point x="665" y="707"/>
      <point x="789" y="619"/>
      <point x="789" y="414" type="curve" smooth="yes"/>
      <point x="789" y="375"/>
      <point x="780" y="273"/>
      <point x="726" y="175" type="curve" smooth="yes"/>
      <point x="678" y="88"/>
      <point x="605" y="8"/>
      <point x="468" y="-11" type="curve"/>
      <point x="480" y="-30"/>
      <point x="505" y="-62"/>
      <point x="534" y="-91" type="curve" smooth="yes"/>
      <point x="582" y="-139"/>
      <point x="629" y="-171"/>
      <point x="696" y="-170" type="curve"/>
      <point x="699" y="-187" type="line"/>
      <point x="682" y="-197"/>
      <point x="650" y="-203"/>
      <point x="624" y="-203" type="curve" smooth="yes"/>
      <point x="570" y="-203"/>
      <point x="505" y="-180"/>
      <point x="454" y="-137" type="curve" smooth="yes"/>
      <point x="411" y="-101"/>
      <point x="373" y="-53"/>
      <point x="351" y="-11" type="curve"/>
      <point x="191" y="9"/>
      <point x="114" y="121"/>
    </contour>
    <contour>
      <point x="219" y="230" type="curve" smooth="yes"/>
      <point x="219" y="91"/>
      <point x="290" y="20"/>
      <point x="398" y="20" type="curve" smooth="yes"/>
      <point x="528" y="20"/>
      <point x="596" y="113"/>
      <point x="637" y="220" type="curve" smooth="yes"/>
      <point x="678" y="326"/>
      <point x="684" y="409"/>
      <point x="684" y="466" type="curve" smooth="yes"/>
      <point x="684" y="607"/>
      <point x="614" y="672"/>
      <point x="504" y="672" type="curve" smooth="yes"/>
      <point x="398" y="672"/>
      <point x="327" y="599"/>
      <point x="281" y="504" type="curve" smooth="yes"/>
      <point x="235" y="407"/>
      <point x="219" y="314"/>
    </contour>
  </outline>
</glyph>
<glyph name="grave" format="1">
  <advance width="400"/>
  <unicode hex="0060"/>
  <outline>
    <contour>
      <point x="181" y="680" type="curve" smooth="yes"/>
      <point x="181" y="700"/>
      <point x="205" y="723"/>
      <point x="220" y="723" type="curve" smooth="yes"/>
      <point x="237" y="723"/>
      <point x="254" y="713"/>
      <point x="284" y="682" type="curve" smooth="yes"/>
      <point x="403" y="562" type="line"/>
      <point x="388" y="542" type="line"/>
      <point x="237" y="626" type="line" smooth="yes"/>
      <point x="207" y="642"/>
      <point x="181" y="659"/>
    </contour>
  </outline>
</glyph>
<glyph name="bar" format="1">
  <advance width="270"/>
  <unicode hex="007C"/>
  <outline>
    <contour>
      <point x="165" y="-250" type="line"/>
      <point x="165" y="750" type="line"/>
      <point x="233" y="750" type="line"/>
      <point x="233" y="-250" type="line"/>
    </contour>
  </outline>
</glyph>
<glyph name="braceright" format="1">
  <advance width="340"/>
  <unicode hex="007D"/>
  <outline>
    <contour>
      <point x="15" y="-128" type="line"/>
      <point x="22" y="-103" type="line"/>
      <point x="82" y="-99"/>
      <point x="114" y="-75"/>
      <point x="128" y="-39" type="curve" smooth="yes"/>
      <point x="141" y="-5"/>
      <point x="141" y="39"/>
      <point x="142" y="69" type="curve" smooth="yes"/>
      <point x="145" y="182"/>
      <point x="143" y="252"/>
      <point x="261" y="279" type="curve"/>
      <point x="261" y="285" type="line"/>
      <point x="158" y="306"/>
      <point x="186" y="384"/>
      <point x="238" y="495" type="curve" smooth="yes"/>
      <point x="253" y="527"/>
      <point x="276" y="576"/>
      <point x="275" y="611" type="curve" smooth="yes"/>
      <point x="273" y="642"/>
      <point x="253" y="663"/>
      <point x="196" y="667" type="curve"/>
      <point x="204" y="692" type="line"/>
      <point x="214" y="692" type="line" smooth="yes"/>
      <point x="271" y="692"/>
      <point x="334" y="672"/>
      <point x="337" y="603" type="curve" smooth="yes"/>
      <point x="338" y="563"/>
      <point x="319" y="518"/>
      <point x="292" y="457" type="curve" smooth="yes"/>
      <point x="260" y="384"/>
      <point x="220" y="298"/>
      <point x="334" y="295" type="curve"/>
      <point x="326" y="269" type="line"/>
      <point x="212" y="266"/>
      <point x="216" y="180"/>
      <point x="212" y="99" type="curve" smooth="yes"/>
      <point x="206" y="-24"/>
      <point x="185" y="-128"/>
      <point x="31" y="-128" type="curve" smooth="yes"/>
    </contour>
  </outline>
</glyph>
<glyph name="asciitilde" format="1">
  <advance width="570"/>
  <unicode hex="007E"/>
  <outline>
    <contour>
      <point x="133" y="201" type="line"/>
      <point x="157" y="251"/>
      <point x="190" y="307"/>
      <point x="263" y="307" type="curve" smooth="yes"/>
      <point x="293" y="307"/>
      <point x="325" y="296"/>
      <point x="356" y="284" type="curve" smooth="yes"/>
      <point x="387" y="273"/>
      <point x="416" y="261"/>
      <point x="440" y="261" type="curve" smooth="yes"/>
      <point x="474" y="261"/>
      <point x="488" y="275"/>
      <point x="517" y="318" type="curve"/>
      <point x="557" y="293" type="line"/>
      <point x="529" y="232"/>
      <point x="494" y="192"/>
      <point x="437" y="192" type="curve" smooth="yes"/>
      <point x="408" y="192"/>
      <point x="374" y="204"/>
      <point x="342" y="215" type="curve" smooth="yes"/>
      <point x="310" y="227"/>
      <point x="278" y="238"/>
      <point x="252" y="238" type="curve" smooth="yes"/>
      <point x="214" y="238"/>
      <point x="195" y="217"/>
      <point x="174" y="176" type="curve"/>
    </contour>
  </outline>
</glyph>
<glyph name="exclamdown" format="1">
  <advance width="265"/>
  <unicode hex="00A1"/>
  <outline>
    <contour>
      <point x="40" y="-149" type="curve" smooth="yes"/>
      <point x="180" y="281" type="line"/>
      <point x="208" y="281" type="line"/>
      <point x="153" y="-154" type="line" smooth="yes"/>
      <point x="148" y="-190"/>
      <point x="135" y="-217"/>
      <point x="82" y="-217" type="curve" smooth="yes"/>
      <point x="27" y="-217"/>
      <point x="27" y="-189"/>
    </contour>
    <contour>
      <point x="167" y="433" type="curve" smooth="yes"/>
      <point x="167" y="475"/>
      <point x="193" y="502"/>
      <point x="232" y="502" type="curve" smooth="yes"/>
      <point x="268" y="502"/>
      <point x="289" y="477"/>
      <point x="289" y="445" type="curve" smooth="yes"/>
      <point x="289" y="404"/>
      <point x="262" y="377"/>
      <point x="224" y="377" type="curve" smooth="yes"/>
      <point x="188" y="377"/>
      <point x="167" y="403"/>
    </contour>
  </outline>
</glyph>
<glyph name="sterling" format="1">
  <advance width="530"/>
  <unicode hex="00A3"/>
  <outline>
    <contour>
      <point x="44" y="5" type="line"/>
      <point x="67" y="45" type="line"/>
      <point x="139" y="70"/>
      <point x="221" y="105"/>
      <point x="244" y="175" type="curve" smooth="yes"/>
      <point x="254" y="204"/>
      <point x="256" y="239"/>
      <point x="244" y="291" type="curve"/>
      <point x="122" y="291" type="line"/>
      <point x="131" y="329" type="line"/>
      <point x="238" y="329" type="line"/>
      <point x="223" y="373"/>
      <point x="212" y="426"/>
      <point x="213" y="477" type="curve" smooth="yes"/>
      <point x="215" y="584"/>
      <point x="283" y="680"/>
      <point x="424" y="680" type="curve" smooth="yes"/>
      <point x="533" y="680"/>
      <point x="585" y="620"/>
      <point x="584" y="582" type="curve" smooth="yes"/>
      <point x="584" y="546"/>
      <point x="552" y="534"/>
      <point x="533" y="534" type="curve" smooth="yes"/>
      <point x="516" y="534"/>
      <point x="511" y="547"/>
      <point x="508" y="559" type="curve" smooth="yes"/>
      <point x="492" y="615"/>
      <point x="454" y="645"/>
      <point x="406" y="645" type="curve" smooth="yes"/>
      <point x="340" y="645"/>
      <point x="301" y="591"/>
      <point x="298" y="519" type="curve" smooth="yes"/>
      <point x="295" y="451"/>
      <point x="317" y="393"/>
      <point x="333" y="329" type="curve"/>
      <point x="481" y="329" type="line"/>
      <point x="472" y="291" type="line"/>
      <point x="337" y="291" type="line"/>
      <point x="338" y="273"/>
      <point x="337" y="254"/>
      <point x="333" y="232" type="curve" smooth="yes"/>
      <point x="324" y="180"/>
      <point x="286" y="123"/>
      <point x="202" y="76" type="curve"/>
      <point x="203" y="72" type="line"/>
      <point x="420" y="72" type="line" smooth="yes"/>
      <point x="470" y="72"/>
      <point x="487" y="103"/>
      <point x="505" y="125" type="curve"/>
      <point x="531" y="115" type="line"/>
      <point x="467" y="0" type="line"/>
      <point x="47" y="0" type="line"/>
    </contour>
  </outline>
</glyph>
<glyph name="yen" format="1">
  <advance width="530"/>
  <unicode hex="00A5"/>
  <outline>
    <contour>
      <point x="107" y="187" type="line"/>
      <point x="117" y="223" type="line"/>
      <point x="267" y="223" type="line"/>
      <point x="283" y="311" type="line"/>
      <point x="134" y="311" type="line"/>
      <point x="144" y="347" type="line"/>
      <point x="274" y="347" type="line"/>
      <point x="207" y="598" type="line" smooth="yes"/>
      <point x="202" y="617"/>
      <point x="195" y="636"/>
      <point x="177" y="637" type="curve" smooth="yes"/>
      <point x="142" y="639" type="line"/>
      <point x="149" y="668" type="line"/>
      <point x="369" y="668" type="line"/>
      <point x="363" y="639" type="line"/>
      <point x="321" y="637" type="line" smooth="yes"/>
      <point x="298" y="636"/>
      <point x="293" y="627"/>
      <point x="297" y="609" type="curve" smooth="yes"/>
      <point x="357" y="347" type="line"/>
      <point x="359" y="347" type="line"/>
      <point x="426" y="446"/>
      <point x="495" y="538"/>
      <point x="534" y="601" type="curve" smooth="yes"/>
      <point x="548" y="624"/>
      <point x="549" y="634"/>
      <point x="532" y="635" type="curve" smooth="yes"/>
      <point x="481" y="639" type="line"/>
      <point x="487" y="668" type="line"/>
      <point x="680" y="668" type="line"/>
      <point x="674" y="639" type="line"/>
      <point x="653" y="638" type="line" smooth="yes"/>
      <point x="626" y="637"/>
      <point x="605" y="622"/>
      <point x="580" y="588" type="curve" smooth="yes"/>
      <point x="399" y="347" type="line"/>
      <point x="538" y="347" type="line"/>
      <point x="529" y="311" type="line"/>
      <point x="373" y="311" type="line"/>
      <point x="352" y="223" type="line"/>
      <point x="515" y="223" type="line"/>
      <point x="506" y="187" type="line"/>
      <point x="344" y="187" type="line"/>
      <point x="317" y="63" type="line" smooth="yes"/>
      <point x="313" y="44"/>
      <point x="322" y="36"/>
      <point x="342" y="34" type="curve" smooth="yes"/>
      <point x="402" y="29" type="line"/>
      <point x="396" y="0" type="line"/>
      <point x="132" y="0" type="line"/>
      <point x="138" y="29" type="line"/>
      <point x="198" y="34" type="line" smooth="yes"/>
      <point x="214" y="35"/>
      <point x="227" y="44"/>
      <point x="231" y="63" type="curve" smooth="yes"/>
      <point x="259" y="187" type="line"/>
    </contour>
  </outline>
</glyph>
<glyph name="dieresis" format="1">
  <advance width="400"/>
  <unicode hex="00A8"/>
  <outline>
    <contour>
      <point x="415" y="621" type="curve" smooth="yes"/>
      <point x="415" y="657"/>
      <point x="441" y="682"/>
      <point x="474" y="682" type="curve" smooth="yes"/>
      <point x="504" y="682"/>
      <point x="522" y="658"/>
      <point x="522" y="633" type="curve" smooth="yes"/>
      <point x="522" y="599"/>
      <point x="499" y="572"/>
      <point x="464" y="572" type="curve" smooth="yes"/>
      <point x="432" y="572"/>
      <point x="415" y="592"/>
    </contour>
    <contour>
      <point x="207" y="621" type="curve" smooth="yes"/>
      <point x="207" y="657"/>
      <point x="233" y="682"/>
      <point x="266" y="682" type="curve" smooth="yes"/>
      <point x="296" y="682"/>
      <point x="314" y="658"/>
      <point x="314" y="633" type="curve" smooth="yes"/>
      <point x="314" y="599"/>
      <point x="291" y="572"/>
      <point x="256" y="572" type="curve" smooth="yes"/>
      <point x="224" y="572"/>
      <point x="207" y="592"/>
    </contour>
  </outline>
</glyph>
<glyph name="ordfeminine" format="1">
  <advance width="425"/>
  <unicode hex="00AA"/>
  <outline>
    <contour>
      <point x="112" y="341" type="curve" smooth="yes"/>
      <point x="112" y="424"/>
      <point x="191" y="590"/>
      <point x="347" y="590" type="curve" smooth="yes"/>
      <point x="371" y="590"/>
      <point x="387" y="586"/>
      <point x="402" y="577" type="curve"/>
      <point x="405" y="585" type="line"/>
      <point x="478" y="585" type="line"/>
      <point x="408" y="344" type="line" smooth="yes"/>
      <point x="401" y="320"/>
      <point x="400" y="307"/>
      <point x="412" y="307" type="curve" smooth="yes"/>
      <point x="432" y="307"/>
      <point x="461" y="349"/>
      <point x="475" y="371" type="curve"/>
      <point x="495" y="359" type="line"/>
      <point x="468" y="306"/>
      <point x="423" y="265"/>
      <point x="371" y="265" type="curve" smooth="yes"/>
      <point x="339" y="265"/>
      <point x="324" y="289"/>
      <point x="336" y="330" type="curve" smooth="yes"/>
      <point x="356" y="398" type="line"/>
      <point x="353" y="398" type="line"/>
      <point x="317" y="343"/>
      <point x="257" y="265"/>
      <point x="179" y="265" type="curve" smooth="yes"/>
      <point x="130" y="265"/>
      <point x="112" y="301"/>
    </contour>
    <contour>
      <point x="191" y="342" type="curve" smooth="yes"/>
      <point x="191" y="318"/>
      <point x="200" y="307"/>
      <point x="221" y="307" type="curve" smooth="yes"/>
      <point x="252" y="307"/>
      <point x="294" y="349"/>
      <point x="325" y="396" type="curve" smooth="yes"/>
      <point x="359" y="446"/>
      <point x="384" y="507"/>
      <point x="397" y="549" type="curve"/>
      <point x="391" y="557"/>
      <point x="375" y="562"/>
      <point x="355" y="562" type="curve" smooth="yes"/>
      <point x="256" y="562"/>
      <point x="191" y="412"/>
    </contour>
  </outline>
</glyph>
<glyph name="guillemotleft" format="1">
  <advance width="462"/>
  <unicode hex="00AB"/>
  <outline>
    <contour>
      <point x="312" y="223" type="line" smooth="yes"/>
      <point x="306" y="232"/>
      <point x="308" y="246"/>
      <point x="316" y="254" type="curve" smooth="yes"/>
      <point x="485" y="435" type="line"/>
      <point x="505" y="418" type="line"/>
      <point x="403" y="255" type="line" smooth="yes"/>
      <point x="396" y="244"/>
      <point x="395" y="233"/>
      <point x="399" y="221" type="curve" smooth="yes"/>
      <point x="454" y="56" type="line"/>
      <point x="431" y="41" type="line"/>
    </contour>
    <contour>
      <point x="117" y="223" type="line" smooth="yes"/>
      <point x="111" y="232"/>
      <point x="113" y="246"/>
      <point x="121" y="254" type="curve" smooth="yes"/>
      <point x="290" y="435" type="line"/>
      <point x="310" y="418" type="line"/>
      <point x="208" y="255" type="line" smooth="yes"/>
      <point x="201" y="244"/>
      <point x="200" y="233"/>
      <point x="204" y="221" type="curve" smooth="yes"/>
      <point x="259" y="56" type="line"/>
      <point x="236" y="41" type="line"/>
    </contour>
  </outline>
</glyph>
<glyph name="uni00AD" format="1">
  <advance width="392"/>
  <unicode hex="00AD"/>
  <outline>
    <contour>
      <point x="117" y="216" type="line"/>
      <point x="131" y="286" type="line"/>
      <point x="376" y="286" type="line"/>
      <point x="362" y="216" type="line"/>
    </contour>
  </outline>
</glyph>
<glyph name="plusminus" format="1">
  <advance width="570"/>
  <unicode hex="00B1"/>
  <outline>
    <contour>
      <point x="93" y="311" type="line"/>
      <point x="93" y="369" type="line"/>
      <point x="302" y="369" type="line"/>
      <point x="302" y="556" type="line"/>
      <point x="370" y="556" type="line"/>
      <point x="370" y="369" type="line"/>
      <point x="577" y="369" type="line"/>
      <point x="577" y="311" type="line"/>
      <point x="370" y="311" type="line"/>
      <point x="370" y="114" type="line"/>
      <point x="302" y="114" type="line"/>
      <point x="302" y="311" type="line"/>
    </contour>
    <contour>
      <point x="93" y="0" type="line"/>
      <point x="93" y="58" type="line"/>
      <point x="577" y="58" type="line"/>
      <point x="577" y="0" type="line"/>
    </contour>
  </outline>
</glyph>
<glyph name="uni00B2" format="1">
  <advance width="370"/>
  <unicode hex="00B2"/>
  <outline>
    <contour>
      <point x="89" y="417" type="line"/>
      <point x="107" y="466"/>
      <point x="167" y="527"/>
      <point x="234" y="562" type="curve" smooth="yes"/>
      <point x="324" y="609"/>
      <point x="370" y="661"/>
      <point x="370" y="723" type="curve" smooth="yes"/>
      <point x="370" y="753"/>
      <point x="360" y="788"/>
      <point x="317" y="788" type="curve" smooth="yes"/>
      <point x="284" y="788"/>
      <point x="254" y="763"/>
      <point x="238" y="709" type="curve" smooth="yes"/>
      <point x="235" y="698"/>
      <point x="224" y="688"/>
      <point x="210" y="688" type="curve" smooth="yes"/>
      <point x="191" y="688"/>
      <point x="172" y="704"/>
      <point x="172" y="720" type="curve" smooth="yes"/>
      <point x="172" y="756"/>
      <point x="224" y="816"/>
      <point x="319" y="816" type="curve" smooth="yes"/>
      <point x="410" y="816"/>
      <point x="453" y="770"/>
      <point x="453" y="707" type="curve" smooth="yes"/>
      <point x="453" y="636"/>
      <point x="391" y="601"/>
      <point x="302" y="562" type="curve" smooth="yes"/>
      <point x="234" y="532"/>
      <point x="186" y="491"/>
      <point x="175" y="467" type="curve"/>
      <point x="330" y="467" type="line" smooth="yes"/>
      <point x="362" y="467"/>
      <point x="372" y="477"/>
      <point x="390" y="500" type="curve"/>
      <point x="412" y="493" type="line"/>
      <point x="376" y="408" type="line"/>
      <point x="96" y="408" type="line"/>
    </contour>
  </outline>
</glyph>
<glyph name="uni00B3" format="1">
  <advance width="370"/>
  <unicode hex="00B3"/>
  <outline>
    <contour>
      <point x="105" y="480" type="curve" smooth="yes"/>
      <point x="105" y="497"/>
      <point x="121" y="519"/>
      <point x="146" y="519" type="curve" smooth="yes"/>
      <point x="161" y="519"/>
      <point x="166" y="508"/>
      <point x="171" y="493" type="curve" smooth="yes"/>
      <point x="185" y="450"/>
      <point x="207" y="429"/>
      <point x="244" y="429" type="curve" smooth="yes"/>
      <point x="295" y="429"/>
      <point x="325" y="475"/>
      <point x="325" y="536" type="curve" smooth="yes"/>
      <point x="325" y="586"/>
      <point x="302" y="606"/>
      <point x="264" y="606" type="curve" smooth="yes"/>
      <point x="246" y="606"/>
      <point x="217" y="599"/>
      <point x="209" y="599" type="curve" smooth="yes"/>
      <point x="200" y="599"/>
      <point x="196" y="606"/>
      <point x="196" y="615" type="curve" smooth="yes"/>
      <point x="196" y="634"/>
      <point x="205" y="645"/>
      <point x="213" y="645" type="curve" smooth="yes"/>
      <point x="223" y="645"/>
      <point x="252" y="637"/>
      <point x="274" y="637" type="curve" smooth="yes"/>
      <point x="332" y="637"/>
      <point x="357" y="688"/>
      <point x="357" y="732" type="curve" smooth="yes"/>
      <point x="357" y="770"/>
      <point x="335" y="788"/>
      <point x="306" y="788" type="curve" smooth="yes"/>
      <point x="265" y="788"/>
      <point x="247" y="757"/>
      <point x="229" y="723" type="curve" smooth="yes"/>
      <point x="223" y="712"/>
      <point x="217" y="704"/>
      <point x="201" y="704" type="curve" smooth="yes"/>
      <point x="184" y="704"/>
      <point x="167" y="720"/>
      <point x="167" y="735" type="curve" smooth="yes"/>
      <point x="167" y="769"/>
      <point x="216" y="816"/>
      <point x="304" y="816" type="curve" smooth="yes"/>
      <point x="391" y="816"/>
      <point x="435" y="775"/>
      <point x="435" y="717" type="curve" smooth="yes"/>
      <point x="435" y="663"/>
      <point x="389" y="628"/>
      <point x="327" y="623" type="curve"/>
      <point x="327" y="621" type="line"/>
      <point x="390" y="609"/>
      <point x="408" y="562"/>
      <point x="408" y="525" type="curve" smooth="yes"/>
      <point x="408" y="461"/>
      <point x="359" y="401"/>
      <point x="237" y="401" type="curve" smooth="yes"/>
      <point x="151" y="401"/>
      <point x="105" y="446"/>
    </contour>
  </outline>
</glyph>
<glyph name="mu" format="1">
  <advance width="618"/>
  <unicode hex="00B5"/>
  <outline>
    <contour>
      <point x="49" y="-187" type="curve" smooth="yes"/>
      <point x="203" y="397" type="line" smooth="yes"/>
      <point x="211" y="428"/>
      <point x="212" y="443"/>
      <point x="188" y="445" type="curve" smooth="yes"/>
      <point x="126" y="450" type="line"/>
      <point x="132" y="474" type="line"/>
      <point x="314" y="502" type="line"/>
      <point x="319" y="497" type="line"/>
      <point x="223" y="128" type="line" smooth="yes"/>
      <point x="208" y="70"/>
      <point x="216" y="40"/>
      <point x="248" y="40" type="curve" smooth="yes"/>
      <point x="331" y="40"/>
      <point x="418" y="173"/>
      <point x="462" y="274" type="curve" smooth="yes"/>
      <point x="488" y="335"/>
      <point x="504" y="388"/>
      <point x="533" y="490" type="curve"/>
      <point x="622" y="502" type="line"/>
      <point x="515" y="94" type="line" smooth="yes"/>
      <point x="507" y="63"/>
      <point x="507" y="40"/>
      <point x="528" y="40" type="curve" smooth="yes"/>
      <point x="556" y="40"/>
      <point x="600" y="112"/>
      <point x="620" y="146" type="curve"/>
      <point x="644" y="131" type="line"/>
      <point x="609" y="57"/>
      <point x="549" y="-12"/>
      <point x="477" y="-12" type="curve" smooth="yes"/>
      <point x="424" y="-12"/>
      <point x="412" y="29"/>
      <point x="431" y="96" type="curve" smooth="yes"/>
      <point x="464" y="210" type="line"/>
      <point x="462" y="210" type="line"/>
      <point x="402" y="94"/>
      <point x="297" y="-12"/>
      <point x="208" y="-12" type="curve" smooth="yes"/>
      <point x="189" y="-12"/>
      <point x="171" y="-5"/>
      <point x="154" y="11" type="curve"/>
      <point x="146" y="-21" type="line" smooth="yes"/>
      <point x="139" y="-46"/>
      <point x="139" y="-83"/>
      <point x="144" y="-109" type="curve" smooth="yes"/>
      <point x="149" y="-132"/>
      <point x="155" y="-152"/>
      <point x="155" y="-170" type="curve" smooth="yes"/>
      <point x="155" y="-204"/>
      <point x="101" y="-232"/>
      <point x="72" y="-232" type="curve" smooth="yes"/>
      <point x="51" y="-232"/>
      <point x="41" y="-218"/>
    </contour>
  </outline>
</glyph>
<glyph name="cedilla" format="1">
  <advance width="400"/>
  <unicode hex="00B8"/>
  <outline>
    <contour>
      <point x="97" y="-220" type="curve"/>
      <point x="101" y="-196" type="line"/>
      <point x="146" y="-202"/>
      <point x="199" y="-195"/>
      <point x="199" y="-147" type="curve" smooth="yes"/>
      <point x="199" y="-120"/>
      <point x="179" y="-97"/>
      <point x="144" y="-95" type="curve"/>
      <point x="141" y="-86" type="line"/>
      <point x="201" y="0" type="line"/>
      <point x="246" y="0" type="line"/>
      <point x="202" y="-60" type="line"/>
      <point x="248" y="-66"/>
      <point x="284" y="-107"/>
      <point x="274" y="-157" type="curve" smooth="yes"/>
      <point x="265" y="-203"/>
      <point x="216" y="-230"/>
      <point x="163" y="-230" type="curve" smooth="yes"/>
      <point x="138" y="-230"/>
      <point x="112" y="-226"/>
    </contour>
  </outline>
</glyph>
<glyph name="guillemotright" format="1">
  <advance width="462"/>
  <unicode hex="00BB"/>
  <outline>
    <contour>
      <point x="259" y="58" type="line"/>
      <point x="361" y="221" type="line" smooth="yes"/>
      <point x="368" y="232"/>
      <point x="369" y="243"/>
      <point x="365" y="255" type="curve" smooth="yes"/>
      <point x="310" y="420" type="line"/>
      <point x="333" y="435" type="line"/>
      <point x="452" y="253" type="line" smooth="yes"/>
      <point x="458" y="244"/>
      <point x="456" y="230"/>
      <point x="448" y="222" type="curve" smooth="yes"/>
      <point x="279" y="41" type="line"/>
    </contour>
    <contour>
      <point x="64" y="58" type="line"/>
      <point x="166" y="221" type="line" smooth="yes"/>
      <point x="173" y="232"/>
      <point x="174" y="243"/>
      <point x="170" y="255" type="curve" smooth="yes"/>
      <point x="115" y="420" type="line"/>
      <point x="138" y="435" type="line"/>
      <point x="257" y="253" type="line" smooth="yes"/>
      <point x="263" y="244"/>
      <point x="261" y="230"/>
      <point x="253" y="222" type="curve" smooth="yes"/>
      <point x="84" y="41" type="line"/>
    </contour>
  </outline>
</glyph>
<glyph name="onequarter" format="1">
  <advance width="890"/>
  <unicode hex="00BC"/>
  <outline>
    <contour>
      <point x="515" y="120" type="line"/>
      <point x="596" y="220"/>
      <point x="683" y="317"/>
      <point x="766" y="401" type="curve"/>
      <point x="828" y="401" type="line"/>
      <point x="772" y="137" type="line"/>
      <point x="840" y="137" type="line"/>
      <point x="830" y="104" type="line"/>
      <point x="765" y="104" type="line"/>
      <point x="754" y="50" type="line" smooth="yes"/>
      <point x="751" y="34"/>
      <point x="757" y="27"/>
      <point x="771" y="26" type="curve" smooth="yes"/>
      <point x="804" y="23" type="line"/>
      <point x="799" y="0" type="line"/>
      <point x="606" y="0" type="line"/>
      <point x="611" y="23" type="line"/>
      <point x="657" y="26" type="line" smooth="yes"/>
      <point x="670" y="27"/>
      <point x="681" y="34"/>
      <point x="684" y="50" type="curve" smooth="yes"/>
      <point x="695" y="104" type="line"/>
      <point x="524" y="104" type="line"/>
    </contour>
    <contour>
      <point x="576" y="137" type="curve"/>
      <point x="702" y="137" type="line"/>
      <point x="745" y="329" type="line"/>
      <point x="739" y="329" type="line"/>
      <point x="683" y="273"/>
      <point x="629" y="207"/>
    </contour>
    <contour>
      <point x="232" y="6" type="line"/>
      <point x="768" y="698" type="line"/>
      <point x="802" y="671" type="line"/>
      <point x="265" y="-24" type="line"/>
    </contour>
    <contour>
      <point x="146" y="272" type="line"/>
      <point x="151" y="295" type="line"/>
      <point x="202" y="299" type="line" smooth="yes"/>
      <point x="220" y="300"/>
      <point x="230" y="306"/>
      <point x="233" y="322" type="curve" smooth="yes"/>
      <point x="295" y="611" type="line" smooth="yes"/>
      <point x="298" y="623"/>
      <point x="296" y="629"/>
      <point x="281" y="631" type="curve" smooth="yes"/>
      <point x="226" y="640" type="line"/>
      <point x="229" y="659" type="line"/>
      <point x="379" y="680" type="line"/>
      <point x="382" y="676" type="line"/>
      <point x="306" y="322" type="line" smooth="yes"/>
      <point x="303" y="306"/>
      <point x="309" y="300"/>
      <point x="328" y="299" type="curve" smooth="yes"/>
      <point x="376" y="295" type="line"/>
      <point x="371" y="272" type="line"/>
    </contour>
  </outline>
</glyph>
<glyph name="Atilde" format="1">
  <advance width="624"/>
  <unicode hex="00C3"/>
  <outline>
    <contour>
      <point x="299" y="736" type="line"/>
      <point x="319" y="776"/>
      <point x="347" y="834"/>
      <point x="411" y="834" type="curve" smooth="yes"/>
      <point x="435" y="834"/>
      <point x="463" y="825"/>
      <point x="490" y="815" type="curve" smooth="yes"/>
      <point x="518" y="806"/>
      <point x="545" y="796"/>
      <point x="566" y="796" type="curve" smooth="yes"/>
      <point x="594" y="796"/>
      <point x="606" y="807"/>
      <point x="634" y="842" type="curve"/>
      <point x="654" y="831" type="line"/>
      <point x="625" y="774"/>
      <point x="599" y="736"/>
      <point x="550" y="736" type="curve" smooth="yes"/>
      <point x="528" y="736"/>
      <point x="499" y="746"/>
      <point x="470" y="755" type="curve" smooth="yes"/>
      <point x="441" y="765"/>
      <point x="412" y="774"/>
      <point x="390" y="774" type="curve" smooth="yes"/>
      <point x="357" y="774"/>
      <point x="340" y="758"/>
      <point x="318" y="723" type="curve"/>
    </contour>
    <contour>
      <point x="-23" y="0" type="line"/>
      <point x="-17" y="29" type="line"/>
      <point x="16" y="33" type="line" smooth="yes"/>
      <point x="47" y="36"/>
      <point x="64" y="47"/>
      <point x="96" y="99" type="curve" smooth="yes"/>
      <point x="133" y="159"/>
      <point x="216" y="308"/>
      <point x="267" y="397" type="curve" smooth="yes"/>
      <point x="435" y="692" type="line"/>
      <point x="506" y="692" type="line"/>
      <point x="580" y="90" type="line" smooth="yes"/>
      <point x="585" y="49"/>
      <point x="589" y="35"/>
      <point x="620" y="32" type="curve" smooth="yes"/>
      <point x="658" y="29" type="line"/>
      <point x="652" y="0" type="line"/>
      <point x="406" y="0" type="line"/>
      <point x="412" y="29" type="line"/>
      <point x="465" y="34" type="line" smooth="yes"/>
      <point x="485" y="36"/>
      <point x="493" y="44"/>
      <point x="490" y="73" type="curve" smooth="yes"/>
      <point x="467" y="267" type="line"/>
      <point x="243" y="267" type="line"/>
      <point x="206" y="200"/>
      <point x="173" y="135"/>
      <point x="140" y="71" type="curve" smooth="yes"/>
      <point x="131" y="50"/>
      <point x="133" y="36"/>
      <point x="153" y="34" type="curve" smooth="yes"/>
      <point x="208" y="29" type="line"/>
      <point x="202" y="0" type="line"/>
    </contour>
    <contour>
      <point x="263" y="305" type="curve"/>
      <point x="462" y="305" type="line"/>
      <point x="427" y="599" type="line"/>
      <point x="425" y="599" type="line"/>
      <point x="371" y="502"/>
      <point x="316" y="404"/>
    </contour>
  </outline>
</glyph>
<glyph name="Aring" format="1">
  <advance width="624"/>
  <unicode hex="00C5"/>
  <outline>
    <contour>
      <point x="-23" y="0" type="line"/>
      <point x="-17" y="29" type="line"/>
      <point x="16" y="33" type="line" smooth="yes"/>
      <point x="47" y="36"/>
      <point x="64" y="47"/>
      <point x="96" y="99" type="curve" smooth="yes"/>
      <point x="133" y="159"/>
      <point x="216" y="308"/>
      <point x="267" y="397" type="curve" smooth="yes"/>
      <point x="423" y="666" type="line"/>
      <point x="384" y="681"/>
      <point x="369" y="713"/>
      <point x="369" y="745" type="curve" smooth="yes"/>
      <point x="369" y="779"/>
      <point x="387" y="861"/>
      <point x="491" y="861" type="curve" smooth="yes"/>
      <point x="540" y="861"/>
      <point x="585" y="830"/>
      <point x="585" y="770" type="curve" smooth="yes"/>
      <point x="585" y="706"/>
      <point x="547" y="674"/>
      <point x="509" y="665" type="curve"/>
      <point x="580" y="90" type="line" smooth="yes"/>
      <point x="585" y="49"/>
      <point x="589" y="35"/>
      <point x="620" y="32" type="curve" smooth="yes"/>
      <point x="658" y="29" type="line"/>
      <point x="652" y="0" type="line"/>
      <point x="406" y="0" type="line"/>
      <point x="412" y="29" type="line"/>
      <point x="465" y="34" type="line" smooth="yes"/>
      <point x="485" y="36"/>
      <point x="493" y="44"/>
      <point x="490" y="73" type="curve" smooth="yes"/>
      <point x="467" y="267" type="line"/>
      <point x="243" y="267" type="line"/>
      <point x="206" y="200"/>
      <point x="173" y="135"/>
      <point x="140" y="71" type="curve" smooth="yes"/>
      <point x="131" y="50"/>
      <point x="133" y="36"/>
      <point x="153" y="34" type="curve" smooth="yes"/>
      <point x="208" y="29" type="line"/>
      <point x="202" y="0" type="line"/>
    </contour>
    <contour>
      <point x="263" y="305" type="curve"/>
      <point x="462" y="305" type="line"/>
      <point x="427" y="599" type="line"/>
      <point x="425" y="599" type="line"/>
      <point x="371" y="502"/>
      <point x="315" y="404"/>
    </contour>
    <contour>
      <point x="426" y="745" type="curve" smooth="yes"/>
      <point x="426" y="709"/>
      <point x="445" y="692"/>
      <point x="467" y="692" type="curve" smooth="yes"/>
      <point x="522" y="692"/>
      <point x="528" y="759"/>
      <point x="528" y="780" type="curve" smooth="yes"/>
      <point x="528" y="811"/>
      <point x="510" y="828"/>
      <point x="488" y="828" type="curve" smooth="yes"/>
      <point x="439" y="828"/>
      <point x="426" y="767"/>
    </contour>
  </outline>
</glyph>
<glyph name="Ntilde" format="1">
  <advance width="763"/>
  <unicode hex="00D1"/>
  <outline>
    <contour>
      <point x="369" y="736" type="line"/>
      <point x="389" y="776"/>
      <point x="417" y="834"/>
      <point x="481" y="834" type="curve" smooth="yes"/>
      <point x="505" y="834"/>
      <point x="533" y="825"/>
      <point x="560" y="815" type="curve" smooth="yes"/>
      <point x="588" y="806"/>
      <point x="615" y="796"/>
      <point x="636" y="796" type="curve" smooth="yes"/>
      <point x="664" y="796"/>
      <point x="676" y="807"/>
      <point x="704" y="842" type="curve"/>
      <point x="724" y="831" type="line"/>
      <point x="695" y="774"/>
      <point x="669" y="736"/>
      <point x="620" y="736" type="curve" smooth="yes"/>
      <point x="598" y="736"/>
      <point x="569" y="746"/>
      <point x="540" y="755" type="curve" smooth="yes"/>
      <point x="511" y="765"/>
      <point x="482" y="774"/>
      <point x="460" y="774" type="curve" smooth="yes"/>
      <point x="427" y="774"/>
      <point x="410" y="758"/>
      <point x="388" y="723" type="curve"/>
    </contour>
    <contour>
      <point x="31" y="0" type="line"/>
      <point x="36" y="29" type="line"/>
      <point x="67" y="32" type="line" smooth="yes"/>
      <point x="97" y="35"/>
      <point x="114" y="43"/>
      <point x="126" y="75" type="curve" smooth="yes"/>
      <point x="138" y="108"/>
      <point x="149" y="146"/>
      <point x="161" y="199" type="curve" smooth="yes"/>
      <point x="255" y="609" type="line" smooth="yes"/>
      <point x="263" y="642"/>
      <point x="256" y="655"/>
      <point x="233" y="657" type="curve" smooth="yes"/>
      <point x="174" y="663" type="line"/>
      <point x="181" y="692" type="line"/>
      <point x="371" y="692" type="line"/>
      <point x="455" y="505"/>
      <point x="541" y="318"/>
      <point x="627" y="131" type="curve"/>
      <point x="631" y="131" type="line"/>
      <point x="713" y="493" type="line" smooth="yes"/>
      <point x="725" y="546"/>
      <point x="731" y="584"/>
      <point x="734" y="617" type="curve" smooth="yes"/>
      <point x="737" y="650"/>
      <point x="720" y="655"/>
      <point x="688" y="659" type="curve" smooth="yes"/>
      <point x="649" y="663" type="line"/>
      <point x="654" y="692" type="line"/>
      <point x="890" y="692" type="line"/>
      <point x="885" y="663" type="line"/>
      <point x="854" y="660" type="line" smooth="yes"/>
      <point x="824" y="657"/>
      <point x="807" y="649"/>
      <point x="795" y="617" type="curve" smooth="yes"/>
      <point x="783" y="584"/>
      <point x="772" y="546"/>
      <point x="760" y="493" type="curve" smooth="yes"/>
      <point x="648" y="0" type="line"/>
      <point x="583" y="0" type="line"/>
      <point x="491" y="203"/>
      <point x="399" y="406"/>
      <point x="305" y="609" type="curve"/>
      <point x="302" y="609" type="line"/>
      <point x="208" y="199" type="line" smooth="yes"/>
      <point x="196" y="146"/>
      <point x="190" y="108"/>
      <point x="187" y="75" type="curve" smooth="yes"/>
      <point x="184" y="44"/>
      <point x="201" y="35"/>
      <point x="233" y="32" type="curve" smooth="yes"/>
      <point x="272" y="29" type="line"/>
      <point x="267" y="0" type="line"/>
    </contour>
  </outline>
</glyph>
<glyph name="Ograve" format="1">
  <advance width="753"/>
  <unicode hex="00D2"/>
  <outline>
    <contour>
      <point x="377" y="841" type="curve" smooth="yes"/>
      <point x="377" y="856"/>
      <point x="391" y="891"/>
      <point x="416" y="891" type="curve" smooth="yes"/>
      <point x="430" y="891"/>
      <point x="444" y="883"/>
      <point x="474" y="863" type="curve" smooth="yes"/>
      <point x="619" y="764" type="line"/>
      <point x="608" y="742" type="line"/>
      <point x="438" y="798" type="line" smooth="yes"/>
      <point x="399" y="810"/>
      <point x="377" y="817"/>
    </contour>
    <contour>
      <point x="114" y="270" type="curve" smooth="yes"/>
      <point x="114" y="336"/>
      <point x="128" y="430"/>
      <point x="183" y="523" type="curve" smooth="yes"/>
      <point x="241" y="619"/>
      <point x="340" y="707"/>
      <point x="500" y="707" type="curve" smooth="yes"/>
      <point x="665" y="707"/>
      <point x="789" y="619"/>
      <point x="789" y="414" type="curve" smooth="yes"/>
      <point x="789" y="375"/>
      <point x="780" y="273"/>
      <point x="726" y="175" type="curve" smooth="yes"/>
      <point x="671" y="76"/>
      <point x="584" y="-15"/>
      <point x="407" y="-15" type="curve" smooth="yes"/>
      <point x="208" y="-15"/>
      <point x="114" y="105"/>
    </contour>
    <contour>
      <point x="219" y="230" type="curve" smooth="yes"/>
      <point x="219" y="91"/>
      <point x="290" y="20"/>
      <point x="398" y="20" type="curve" smooth="yes"/>
      <point x="528" y="20"/>
      <point x="596" y="113"/>
      <point x="637" y="220" type="curve" smooth="yes"/>
      <point x="678" y="326"/>
      <point x="684" y="409"/>
      <point x="684" y="466" type="curve" smooth="yes"/>
      <point x="684" y="607"/>
      <point x="614" y="672"/>
      <point x="504" y="672" type="curve" smooth="yes"/>
      <point x="398" y="672"/>
      <point x="327" y="599"/>
      <point x="281" y="504" type="curve" smooth="yes"/>
      <point x="235" y="407"/>
      <point x="219" y="314"/>
    </contour>
  </outline>
</glyph>
<glyph name="Odieresis" format="1">
  <advance width="753"/>
  <unicode hex="00D6"/>
  <outline>
    <contour>
      <point x="593" y="787" type="curve" smooth="yes"/>
      <point x="593" y="823"/>
      <point x="619" y="848"/>
      <point x="652" y="848" type="curve" smooth="yes"/>
      <point x="682" y="848"/>
      <point x="700" y="824"/>
      <point x="700" y="799" type="curve" smooth="yes"/>
      <point x="700" y="765"/>
      <point x="677" y="738"/>
      <point x="642" y="738" type="curve" smooth="yes"/>
      <point x="610" y="738"/>
      <point x="593" y="758"/>
    </contour>
    <contour>
      <point x="385" y="787" type="curve" smooth="yes"/>
      <point x="385" y="823"/>
      <point x="411" y="848"/>
      <point x="444" y="848" type="curve" smooth="yes"/>
      <point x="474" y="848"/>
      <point x="492" y="824"/>
      <point x="492" y="799" type="curve" smooth="yes"/>
      <point x="492" y="765"/>
      <point x="469" y="738"/>
      <point x="434" y="738" type="curve" smooth="yes"/>
      <point x="402" y="738"/>
      <point x="385" y="758"/>
    </contour>
    <contour>
      <point x="114" y="270" type="curve" smooth="yes"/>
      <point x="114" y="336"/>
      <point x="128" y="430"/>
      <point x="183" y="523" type="curve" smooth="yes"/>
      <point x="241" y="619"/>
      <point x="340" y="707"/>
      <point x="500" y="707" type="curve" smooth="yes"/>
      <point x="665" y="707"/>
      <point x="789" y="619"/>
      <point x="789" y="414" type="curve" smooth="yes"/>
      <point x="789" y="375"/>
      <point x="780" y="273"/>
      <point x="726" y="175" type="curve" smooth="yes"/>
      <point x="671" y="76"/>
      <point x="584" y="-15"/>
      <point x="407" y="-15" type="curve" smooth="yes"/>
      <point x="208" y="-15"/>
      <point x="114" y="105"/>
    </contour>
    <contour>
      <point x="219" y="230" type="curve" smooth="yes"/>
      <point x="219" y="91"/>
      <point x="290" y="20"/>
      <point x="398" y="20" type="curve" smooth="yes"/>
      <point x="528" y="20"/>
      <point x="596" y="113"/>
      <point x="637" y="220" type="curve" smooth="yes"/>
      <point x="678" y="326"/>
      <point x="684" y="409"/>
      <point x="684" y="466" type="curve" smooth="yes"/>
      <point x="684" y="607"/>
      <point x="614" y="672"/>
      <point x="504" y="672" type="curve" smooth="yes"/>
      <point x="398" y="672"/>
      <point x="327" y="599"/>
      <point x="281" y="504" type="curve" smooth="yes"/>
      <point x="235" y="407"/>
      <point x="219" y="314"/>
    </contour>
  </outline>
</glyph>
<glyph name="Ugrave" format="1">
  <advance width="794"/>
  <unicode hex="00D9"/>
  <outline>
    <contour>
      <point x="362" y="841" type="curve" smooth="yes"/>
      <point x="362" y="856"/>
      <point x="376" y="891"/>
      <point x="401" y="891" type="curve" smooth="yes"/>
      <point x="415" y="891"/>
      <point x="429" y="883"/>
      <point x="459" y="863" type="curve" smooth="yes"/>
      <point x="604" y="764" type="line"/>
      <point x="593" y="742" type="line"/>
      <point x="423" y="798" type="line" smooth="yes"/>
      <point x="384" y="810"/>
      <point x="362" y="817"/>
    </contour>
    <contour>
      <point x="177" y="256" type="curve" smooth="yes"/>
      <point x="261" y="609" type="line" smooth="yes"/>
      <point x="269" y="642"/>
      <point x="262" y="656"/>
      <point x="239" y="658" type="curve" smooth="yes"/>
      <point x="180" y="663" type="line"/>
      <point x="187" y="692" type="line"/>
      <point x="461" y="692" type="line"/>
      <point x="454" y="663" type="line"/>
      <point x="399" y="659" type="line" smooth="yes"/>
      <point x="374" y="657"/>
      <point x="365" y="643"/>
      <point x="357" y="609" type="curve" smooth="yes"/>
      <point x="278" y="269" type="line" smooth="yes"/>
      <point x="234" y="81"/>
      <point x="304" y="20"/>
      <point x="415" y="20" type="curve" smooth="yes"/>
      <point x="554" y="20"/>
      <point x="603" y="127"/>
      <point x="634" y="260" type="curve" smooth="yes"/>
      <point x="715" y="609" type="line" smooth="yes"/>
      <point x="723" y="642"/>
      <point x="716" y="656"/>
      <point x="693" y="658" type="curve" smooth="yes"/>
      <point x="634" y="663" type="line"/>
      <point x="641" y="692" type="line"/>
      <point x="915" y="692" type="line"/>
      <point x="908" y="663" type="line"/>
      <point x="853" y="658" type="line" smooth="yes"/>
      <point x="828" y="656"/>
      <point x="819" y="643"/>
      <point x="811" y="609" type="curve" smooth="yes"/>
      <point x="726" y="247" type="line" smooth="yes"/>
      <point x="671" y="14"/>
      <point x="546" y="-15"/>
      <point x="410" y="-15" type="curve" smooth="yes"/>
      <point x="238" y="-15"/>
      <point x="130" y="57"/>
    </contour>
  </outline>
</glyph>
<glyph name="germandbls" format="1">
  <advance width="577"/>
  <unicode hex="00DF"/>
  <outline>
    <contour>
      <point x="-72" y="-184" type="curve" smooth="yes"/>
      <point x="-72" y="-159"/>
      <point x="-49" y="-134"/>
      <point x="-27" y="-134" type="curve" smooth="yes"/>
      <point x="-14" y="-134"/>
      <point x="-7" y="-146"/>
      <point x="0" y="-156" type="curve" smooth="yes"/>
      <point x="27" y="-197"/>
      <point x="42" y="-205"/>
      <point x="54" y="-205" type="curve" smooth="yes"/>
      <point x="64" y="-205"/>
      <point x="73" y="-197"/>
      <point x="77" y="-175" type="curve" smooth="yes"/>
      <point x="200" y="452" type="line"/>
      <point x="112" y="452" type="line"/>
      <point x="123" y="490" type="line"/>
      <point x="210" y="490" type="line"/>
      <point x="217" y="512" type="line" smooth="yes"/>
      <point x="245" y="607"/>
      <point x="316" y="744"/>
      <point x="493" y="742" type="curve" smooth="yes"/>
      <point x="604" y="742"/>
      <point x="665" y="686"/>
      <point x="665" y="606" type="curve" smooth="yes"/>
      <point x="665" y="570"/>
      <point x="655" y="528"/>
      <point x="592" y="471" type="curve"/>
      <point x="480" y="473"/>
      <point x="455" y="422"/>
      <point x="455" y="387" type="curve" smooth="yes"/>
      <point x="455" y="345"/>
      <point x="496" y="300"/>
      <point x="521" y="269" type="curve" smooth="yes"/>
      <point x="547" y="236"/>
      <point x="578" y="192"/>
      <point x="578" y="137" type="curve" smooth="yes"/>
      <point x="578" y="56"/>
      <point x="520" y="-12"/>
      <point x="418" y="-12" type="curve" smooth="yes"/>
      <point x="359" y="-12"/>
      <point x="304" y="17"/>
      <point x="303" y="46" type="curve" smooth="yes"/>
      <point x="301" y="72"/>
      <point x="325" y="91"/>
      <point x="344" y="91" type="curve" smooth="yes"/>
      <point x="355" y="91"/>
      <point x="363" y="86"/>
      <point x="371" y="74" type="curve" smooth="yes"/>
      <point x="399" y="32"/>
      <point x="424" y="25"/>
      <point x="447" y="25" type="curve" smooth="yes"/>
      <point x="476" y="25"/>
      <point x="505" y="48"/>
      <point x="505" y="93" type="curve" smooth="yes"/>
      <point x="505" y="134"/>
      <point x="479" y="174"/>
      <point x="439" y="222" type="curve" smooth="yes"/>
      <point x="407" y="260"/>
      <point x="379" y="305"/>
      <point x="379" y="350" type="curve" smooth="yes"/>
      <point x="379" y="434"/>
      <point x="444" y="487"/>
      <point x="523" y="491" type="curve"/>
      <point x="567" y="528"/>
      <point x="581" y="574"/>
      <point x="581" y="611" type="curve" smooth="yes"/>
      <point x="581" y="680"/>
      <point x="528" y="707"/>
      <point x="490" y="707" type="curve" smooth="yes"/>
      <point x="380" y="707"/>
      <point x="328" y="585"/>
      <point x="285" y="395" type="curve" smooth="yes"/>
      <point x="203" y="31" type="line" smooth="yes"/>
      <point x="160" y="-161"/>
      <point x="119" y="-242"/>
      <point x="19" y="-242" type="curve" smooth="yes"/>
      <point x="-28" y="-242"/>
      <point x="-71" y="-217"/>
    </contour>
  </outline>
</glyph>
<glyph name="adieresis" format="1">
  <advance width="561"/>
  <unicode hex="00E4"/>
  <outline>
    <contour>
      <point x="472" y="621" type="curve" smooth="yes"/>
      <point x="472" y="657"/>
      <point x="498" y="682"/>
      <point x="531" y="682" type="curve" smooth="yes"/>
      <point x="561" y="682"/>
      <point x="579" y="658"/>
      <point x="579" y="633" type="curve" smooth="yes"/>
      <point x="579" y="599"/>
      <point x="556" y="572"/>
      <point x="521" y="572" type="curve" smooth="yes"/>
      <point x="489" y="572"/>
      <point x="472" y="592"/>
    </contour>
    <contour>
      <point x="264" y="621" type="curve" smooth="yes"/>
      <point x="264" y="657"/>
      <point x="290" y="682"/>
      <point x="323" y="682" type="curve" smooth="yes"/>
      <point x="353" y="682"/>
      <point x="371" y="658"/>
      <point x="371" y="633" type="curve" smooth="yes"/>
      <point x="371" y="599"/>
      <point x="348" y="572"/>
      <point x="313" y="572" type="curve" smooth="yes"/>
      <point x="281" y="572"/>
      <point x="264" y="592"/>
    </contour>
    <contour>
      <point x="66" y="107" type="curve" smooth="yes"/>
      <point x="66" y="239"/>
      <point x="180" y="502"/>
      <point x="418" y="502" type="curve" smooth="yes"/>
      <point x="445" y="502"/>
      <point x="474" y="493"/>
      <point x="491" y="481" type="curve"/>
      <point x="496" y="494" type="line"/>
      <point x="580" y="494" type="line"/>
      <point x="474" y="95" type="line" smooth="yes"/>
      <point x="465" y="63"/>
      <point x="464" y="40"/>
      <point x="484" y="40" type="curve" smooth="yes"/>
      <point x="512" y="40"/>
      <point x="556" y="111"/>
      <point x="574" y="146" type="curve"/>
      <point x="598" y="132" type="line"/>
      <point x="564" y="56"/>
      <point x="508" y="-12"/>
      <point x="432" y="-12" type="curve" smooth="yes"/>
      <point x="378" y="-12"/>
      <point x="367" y="29"/>
      <point x="388" y="100" type="curve" smooth="yes"/>
      <point x="422" y="214" type="line"/>
      <point x="420" y="214" type="line"/>
      <point x="362" y="112"/>
      <point x="269" y="-12"/>
      <point x="162" y="-12" type="curve" smooth="yes"/>
      <point x="94" y="-12"/>
      <point x="66" y="47"/>
    </contour>
    <contour>
      <point x="165" y="110" type="curve" smooth="yes"/>
      <point x="165" y="71"/>
      <point x="176" y="40"/>
      <point x="209" y="40" type="curve" smooth="yes"/>
      <point x="257" y="40"/>
      <point x="318" y="107"/>
      <point x="374" y="192" type="curve" smooth="yes"/>
      <point x="427" y="272"/>
      <point x="463" y="371"/>
      <point x="481" y="445" type="curve"/>
      <point x="466" y="459"/>
      <point x="444" y="467"/>
      <point x="420" y="467" type="curve" smooth="yes"/>
      <point x="263" y="467"/>
      <point x="165" y="220"/>
    </contour>
  </outline>
</glyph>
<glyph name="eth" format="1">
  <advance width="537"/>
  <unicode hex="00F0"/>
  <outline>
    <contour>
      <point x="82" y="169" type="curve" smooth="yes"/>
      <point x="82" y="253"/>
      <point x="143" y="502"/>
      <point x="384" y="502" type="curve" smooth="yes"/>
      <point x="396" y="502"/>
      <point x="406" y="499"/>
      <point x="419" y="495" type="curve"/>
      <point x="419" y="498" type="line"/>
      <point x="410" y="520"/>
      <point x="388" y="555"/>
      <point x="356" y="594" type="curve"/>
      <point x="222" y="534" type="line"/>
      <point x="199" y="566" type="line"/>
      <point x="331" y="625" type="line"/>
      <point x="304" y="657"/>
      <point x="273" y="690"/>
      <point x="239" y="719" type="curve"/>
      <point x="239" y="725" type="line"/>
      <point x="277" y="742" type="line"/>
      <point x="312" y="718"/>
      <point x="351" y="685"/>
      <point x="387" y="650" type="curve"/>
      <point x="515" y="707" type="line"/>
      <point x="538" y="675" type="line"/>
      <point x="416" y="621" type="line"/>
      <point x="444" y="592"/>
      <point x="470" y="562"/>
      <point x="486" y="537" type="curve" smooth="yes"/>
      <point x="531" y="470"/>
      <point x="556" y="413"/>
      <point x="556" y="325" type="curve" smooth="yes"/>
      <point x="556" y="218"/>
      <point x="487" y="-12"/>
      <point x="258" y="-12" type="curve" smooth="yes"/>
      <point x="140" y="-12"/>
      <point x="82" y="62"/>
    </contour>
    <contour>
      <point x="179" y="125" type="curve" smooth="yes"/>
      <point x="179" y="58"/>
      <point x="212" y="23"/>
      <point x="270" y="23" type="curve" smooth="yes"/>
      <point x="407" y="23"/>
      <point x="459" y="291"/>
      <point x="459" y="367" type="curve" smooth="yes"/>
      <point x="459" y="433"/>
      <point x="436" y="467"/>
      <point x="377" y="467" type="curve" smooth="yes"/>
      <point x="242" y="467"/>
      <point x="179" y="237"/>
    </contour>
  </outline>
</glyph>
<glyph name="odieresis" format="1">
  <advance width="537"/>
  <unicode hex="00F6"/>
  <outline>
    <contour>
      <point x="460" y="621" type="curve" smooth="yes"/>
      <point x="460" y="657"/>
      <point x="486" y="682"/>
      <point x="519" y="682" type="curve" smooth="yes"/>
      <point x="549" y="682"/>
      <point x="567" y="658"/>
      <point x="567" y="633" type="curve" smooth="yes"/>
      <point x="567" y="599"/>
      <point x="544" y="572"/>
      <point x="509" y="572" type="curve" smooth="yes"/>
      <point x="477" y="572"/>
      <point x="460" y="592"/>
    </contour>
    <contour>
      <point x="252" y="621" type="curve" smooth="yes"/>
      <point x="252" y="657"/>
      <point x="278" y="682"/>
      <point x="311" y="682" type="curve" smooth="yes"/>
      <point x="341" y="682"/>
      <point x="359" y="658"/>
      <point x="359" y="633" type="curve" smooth="yes"/>
      <point x="359" y="599"/>
      <point x="336" y="572"/>
      <point x="301" y="572" type="curve" smooth="yes"/>
      <point x="269" y="572"/>
      <point x="252" y="592"/>
    </contour>
    <contour>
      <point x="84" y="169" type="curve" smooth="yes"/>
      <point x="84" y="255"/>
      <point x="141" y="502"/>
      <point x="378" y="502" type="curve" smooth="yes"/>
      <point x="459" y="502"/>
      <point x="557" y="465"/>
      <point x="557" y="327" type="curve" smooth="yes"/>
      <point x="557" y="273"/>
      <point x="540" y="188"/>
      <point x="494" y="116" type="curve" smooth="yes"/>
      <point x="447" y="42"/>
      <point x="377" y="-12"/>
      <point x="268" y="-12" type="curve" smooth="yes"/>
      <point x="142" y="-12"/>
      <point x="84" y="62"/>
    </contour>
    <contour>
      <point x="181" y="129" type="curve" smooth="yes"/>
      <point x="181" y="58"/>
      <point x="213" y="23"/>
      <point x="271" y="23" type="curve" smooth="yes"/>
      <point x="408" y="23"/>
      <point x="460" y="291"/>
      <point x="460" y="362" type="curve" smooth="yes"/>
      <point x="460" y="424"/>
      <point x="438" y="467"/>
      <point x="377" y="467" type="curve" smooth="yes"/>
      <point x="245" y="467"/>
      <point x="181" y="237"/>
    </contour>
  </outline>
</glyph>
<glyph name="thorn" format="1">
  <advance width="584"/>
  <unicode hex="00FE"/>
  <outline>
    <contour>
      <point x="51" y="-242" type="line"/>
      <point x="234" y="595" type="line" smooth="yes"/>
      <point x="241" y="626"/>
      <point x="240" y="641"/>
      <point x="216" y="643" type="curve" smooth="yes"/>
      <point x="154" y="648" type="line"/>
      <point x="160" y="672" type="line"/>
      <point x="341" y="700" type="line"/>
      <point x="346" y="695" type="line"/>
      <point x="249" y="286" type="line"/>
      <point x="252" y="286" type="line"/>
      <point x="328" y="429"/>
      <point x="427" y="502"/>
      <point x="504" y="502" type="curve" smooth="yes"/>
      <point x="578" y="502"/>
      <point x="615" y="455"/>
      <point x="615" y="368" type="curve" smooth="yes"/>
      <point x="615" y="292"/>
      <point x="548" y="-12"/>
      <point x="303" y="-12" type="curve" smooth="yes"/>
      <point x="251" y="-12"/>
      <point x="216" y="-3"/>
      <point x="195" y="10" type="curve"/>
      <point x="140" y="-230" type="line"/>
    </contour>
    <contour>
      <point x="205" y="53" type="curve"/>
      <point x="227" y="34"/>
      <point x="254" y="23"/>
      <point x="293" y="23" type="curve" smooth="yes"/>
      <point x="457" y="23"/>
      <point x="516" y="288"/>
      <point x="516" y="367" type="curve" smooth="yes"/>
      <point x="516" y="420"/>
      <point x="498" y="450"/>
      <point x="462" y="450" type="curve" smooth="yes"/>
      <point x="405" y="450"/>
      <point x="332" y="370"/>
      <point x="284" y="286" type="curve" smooth="yes"/>
      <point x="246" y="219"/>
      <point x="218" y="117"/>
    </contour>
  </outline>
</glyph>
<glyph name="Amacron" format="1">
  <advance width="624"/>
  <unicode hex="0100"/>
  <outline>
    <contour>
      <point x="333" y="759" type="line"/>
      <point x="347" y="818" type="line"/>
      <point x="653" y="818" type="line"/>
      <point x="639" y="759" type="line"/>
    </contour>
    <contour>
      <point x="-23" y="0" type="line"/>
      <point x="-17" y="29" type="line"/>
      <point x="16" y="33" type="line" smooth="yes"/>
      <point x="47" y="36"/>
      <point x="64" y="47"/>
      <point x="96" y="99" type="curve" smooth="yes"/>
      <point x="133" y="159"/>
      <point x="216" y="308"/>
      <point x="267" y="397" type="curve" smooth="yes"/>
      <point x="435" y="692" type="line"/>
      <point x="506" y="692" type="line"/>
      <point x="580" y="90" type="line" smooth="yes"/>
      <point x="585" y="49"/>
      <point x="589" y="35"/>
      <point x="620" y="32" type="curve" smooth="yes"/>
      <point x="658" y="29" type="line"/>
      <point x="652" y="0" type="line"/>
      <point x="406" y="0" type="line"/>
      <point x="412" y="29" type="line"/>
      <point x="465" y="34" type="line" smooth="yes"/>
      <point x="485" y="36"/>
      <point x="493" y="44"/>
      <point x="490" y="73" type="curve" smooth="yes"/>
      <point x="467" y="267" type="line"/>
      <point x="243" y="267" type="line"/>
      <point x="206" y="200"/>
      <point x="173" y="135"/>
      <point x="140" y="71" type="curve" smooth="yes"/>
      <point x="131" y="50"/>
      <point x="133" y="36"/>
      <point x="153" y="34" type="curve" smooth="yes"/>
      <point x="208" y="29" type="line"/>
      <point x="202" y="0" type="line"/>
    </contour>
    <contour>
      <point x="263" y="305" type="curve"/>
      <point x="462" y="305" type="line"/>
      <point x="427" y="599" type="line"/>
      <point x="425" y="599" type="line"/>
      <point x="371" y="502"/>
      <point x="316" y="404"/>
    </contour>
  </outline>
</glyph>
<glyph name="Abreve" format="1">
  <advance width="624"/>
  <unicode hex="0102"/>
  <outline>
    <contour>
      <point x="-23" y="0" type="line"/>
      <point x="-17" y="29" type="line"/>
      <point x="16" y="33" type="line" smooth="yes"/>
      <point x="47" y="36"/>
      <point x="64" y="47"/>
      <point x="96" y="99" type="curve" smooth="yes"/>
      <point x="133" y="159"/>
      <point x="216" y="308"/>
      <point x="267" y="397" type="curve" smooth="yes"/>
      <point x="435" y="692" type="line"/>
      <point x="506" y="692" type="line"/>
      <point x="580" y="90" type="line" smooth="yes"/>
      <point x="585" y="49"/>
      <point x="589" y="35"/>
      <point x="620" y="32" type="curve" smooth="yes"/>
      <point x="658" y="29" type="line"/>
      <point x="652" y="0" type="line"/>
      <point x="406" y="0" type="line"/>
      <point x="412" y="29" type="line"/>
      <point x="465" y="34" type="line" smooth="yes"/>
      <point x="485" y="36"/>
      <point x="493" y="44"/>
      <point x="490" y="73" type="curve" smooth="yes"/>
      <point x="467" y="267" type="line"/>
      <point x="243" y="267" type="line"/>
      <point x="206" y="200"/>
      <point x="173" y="135"/>
      <point x="140" y="71" type="curve" smooth="yes"/>
      <point x="131" y="50"/>
      <point x="133" y="36"/>
      <point x="153" y="34" type="curve" smooth="yes"/>
      <point x="208" y="29" type="line"/>
      <point x="202" y="0" type="line"/>
    </contour>
    <contour>
      <point x="263" y="305" type="curve"/>
      <point x="462" y="305" type="line"/>
      <point x="427" y="599" type="line"/>
      <point x="425" y="599" type="line"/>
      <point x="371" y="502"/>
      <point x="316" y="404"/>
    </contour>
    <contour>
      <point x="365" y="870" type="curve"/>
      <point x="393" y="870" type="line"/>
      <point x="390" y="851"/>
      <point x="407" y="808"/>
      <point x="498" y="808" type="curve" smooth="yes"/>
      <point x="589" y="808"/>
      <point x="624" y="851"/>
      <point x="631" y="870" type="curve"/>
      <point x="659" y="870" type="line"/>
      <point x="646" y="814"/>
      <point x="602" y="749"/>
      <point x="484" y="749" type="curve" smooth="yes"/>
      <point x="366" y="749"/>
      <point x="352" y="814"/>
    </contour>
  </outline>
</glyph>
<glyph name="Aogonek" format="1">
  <advance width="624"/>
  <unicode hex="0104"/>
  <outline>
    <contour>
      <point x="-23" y="0" type="line"/>
      <point x="-17" y="29" type="line"/>
      <point x="16" y="33" type="line" smooth="yes"/>
      <point x="47" y="36"/>
      <point x="64" y="47"/>
      <point x="96" y="99" type="curve" smooth="yes"/>
      <point x="133" y="159"/>
      <point x="216" y="308"/>
      <point x="267" y="397" type="curve" smooth="yes"/>
      <point x="435" y="692" type="line"/>
      <point x="506" y="692" type="line"/>
      <point x="580" y="90" type="line" smooth="yes"/>
      <point x="585" y="49"/>
      <point x="589" y="35"/>
      <point x="620" y="32" type="curve" smooth="yes"/>
      <point x="658" y="29" type="line"/>
      <point x="652" y="0" type="line"/>
      <point x="559" y="0" type="line"/>
      <point x="511" y="-38"/>
      <point x="477" y="-81"/>
      <point x="477" y="-137" type="curve" smooth="yes"/>
      <point x="477" y="-171"/>
      <point x="500" y="-184"/>
      <point x="530" y="-184" type="curve" smooth="yes"/>
      <point x="547" y="-184"/>
      <point x="563" y="-182"/>
      <point x="583" y="-172" type="curve"/>
      <point x="591" y="-193" type="line"/>
      <point x="561" y="-222"/>
      <point x="527" y="-230"/>
      <point x="498" y="-230" type="curve" smooth="yes"/>
      <point x="417" y="-230"/>
      <point x="406" y="-173"/>
      <point x="406" y="-152" type="curve" smooth="yes"/>
      <point x="406" y="-91"/>
      <point x="459" y="-36"/>
      <point x="517" y="0" type="curve"/>
      <point x="406" y="0" type="line"/>
      <point x="412" y="29" type="line"/>
      <point x="465" y="34" type="line" smooth="yes"/>
      <point x="485" y="36"/>
      <point x="493" y="44"/>
      <point x="490" y="73" type="curve" smooth="yes"/>
      <point x="467" y="267" type="line"/>
      <point x="243" y="267" type="line"/>
      <point x="140" y="71" type="line" smooth="yes"/>
      <point x="131" y="50"/>
      <point x="133" y="36"/>
      <point x="153" y="34" type="curve" smooth="yes"/>
      <point x="208" y="29" type="line"/>
      <point x="202" y="0" type="line"/>
    </contour>
    <contour>
      <point x="263" y="305" type="line"/>
      <point x="462" y="305" type="line"/>
      <point x="427" y="599" type="line"/>
      <point x="425" y="599" type="line"/>
    </contour>
  </outline>
</glyph>
<glyph name="cacute" format="1">
  <advance width="441"/>
  <unicode hex="0107"/>
  <outline>
    <contour>
      <point x="311" y="562" type="line"/>
      <point x="430" y="682" type="line" smooth="yes"/>
      <point x="460" y="713"/>
      <point x="477" y="723"/>
      <point x="494" y="723" type="curve" smooth="yes"/>
      <point x="509" y="723"/>
      <point x="533" y="700"/>
      <point x="533" y="680" type="curve" smooth="yes"/>
      <point x="533" y="659"/>
      <point x="507" y="642"/>
      <point x="477" y="626" type="curve" smooth="yes"/>
      <point x="326" y="542" type="line"/>
    </contour>
    <contour>
      <point x="81" y="148" type="curve" smooth="yes"/>
      <point x="81" y="312"/>
      <point x="193" y="502"/>
      <point x="371" y="502" type="curve" smooth="yes"/>
      <point x="446" y="502"/>
      <point x="500" y="464"/>
      <point x="500" y="413" type="curve" smooth="yes"/>
      <point x="500" y="380"/>
      <point x="460" y="357"/>
      <point x="436" y="357" type="curve" smooth="yes"/>
      <point x="418" y="357"/>
      <point x="409" y="369"/>
      <point x="407" y="387" type="curve" smooth="yes"/>
      <point x="401" y="447"/>
      <point x="379" y="467"/>
      <point x="347" y="467" type="curve" smooth="yes"/>
      <point x="255" y="467"/>
      <point x="180" y="298"/>
      <point x="180" y="168" type="curve" smooth="yes"/>
      <point x="180" y="97"/>
      <point x="195" y="37"/>
      <point x="268" y="37" type="curve" smooth="yes"/>
      <point x="335" y="37"/>
      <point x="394" y="108"/>
      <point x="428" y="154" type="curve"/>
      <point x="452" y="135" type="line"/>
      <point x="383" y="20"/>
      <point x="298" y="-12"/>
      <point x="224" y="-12" type="curve" smooth="yes"/>
      <point x="154" y="-12"/>
      <point x="81" y="26"/>
    </contour>
  </outline>
</glyph>
<glyph name="Ccircumflex" format="1">
  <advance width="661"/>
  <unicode hex="0108"/>
  <outline>
    <contour>
      <point x="392" y="742" type="line"/>
      <point x="532" y="853" type="line" smooth="yes"/>
      <point x="550" y="868"/>
      <point x="561" y="876"/>
      <point x="574" y="876" type="curve" smooth="yes"/>
      <point x="586" y="876"/>
      <point x="596" y="865"/>
      <point x="607" y="851" type="curve" smooth="yes"/>
      <point x="698" y="741" type="line"/>
      <point x="680" y="722" type="line"/>
      <point x="590" y="781" type="line" smooth="yes"/>
      <point x="578" y="790"/>
      <point x="567" y="797"/>
      <point x="558" y="797" type="curve" smooth="yes"/>
      <point x="550" y="797"/>
      <point x="535" y="790"/>
      <point x="522" y="783" type="curve" smooth="yes"/>
      <point x="405" y="722" type="line"/>
    </contour>
    <contour>
      <point x="114" y="275" type="curve" smooth="yes"/>
      <point x="114" y="344"/>
      <point x="127" y="436"/>
      <point x="182" y="525" type="curve" smooth="yes"/>
      <point x="240" y="619"/>
      <point x="349" y="707"/>
      <point x="537" y="707" type="curve" smooth="yes"/>
      <point x="607" y="707"/>
      <point x="701" y="690"/>
      <point x="758" y="654" type="curve"/>
      <point x="722" y="504" type="line"/>
      <point x="692" y="504" type="line"/>
      <point x="697" y="613"/>
      <point x="654" y="672"/>
      <point x="529" y="672" type="curve" smooth="yes"/>
      <point x="422" y="672"/>
      <point x="343" y="614"/>
      <point x="293" y="530" type="curve" smooth="yes"/>
      <point x="245" y="450"/>
      <point x="221" y="339"/>
      <point x="221" y="249" type="curve" smooth="yes"/>
      <point x="221" y="95"/>
      <point x="304" y="20"/>
      <point x="420" y="20" type="curve" smooth="yes"/>
      <point x="543" y="20"/>
      <point x="594" y="86"/>
      <point x="649" y="186" type="curve"/>
      <point x="679" y="186" type="line"/>
      <point x="630" y="27" type="line"/>
      <point x="566" y="-5"/>
      <point x="498" y="-15"/>
      <point x="427" y="-15" type="curve" smooth="yes"/>
      <point x="179" y="-15"/>
      <point x="114" y="143"/>
    </contour>
  </outline>
</glyph>
<glyph name="ccircumflex" format="1">
  <advance width="441"/>
  <unicode hex="0109"/>
  <outline>
    <contour>
      <point x="238" y="567" type="line"/>
      <point x="376" y="696" type="line" smooth="yes"/>
      <point x="391" y="709"/>
      <point x="404" y="720"/>
      <point x="416" y="720" type="curve" smooth="yes"/>
      <point x="427" y="720"/>
      <point x="437" y="708"/>
      <point x="446" y="696" type="curve" smooth="yes"/>
      <point x="535" y="567" type="line"/>
      <point x="512" y="546" type="line"/>
      <point x="427" y="621" type="line" smooth="yes"/>
      <point x="417" y="629"/>
      <point x="408" y="636"/>
      <point x="399" y="636" type="curve" smooth="yes"/>
      <point x="392" y="636"/>
      <point x="379" y="629"/>
      <point x="367" y="621" type="curve" smooth="yes"/>
      <point x="252" y="546" type="line"/>
    </contour>
    <contour>
      <point x="81" y="148" type="curve" smooth="yes"/>
      <point x="81" y="312"/>
      <point x="193" y="502"/>
      <point x="371" y="502" type="curve" smooth="yes"/>
      <point x="446" y="502"/>
      <point x="500" y="464"/>
      <point x="500" y="413" type="curve" smooth="yes"/>
      <point x="500" y="380"/>
      <point x="460" y="357"/>
      <point x="436" y="357" type="curve" smooth="yes"/>
      <point x="418" y="357"/>
      <point x="409" y="369"/>
      <point x="407" y="387" type="curve" smooth="yes"/>
      <point x="401" y="447"/>
      <point x="379" y="467"/>
      <point x="347" y="467" type="curve" smooth="yes"/>
      <point x="255" y="467"/>
      <point x="180" y="298"/>
      <point x="180" y="168" type="curve" smooth="yes"/>
      <point x="180" y="97"/>
      <point x="195" y="37"/>
      <point x="268" y="37" type="curve" smooth="yes"/>
      <point x="335" y="37"/>
      <point x="394" y="108"/>
      <point x="428" y="154" type="curve"/>
      <point x="452" y="135" type="line"/>
      <point x="383" y="20"/>
      <point x="298" y="-12"/>
      <point x="224" y="-12" type="curve" smooth="yes"/>
      <point x="154" y="-12"/>
      <point x="81" y="26"/>
    </contour>
  </outline>
</glyph>
<glyph name="Ccaron" format="1">
  <advance width="661"/>
  <unicode hex="010C"/>
  <outline>
    <contour>
      <point x="421" y="869" type="line"/>
      <point x="439" y="888" type="line"/>
      <point x="529" y="828" type="line" smooth="yes"/>
      <point x="541" y="820"/>
      <point x="552" y="813"/>
      <point x="561" y="813" type="curve" smooth="yes"/>
      <point x="569" y="813"/>
      <point x="584" y="820"/>
      <point x="597" y="827" type="curve" smooth="yes"/>
      <point x="714" y="888" type="line"/>
      <point x="727" y="868" type="line"/>
      <point x="587" y="757" type="line" smooth="yes"/>
      <point x="569" y="742"/>
      <point x="558" y="734"/>
      <point x="545" y="734" type="curve" smooth="yes"/>
      <point x="533" y="734"/>
      <point x="523" y="745"/>
      <point x="512" y="759" type="curve" smooth="yes"/>
    </contour>
    <contour>
      <point x="114" y="275" type="curve" smooth="yes"/>
      <point x="114" y="344"/>
      <point x="127" y="436"/>
      <point x="182" y="525" type="curve" smooth="yes"/>
      <point x="240" y="619"/>
      <point x="349" y="707"/>
      <point x="537" y="707" type="curve" smooth="yes"/>
      <point x="607" y="707"/>
      <point x="701" y="690"/>
      <point x="758" y="654" type="curve"/>
      <point x="722" y="504" type="line"/>
      <point x="692" y="504" type="line"/>
      <point x="697" y="613"/>
      <point x="654" y="672"/>
      <point x="529" y="672" type="curve" smooth="yes"/>
      <point x="422" y="672"/>
      <point x="343" y="614"/>
      <point x="293" y="530" type="curve" smooth="yes"/>
      <point x="245" y="450"/>
      <point x="221" y="339"/>
      <point x="221" y="249" type="curve" smooth="yes"/>
      <point x="221" y="95"/>
      <point x="304" y="20"/>
      <point x="420" y="20" type="curve" smooth="yes"/>
      <point x="543" y="20"/>
      <point x="594" y="86"/>
      <point x="649" y="186" type="curve"/>
      <point x="679" y="186" type="line"/>
      <point x="630" y="27" type="line"/>
      <point x="566" y="-5"/>
      <point x="498" y="-15"/>
      <point x="427" y="-15" type="curve" smooth="yes"/>
      <point x="179" y="-15"/>
      <point x="114" y="143"/>
    </contour>
  </outline>
</glyph>
<glyph name="Emacron" format="1">
  <advance width="596"/>
  <unicode hex="0112"/>
  <outline>
    <contour>
      <point x="320" y="759" type="line"/>
      <point x="334" y="818" type="line"/>
      <point x="640" y="818" type="line"/>
      <point x="626" y="759" type="line"/>
    </contour>
    <contour>
      <point x="38" y="0" type="line"/>
      <point x="44" y="29" type="line"/>
      <point x="100" y="35" type="line" smooth="yes"/>
      <point x="124" y="37"/>
      <point x="133" y="49"/>
      <point x="141" y="83" type="curve" smooth="yes"/>
      <point x="261" y="611" type="line" smooth="yes"/>
      <point x="269" y="645"/>
      <point x="262" y="657"/>
      <point x="239" y="659" type="curve" smooth="yes"/>
      <point x="179" y="663" type="line"/>
      <point x="186" y="692" type="line"/>
      <point x="692" y="692" type="line"/>
      <point x="654" y="525" type="line"/>
      <point x="624" y="525" type="line"/>
      <point x="633" y="615"/>
      <point x="636" y="657"/>
      <point x="510" y="657" type="curve" smooth="yes"/>
      <point x="389" y="657" type="line" smooth="yes"/>
      <point x="372" y="657"/>
      <point x="366" y="652"/>
      <point x="361" y="628" type="curve" smooth="yes"/>
      <point x="304" y="379" type="line"/>
      <point x="435" y="379" type="line" smooth="yes"/>
      <point x="523" y="379"/>
      <point x="534" y="395"/>
      <point x="560" y="464" type="curve"/>
      <point x="590" y="464" type="line"/>
      <point x="544" y="255" type="line"/>
      <point x="514" y="255" type="line"/>
      <point x="518" y="320"/>
      <point x="515" y="341"/>
      <point x="427" y="341" type="curve" smooth="yes"/>
      <point x="296" y="341" type="line"/>
      <point x="245" y="122" type="line" smooth="yes"/>
      <point x="234" y="75"/>
      <point x="235" y="60"/>
      <point x="250" y="48" type="curve" smooth="yes"/>
      <point x="263" y="38"/>
      <point x="313" y="35"/>
      <point x="362" y="35" type="curve" smooth="yes"/>
      <point x="485" y="35"/>
      <point x="530" y="53"/>
      <point x="581" y="176" type="curve"/>
      <point x="611" y="176" type="line"/>
      <point x="560" y="0" type="line"/>
    </contour>
  </outline>
</glyph>
<glyph name="Gcircumflex" format="1">
  <advance width="709"/>
  <unicode hex="011C"/>
  <outline>
    <contour>
      <point x="397" y="742" type="line"/>
      <point x="537" y="853" type="line" smooth="yes"/>
      <point x="555" y="868"/>
      <point x="566" y="876"/>
      <point x="579" y="876" type="curve" smooth="yes"/>
      <point x="591" y="876"/>
      <point x="601" y="865"/>
      <point x="612" y="851" type="curve" smooth="yes"/>
      <point x="703" y="741" type="line"/>
      <point x="685" y="722" type="line"/>
      <point x="595" y="781" type="line" smooth="yes"/>
      <point x="583" y="790"/>
      <point x="572" y="797"/>
      <point x="563" y="797" type="curve" smooth="yes"/>
      <point x="555" y="797"/>
      <point x="540" y="790"/>
      <point x="527" y="783" type="curve" smooth="yes"/>
      <point x="410" y="722" type="line"/>
    </contour>
    <contour>
      <point x="114" y="285" type="curve" smooth="yes"/>
      <point x="114" y="373"/>
      <point x="143" y="479"/>
      <point x="209" y="563" type="curve" smooth="yes"/>
      <point x="279" y="652"/>
      <point x="390" y="707"/>
      <point x="543" y="707" type="curve" smooth="yes"/>
      <point x="627" y="707"/>
      <point x="706" y="690"/>
      <point x="767" y="657" type="curve"/>
      <point x="731" y="501" type="line"/>
      <point x="701" y="501" type="line"/>
      <point x="708" y="587"/>
      <point x="689" y="672"/>
      <point x="542" y="672" type="curve" smooth="yes"/>
      <point x="303" y="672"/>
      <point x="224" y="438"/>
      <point x="224" y="278" type="curve" smooth="yes"/>
      <point x="224" y="101"/>
      <point x="313" y="20"/>
      <point x="434" y="20" type="curve" smooth="yes"/>
      <point x="538" y="20"/>
      <point x="551" y="45"/>
      <point x="558" y="74" type="curve" smooth="yes"/>
      <point x="595" y="225" type="line" smooth="yes"/>
      <point x="604" y="260"/>
      <point x="597" y="271"/>
      <point x="578" y="273" type="curve" smooth="yes"/>
      <point x="503" y="280" type="line"/>
      <point x="509" y="309" type="line"/>
      <point x="772" y="309" type="line"/>
      <point x="766" y="280" type="line"/>
      <point x="722" y="276" type="line" smooth="yes"/>
      <point x="705" y="274"/>
      <point x="699" y="259"/>
      <point x="691" y="225" type="curve" smooth="yes"/>
      <point x="644" y="23" type="line"/>
      <point x="587" y="2"/>
      <point x="505" y="-15"/>
      <point x="432" y="-15" type="curve" smooth="yes"/>
      <point x="339" y="-15"/>
      <point x="258" y="8"/>
      <point x="199" y="59" type="curve" smooth="yes"/>
      <point x="147" y="104"/>
      <point x="114" y="185"/>
    </contour>
  </outline>
</glyph>
<glyph name="Gdotaccent" format="1">
  <advance width="709"/>
  <unicode hex="0120"/>
  <outline>
    <contour>
      <point x="508" y="787" type="curve" smooth="yes"/>
      <point x="508" y="823"/>
      <point x="534" y="848"/>
      <point x="567" y="848" type="curve" smooth="yes"/>
      <point x="597" y="848"/>
      <point x="615" y="824"/>
      <point x="615" y="799" type="curve" smooth="yes"/>
      <point x="615" y="765"/>
      <point x="592" y="738"/>
      <point x="557" y="738" type="curve" smooth="yes"/>
      <point x="525" y="738"/>
      <point x="508" y="758"/>
    </contour>
    <contour>
      <point x="114" y="285" type="curve" smooth="yes"/>
      <point x="114" y="373"/>
      <point x="143" y="479"/>
      <point x="209" y="563" type="curve" smooth="yes"/>
      <point x="279" y="652"/>
      <point x="390" y="707"/>
      <point x="543" y="707" type="curve" smooth="yes"/>
      <point x="627" y="707"/>
      <point x="706" y="690"/>
      <point x="767" y="657" type="curve"/>
      <point x="731" y="501" type="line"/>
      <point x="701" y="501" type="line"/>
      <point x="708" y="587"/>
      <point x="689" y="672"/>
      <point x="542" y="672" type="curve" smooth="yes"/>
      <point x="303" y="672"/>
      <point x="224" y="438"/>
      <point x="224" y="278" type="curve" smooth="yes"/>
      <point x="224" y="101"/>
      <point x="313" y="20"/>
      <point x="434" y="20" type="curve" smooth="yes"/>
      <point x="538" y="20"/>
      <point x="551" y="45"/>
      <point x="558" y="74" type="curve" smooth="yes"/>
      <point x="595" y="225" type="line" smooth="yes"/>
      <point x="604" y="260"/>
      <point x="597" y="271"/>
      <point x="578" y="273" type="curve" smooth="yes"/>
      <point x="503" y="280" type="line"/>
      <point x="509" y="309" type="line"/>
      <point x="772" y="309" type="line"/>
      <point x="766" y="280" type="line"/>
      <point x="722" y="276" type="line" smooth="yes"/>
      <point x="705" y="274"/>
      <point x="699" y="259"/>
      <point x="691" y="225" type="curve" smooth="yes"/>
      <point x="644" y="23" type="line"/>
      <point x="587" y="2"/>
      <point x="505" y="-15"/>
      <point x="432" y="-15" type="curve" smooth="yes"/>
      <point x="339" y="-15"/>
      <point x="258" y="8"/>
      <point x="199" y="59" type="curve" smooth="yes"/>
      <point x="147" y="104"/>
      <point x="114" y="185"/>
    </contour>
  </outline>
</glyph>
<glyph name="Itilde" format="1">
  <advance width="345"/>
  <unicode hex="0128"/>
  <outline>
    <contour>
      <point x="40" y="0" type="line"/>
      <point x="46" y="29" type="line"/>
      <point x="101" y="35" type="line" smooth="yes"/>
      <point x="125" y="37"/>
      <point x="136" y="51"/>
      <point x="143" y="83" type="curve" smooth="yes"/>
      <point x="263" y="609" type="line" smooth="yes"/>
      <point x="270" y="639"/>
      <point x="264" y="657"/>
      <point x="241" y="659" type="curve" smooth="yes"/>
      <point x="182" y="663" type="line"/>
      <point x="189" y="692" type="line"/>
      <point x="463" y="692" type="line"/>
      <point x="456" y="663" type="line"/>
      <point x="401" y="658" type="line" smooth="yes"/>
      <point x="376" y="656"/>
      <point x="366" y="640"/>
      <point x="359" y="609" type="curve" smooth="yes"/>
      <point x="239" y="83" type="line" smooth="yes"/>
      <point x="232" y="52"/>
      <point x="237" y="35"/>
      <point x="261" y="33" type="curve" smooth="yes"/>
      <point x="320" y="29" type="line"/>
      <point x="314" y="0" type="line"/>
    </contour>
    <contour>
      <point x="174" y="736" type="line"/>
      <point x="194" y="776"/>
      <point x="222" y="834"/>
      <point x="286" y="834" type="curve" smooth="yes"/>
      <point x="310" y="834"/>
      <point x="338" y="825"/>
      <point x="365" y="815" type="curve" smooth="yes"/>
      <point x="393" y="806"/>
      <point x="420" y="796"/>
      <point x="441" y="796" type="curve" smooth="yes"/>
      <point x="469" y="796"/>
      <point x="481" y="807"/>
      <point x="509" y="842" type="curve"/>
      <point x="529" y="831" type="line"/>
      <point x="500" y="774"/>
      <point x="474" y="736"/>
      <point x="425" y="736" type="curve" smooth="yes"/>
      <point x="403" y="736"/>
      <point x="374" y="746"/>
      <point x="345" y="755" type="curve" smooth="yes"/>
      <point x="316" y="765"/>
      <point x="287" y="774"/>
      <point x="265" y="774" type="curve" smooth="yes"/>
      <point x="232" y="774"/>
      <point x="215" y="758"/>
      <point x="193" y="723" type="curve"/>
    </contour>
  </outline>
</glyph>
<glyph name="ibreve" format="1">
  <advance width="317"/>
  <unicode hex="012D"/>
  <outline>
    <contour>
      <point x="170" y="646" type="curve" smooth="yes"/>
      <point x="170" y="661"/>
      <point x="174" y="682"/>
      <point x="181" y="698" type="curve"/>
      <point x="205" y="698" type="line"/>
      <point x="203" y="678"/>
      <point x="205" y="630"/>
      <point x="293" y="630" type="curve" smooth="yes"/>
      <point x="382" y="630"/>
      <point x="407" y="678"/>
      <point x="418" y="698" type="curve"/>
      <point x="444" y="698" type="line"/>
      <point x="428" y="629"/>
      <point x="394" y="568"/>
      <point x="275" y="568" type="curve" smooth="yes"/>
      <point x="218" y="568"/>
      <point x="170" y="585"/>
    </contour>
    <contour>
      <point x="120" y="86" type="curve" smooth="yes"/>
      <point x="204" y="399" type="line" smooth="yes"/>
      <point x="213" y="434"/>
      <point x="210" y="443"/>
      <point x="183" y="445" type="curve" smooth="yes"/>
      <point x="126" y="450" type="line"/>
      <point x="132" y="474" type="line"/>
      <point x="314" y="502" type="line"/>
      <point x="319" y="497" type="line"/>
      <point x="210" y="95" type="line" smooth="yes"/>
      <point x="201" y="63"/>
      <point x="200" y="40"/>
      <point x="220" y="40" type="curve" smooth="yes"/>
      <point x="248" y="40"/>
      <point x="292" y="111"/>
      <point x="310" y="146" type="curve"/>
      <point x="334" y="132" type="line"/>
      <point x="300" y="56"/>
      <point x="244" y="-12"/>
      <point x="172" y="-12" type="curve" smooth="yes"/>
      <point x="118" y="-12"/>
      <point x="105" y="29"/>
    </contour>
  </outline>
</glyph>
<glyph name="IJ" format="1">
  <advance width="697"/>
  <unicode hex="0132"/>
  <outline>
    <contour>
      <point x="40" y="0" type="line"/>
      <point x="46" y="29" type="line"/>
      <point x="101" y="35" type="line" smooth="yes"/>
      <point x="125" y="37"/>
      <point x="136" y="51"/>
      <point x="143" y="83" type="curve" smooth="yes"/>
      <point x="263" y="609" type="line" smooth="yes"/>
      <point x="270" y="639"/>
      <point x="264" y="657"/>
      <point x="241" y="659" type="curve" smooth="yes"/>
      <point x="182" y="663" type="line"/>
      <point x="189" y="692" type="line"/>
      <point x="463" y="692" type="line"/>
      <point x="456" y="663" type="line"/>
      <point x="401" y="658" type="line" smooth="yes"/>
      <point x="376" y="656"/>
      <point x="366" y="640"/>
      <point x="359" y="609" type="curve" smooth="yes"/>
      <point x="239" y="83" type="line" smooth="yes"/>
      <point x="232" y="52"/>
      <point x="237" y="35"/>
      <point x="261" y="33" type="curve" smooth="yes"/>
      <point x="320" y="29" type="line"/>
      <point x="314" y="0" type="line"/>
    </contour>
    <contour>
      <point x="302" y="-92" type="line"/>
      <point x="352" y="-87"/>
      <point x="393" y="-73"/>
      <point x="427" y="-42" type="curve" smooth="yes"/>
      <point x="458" y="-13"/>
      <point x="485" y="50"/>
      <point x="507" y="144" type="curve" smooth="yes"/>
      <point x="616" y="612" type="line" smooth="yes"/>
      <point x="623" y="643"/>
      <point x="617" y="656"/>
      <point x="593" y="658" type="curve" smooth="yes"/>
      <point x="534" y="663" type="line"/>
      <point x="541" y="692" type="line"/>
      <point x="816" y="692" type="line"/>
      <point x="809" y="663" type="line"/>
      <point x="754" y="659" type="line" smooth="yes"/>
      <point x="729" y="657"/>
      <point x="719" y="643"/>
      <point x="712" y="612" type="curve" smooth="yes"/>
      <point x="595" y="109" type="line" smooth="yes"/>
      <point x="572" y="9"/>
      <point x="537" y="-47"/>
      <point x="490" y="-80" type="curve" smooth="yes"/>
      <point x="450" y="-108"/>
      <point x="381" y="-119"/>
      <point x="335" y="-119" type="curve" smooth="yes"/>
      <point x="324" y="-119"/>
      <point x="313" y="-118"/>
      <point x="302" y="-117" type="curve"/>
    </contour>
  </outline>
</glyph>
<glyph name="Jcircumflex" format="1">
  <advance width="352"/>
  <unicode hex="0134"/>
  <outline>
    <contour>
      <point x="195" y="742" type="line"/>
      <point x="335" y="853" type="line" smooth="yes"/>
      <point x="353" y="868"/>
      <point x="364" y="876"/>
      <point x="377" y="876" type="curve" smooth="yes"/>
      <point x="389" y="876"/>
      <point x="399" y="865"/>
      <point x="410" y="851" type="curve" smooth="yes"/>
      <point x="501" y="741" type="line"/>
      <point x="483" y="722" type="line"/>
      <point x="393" y="781" type="line" smooth="yes"/>
      <point x="381" y="790"/>
      <point x="370" y="797"/>
      <point x="361" y="797" type="curve" smooth="yes"/>
      <point x="353" y="797"/>
      <point x="338" y="790"/>
      <point x="325" y="783" type="curve" smooth="yes"/>
      <point x="208" y="722" type="line"/>
    </contour>
    <contour>
      <point x="-43" y="-92" type="line"/>
      <point x="7" y="-87"/>
      <point x="48" y="-73"/>
      <point x="82" y="-42" type="curve" smooth="yes"/>
      <point x="113" y="-13"/>
      <point x="140" y="50"/>
      <point x="162" y="144" type="curve" smooth="yes"/>
      <point x="271" y="612" type="line" smooth="yes"/>
      <point x="278" y="643"/>
      <point x="272" y="656"/>
      <point x="248" y="658" type="curve" smooth="yes"/>
      <point x="189" y="663" type="line"/>
      <point x="196" y="692" type="line"/>
      <point x="471" y="692" type="line"/>
      <point x="464" y="663" type="line"/>
      <point x="409" y="659" type="line" smooth="yes"/>
      <point x="384" y="657"/>
      <point x="374" y="643"/>
      <point x="367" y="612" type="curve" smooth="yes"/>
      <point x="250" y="109" type="line" smooth="yes"/>
      <point x="227" y="9"/>
      <point x="192" y="-47"/>
      <point x="145" y="-80" type="curve" smooth="yes"/>
      <point x="105" y="-108"/>
      <point x="36" y="-119"/>
      <point x="-10" y="-119" type="curve" smooth="yes"/>
      <point x="-21" y="-119"/>
      <point x="-32" y="-118"/>
      <point x="-43" y="-117" type="curve"/>
    </contour>
  </outline>
</glyph>
<glyph name="jcircumflex" format="1">
  <advance width="309"/>
  <unicode hex="0135"/>
  <outline>
    <contour>
      <point x="151" y="567" type="line"/>
      <point x="289" y="696" type="line" smooth="yes"/>
      <point x="304" y="709"/>
      <point x="317" y="720"/>
      <point x="329" y="720" type="curve" smooth="yes"/>
      <point x="340" y="720"/>
      <point x="350" y="708"/>
      <point x="359" y="696" type="curve" smooth="yes"/>
      <point x="448" y="567" type="line"/>
      <point x="425" y="546" type="line"/>
      <point x="340" y="621" type="line" smooth="yes"/>
      <point x="330" y="629"/>
      <point x="321" y="636"/>
      <point x="312" y="636" type="curve" smooth="yes"/>
      <point x="305" y="636"/>
      <point x="292" y="629"/>
      <point x="280" y="621" type="curve" smooth="yes"/>
      <point x="165" y="546" type="line"/>
    </contour>
    <contour>
      <point x="-60" y="-184" type="curve" smooth="yes"/>
      <point x="-60" y="-159"/>
      <point x="-37" y="-134"/>
      <point x="-15" y="-134" type="curve" smooth="yes"/>
      <point x="-2" y="-134"/>
      <point x="5" y="-145"/>
      <point x="11" y="-154" type="curve" smooth="yes"/>
      <point x="38" y="-194"/>
      <point x="56" y="-207"/>
      <point x="68" y="-207" type="curve" smooth="yes"/>
      <point x="80" y="-207"/>
      <point x="87" y="-195"/>
      <point x="91" y="-176" type="curve" smooth="yes"/>
      <point x="213" y="395" type="line" smooth="yes"/>
      <point x="221" y="430"/>
      <point x="222" y="443"/>
      <point x="198" y="445" type="curve" smooth="yes"/>
      <point x="136" y="450" type="line"/>
      <point x="142" y="474" type="line"/>
      <point x="321" y="502" type="line"/>
      <point x="326" y="497" type="line"/>
      <point x="213" y="-3" type="line" smooth="yes"/>
      <point x="193" y="-92"/>
      <point x="170" y="-156"/>
      <point x="142" y="-192" type="curve" smooth="yes"/>
      <point x="114" y="-227"/>
      <point x="81" y="-242"/>
      <point x="35" y="-242" type="curve" smooth="yes"/>
      <point x="-17" y="-242"/>
      <point x="-59" y="-217"/>
    </contour>
  </outline>
</glyph>
<glyph name="uni0136" format="1">
  <advance width="650"/>
  <unicode hex="0136"/>
  <outline>
    <contour>
      <point x="548" y="-268" type="line"/>
      <point x="577" y="-240"/>
      <point x="603" y="-206"/>
      <point x="603" y="-177" type="curve" smooth="yes"/>
      <point x="603" y="-147"/>
      <point x="584" y="-137"/>
      <point x="584" y="-107" type="curve" smooth="yes"/>
      <point x="584" y="-85"/>
      <point x="602" y="-65"/>
      <point x="628" y="-65" type="curve" smooth="yes"/>
      <point x="663" y="-65"/>
      <point x="678" y="-91"/>
      <point x="678" y="-119" type="curve" smooth="yes"/>
      <point x="678" y="-189"/>
      <point x="614" y="-243"/>
      <point x="562" y="-282" type="curve"/>
    </contour>
    <contour>
      <point x="40" y="0" type="line"/>
      <point x="46" y="29" type="line"/>
      <point x="101" y="35" type="line" smooth="yes"/>
      <point x="125" y="37"/>
      <point x="136" y="51"/>
      <point x="143" y="83" type="curve" smooth="yes"/>
      <point x="263" y="609" type="line" smooth="yes"/>
      <point x="270" y="639"/>
      <point x="264" y="657"/>
      <point x="241" y="659" type="curve" smooth="yes"/>
      <point x="182" y="663" type="line"/>
      <point x="189" y="692" type="line"/>
      <point x="463" y="692" type="line"/>
      <point x="456" y="663" type="line"/>
      <point x="401" y="658" type="line" smooth="yes"/>
      <point x="376" y="656"/>
      <point x="366" y="640"/>
      <point x="359" y="609" type="curve" smooth="yes"/>
      <point x="305" y="372" type="line"/>
      <point x="307" y="370" type="line"/>
      <point x="411" y="458"/>
      <point x="509" y="539"/>
      <point x="605" y="627" type="curve" smooth="yes"/>
      <point x="625" y="646"/>
      <point x="625" y="658"/>
      <point x="606" y="660" type="curve" smooth="yes"/>
      <point x="568" y="663" type="line"/>
      <point x="572" y="692" type="line"/>
      <point x="821" y="692" type="line"/>
      <point x="817" y="663" type="line"/>
      <point x="736" y="658"/>
      <point x="712" y="643"/>
      <point x="655" y="603" type="curve" smooth="yes"/>
      <point x="563" y="539"/>
      <point x="480" y="471"/>
      <point x="390" y="395" type="curve"/>
      <point x="432" y="307"/>
      <point x="500" y="185"/>
      <point x="567" y="101" type="curve" smooth="yes"/>
      <point x="603" y="56"/>
      <point x="627" y="29"/>
      <point x="684" y="24" type="curve"/>
      <point x="677" y="-5" type="line"/>
      <point x="628" y="-4" type="line" smooth="yes"/>
      <point x="551" y="-2"/>
      <point x="508" y="19"/>
      <point x="460" y="84" type="curve" smooth="yes"/>
      <point x="399" y="167"/>
      <point x="350" y="267"/>
      <point x="304" y="361" type="curve"/>
      <point x="302" y="361" type="line"/>
      <point x="239" y="83" type="line" smooth="yes"/>
      <point x="232" y="52"/>
      <point x="237" y="35"/>
      <point x="261" y="33" type="curve" smooth="yes"/>
      <point x="320" y="29" type="line"/>
      <point x="314" y="0" type="line"/>
    </contour>
  </outline>
</glyph>
<glyph name="kgreenlandic" format="1">
  <advance width="625"/>
  <unicode hex="0138"/>
  <outline>
    <contour>
      <point x="308" y="239" type="curve"/>
      <point x="256" y="0" type="line"/>
      <point x="166" y="0" type="line"/>
      <point x="229" y="293"/>
      <point x="247" y="376"/>
      <point x="254" y="407" type="curve" smooth="yes"/>
      <point x="255" y="413"/>
      <point x="256" y="418"/>
      <point x="256" y="422" type="curve" smooth="yes"/>
      <point x="256" y="435"/>
      <point x="250" y="441"/>
      <point x="243" y="441" type="curve" smooth="yes"/>
      <point x="221" y="441"/>
      <point x="176" y="414"/>
      <point x="150" y="363" type="curve"/>
      <point x="128" y="374" type="line"/>
      <point x="163" y="458"/>
      <point x="218" y="502"/>
      <point x="291" y="502" type="curve" smooth="yes"/>
      <point x="320" y="502"/>
      <point x="348" y="476"/>
      <point x="348" y="438" type="curve" smooth="yes"/>
      <point x="348" y="432"/>
      <point x="347" y="427"/>
      <point x="346" y="421" type="curve" smooth="yes"/>
      <point x="313" y="266" type="line"/>
      <point x="333" y="287" type="line" smooth="yes"/>
      <point x="432" y="388"/>
      <point x="524" y="479"/>
      <point x="572" y="490" type="curve"/>
      <point x="675" y="490" type="line"/>
      <point x="669" y="458" type="line"/>
      <point x="619" y="454"/>
      <point x="585" y="442"/>
      <point x="545" y="413" type="curve" smooth="yes"/>
      <point x="496" y="378"/>
      <point x="450" y="345"/>
      <point x="385" y="291" type="curve"/>
      <point x="469" y="155"/>
      <point x="525" y="37"/>
      <point x="590" y="27" type="curve"/>
      <point x="584" y="0" type="line"/>
      <point x="466" y="1"/>
      <point x="438" y="21"/>
      <point x="398" y="88" type="curve" smooth="yes"/>
      <point x="349" y="169"/>
      <point x="318" y="221"/>
    </contour>
  </outline>
</glyph>
<glyph name="uni013C" format="1">
  <advance width="306"/>
  <unicode hex="013C"/>
  <outline>
    <contour>
      <point x="63" y="-275" type="line"/>
      <point x="92" y="-247"/>
      <point x="118" y="-213"/>
      <point x="118" y="-184" type="curve" smooth="yes"/>
      <point x="118" y="-154"/>
      <point x="99" y="-144"/>
      <point x="99" y="-114" type="curve" smooth="yes"/>
      <point x="99" y="-92"/>
      <point x="117" y="-72"/>
      <point x="143" y="-72" type="curve" smooth="yes"/>
      <point x="178" y="-72"/>
      <point x="193" y="-98"/>
      <point x="193" y="-126" type="curve" smooth="yes"/>
      <point x="193" y="-196"/>
      <point x="129" y="-250"/>
      <point x="77" y="-289" type="curve"/>
    </contour>
    <contour>
      <point x="116" y="86" type="curve" smooth="yes"/>
      <point x="253" y="639" type="line" smooth="yes"/>
      <point x="263" y="678"/>
      <point x="258" y="685"/>
      <point x="233" y="688" type="curve" smooth="yes"/>
      <point x="176" y="695" type="line"/>
      <point x="182" y="718" type="line"/>
      <point x="361" y="742" type="line"/>
      <point x="366" y="737" type="line"/>
      <point x="205" y="94" type="line" smooth="yes"/>
      <point x="197" y="61"/>
      <point x="197" y="40"/>
      <point x="215" y="40" type="curve" smooth="yes"/>
      <point x="239" y="40"/>
      <point x="284" y="101"/>
      <point x="307" y="146" type="curve"/>
      <point x="331" y="132" type="line"/>
      <point x="299" y="57"/>
      <point x="238" y="-12"/>
      <point x="168" y="-12" type="curve" smooth="yes"/>
      <point x="114" y="-12"/>
      <point x="102" y="29"/>
    </contour>
  </outline>
</glyph>
<glyph name="Ncommaaccent" format="1">
  <advance width="763"/>
  <unicode hex="0145"/>
  <outline>
    <contour>
      <point x="31" y="0" type="line"/>
      <point x="36" y="29" type="line"/>
      <point x="67" y="32" type="line" smooth="yes"/>
      <point x="97" y="35"/>
      <point x="114" y="43"/>
      <point x="126" y="75" type="curve" smooth="yes"/>
      <point x="138" y="108"/>
      <point x="149" y="146"/>
      <point x="161" y="199" type="curve" smooth="yes"/>
      <point x="255" y="609" type="line" smooth="yes"/>
      <point x="263" y="642"/>
      <point x="256" y="655"/>
      <point x="233" y="657" type="curve" smooth="yes"/>
      <point x="174" y="663" type="line"/>
      <point x="181" y="692" type="line"/>
      <point x="371" y="692" type="line"/>
      <point x="455" y="505"/>
      <point x="541" y="318"/>
      <point x="627" y="131" type="curve"/>
      <point x="631" y="131" type="line"/>
      <point x="713" y="493" type="line" smooth="yes"/>
      <point x="725" y="546"/>
      <point x="731" y="584"/>
      <point x="734" y="617" type="curve" smooth="yes"/>
      <point x="737" y="650"/>
      <point x="720" y="655"/>
      <point x="688" y="659" type="curve" smooth="yes"/>
      <point x="649" y="663" type="line"/>
      <point x="654" y="692" type="line"/>
      <point x="890" y="692" type="line"/>
      <point x="885" y="663" type="line"/>
      <point x="854" y="660" type="line" smooth="yes"/>
      <point x="824" y="657"/>
      <point x="807" y="649"/>
      <point x="795" y="617" type="curve" smooth="yes"/>
      <point x="783" y="584"/>
      <point x="772" y="546"/>
      <point x="760" y="493" type="curve" smooth="yes"/>
      <point x="648" y="0" type="line"/>
      <point x="583" y="0" type="line"/>
      <point x="491" y="203"/>
      <point x="399" y="406"/>
      <point x="305" y="609" type="curve"/>
      <point x="302" y="609" type="line"/>
      <point x="208" y="199" type="line" smooth="yes"/>
      <point x="196" y="146"/>
      <point x="190" y="108"/>
      <point x="187" y="75" type="curve" smooth="yes"/>
      <point x="184" y="44"/>
      <point x="201" y="35"/>
      <point x="233" y="32" type="curve" smooth="yes"/>
      <point x="272" y="29" type="line"/>
      <point x="267" y="0" type="line"/>
    </contour>
    <contour>
      <point x="285" y="-247" type="line"/>
      <point x="314" y="-219"/>
      <point x="340" y="-185"/>
      <point x="340" y="-156" type="curve" smooth="yes"/>
      <point x="340" y="-126"/>
      <point x="321" y="-116"/>
      <point x="321" y="-86" type="curve" smooth="yes"/>
      <point x="321" y="-64"/>
      <point x="339" y="-44"/>
      <point x="365" y="-44" type="curve" smooth="yes"/>
      <point x="400" y="-44"/>
      <point x="415" y="-70"/>
      <point x="415" y="-98" type="curve" smooth="yes"/>
      <point x="415" y="-168"/>
      <point x="351" y="-222"/>
      <point x="299" y="-261" type="curve"/>
    </contour>
  </outline>
</glyph>
<glyph name="obreve" format="1">
  <advance width="537"/>
  <unicode hex="014F"/>
  <outline>
    <contour>
      <point x="282" y="646" type="curve" smooth="yes"/>
      <point x="282" y="661"/>
      <point x="286" y="682"/>
      <point x="293" y="698" type="curve"/>
      <point x="317" y="698" type="line"/>
      <point x="315" y="678"/>
      <point x="317" y="630"/>
      <point x="405" y="630" type="curve" smooth="yes"/>
      <point x="494" y="630"/>
      <point x="519" y="678"/>
      <point x="530" y="698" type="curve"/>
      <point x="556" y="698" type="line"/>
      <point x="540" y="629"/>
      <point x="506" y="568"/>
      <point x="387" y="568" type="curve" smooth="yes"/>
      <point x="330" y="568"/>
      <point x="282" y="585"/>
    </contour>
    <contour>
      <point x="84" y="169" type="curve" smooth="yes"/>
      <point x="84" y="255"/>
      <point x="141" y="502"/>
      <point x="378" y="502" type="curve" smooth="yes"/>
      <point x="459" y="502"/>
      <point x="557" y="465"/>
      <point x="557" y="327" type="curve" smooth="yes"/>
      <point x="557" y="273"/>
      <point x="540" y="188"/>
      <point x="494" y="116" type="curve" smooth="yes"/>
      <point x="447" y="42"/>
      <point x="377" y="-12"/>
      <point x="268" y="-12" type="curve" smooth="yes"/>
      <point x="142" y="-12"/>
      <point x="84" y="62"/>
    </contour>
    <contour>
      <point x="181" y="129" type="curve" smooth="yes"/>
      <point x="181" y="58"/>
      <point x="213" y="23"/>
      <point x="271" y="23" type="curve" smooth="yes"/>
      <point x="408" y="23"/>
      <point x="460" y="291"/>
      <point x="460" y="362" type="curve" smooth="yes"/>
      <point x="460" y="424"/>
      <point x="438" y="467"/>
      <point x="377" y="467" type="curve" smooth="yes"/>
      <point x="245" y="467"/>
      <point x="181" y="237"/>
    </contour>
  </outline>
</glyph>
<glyph name="Ohungarumlaut" format="1">
  <advance width="753"/>
  <unicode hex="0150"/>
  <outline>
    <contour>
      <point x="114" y="270" type="curve" smooth="yes"/>
      <point x="114" y="336"/>
      <point x="128" y="430"/>
      <point x="183" y="523" type="curve" smooth="yes"/>
      <point x="241" y="619"/>
      <point x="340" y="707"/>
      <point x="500" y="707" type="curve" smooth="yes"/>
      <point x="665" y="707"/>
      <point x="789" y="619"/>
      <point x="789" y="414" type="curve" smooth="yes"/>
      <point x="789" y="375"/>
      <point x="780" y="273"/>
      <point x="726" y="175" type="curve" smooth="yes"/>
      <point x="671" y="76"/>
      <point x="584" y="-15"/>
      <point x="407" y="-15" type="curve" smooth="yes"/>
      <point x="208" y="-15"/>
      <point x="114" y="105"/>
    </contour>
    <contour>
      <point x="219" y="230" type="curve" smooth="yes"/>
      <point x="219" y="91"/>
      <point x="290" y="20"/>
      <point x="398" y="20" type="curve" smooth="yes"/>
      <point x="528" y="20"/>
      <point x="596" y="113"/>
      <point x="637" y="220" type="curve" smooth="yes"/>
      <point x="678" y="326"/>
      <point x="684" y="409"/>
      <point x="684" y="466" type="curve" smooth="yes"/>
      <point x="684" y="607"/>
      <point x="614" y="672"/>
      <point x="504" y="672" type="curve" smooth="yes"/>
      <point x="398" y="672"/>
      <point x="327" y="599"/>
      <point x="281" y="504" type="curve" smooth="yes"/>
      <point x="235" y="407"/>
      <point x="219" y="314"/>
    </contour>
    <contour>
      <point x="570" y="766" type="line"/>
      <point x="640" y="855" type="line" smooth="yes"/>
      <point x="655" y="874"/>
      <point x="672" y="894"/>
      <point x="693" y="894" type="curve" smooth="yes"/>
      <point x="713" y="894"/>
      <point x="737" y="867"/>
      <point x="737" y="846" type="curve" smooth="yes"/>
      <point x="737" y="830"/>
      <point x="726" y="821"/>
      <point x="690" y="800" type="curve" smooth="yes"/>
      <point x="589" y="744" type="line"/>
    </contour>
    <contour>
      <point x="400" y="766" type="line"/>
      <point x="470" y="855" type="line" smooth="yes"/>
      <point x="485" y="874"/>
      <point x="502" y="894"/>
      <point x="523" y="894" type="curve" smooth="yes"/>
      <point x="543" y="894"/>
      <point x="567" y="867"/>
      <point x="567" y="846" type="curve" smooth="yes"/>
      <point x="567" y="830"/>
      <point x="556" y="821"/>
      <point x="520" y="800" type="curve" smooth="yes"/>
      <point x="419" y="744" type="line"/>
    </contour>
  </outline>
</glyph>
<glyph name="oe" format="1">
  <advance width="806"/>
  <unicode hex="0153"/>
  <outline>
    <contour>
      <point x="84" y="169" type="curve" smooth="yes"/>
      <point x="84" y="255"/>
      <point x="141" y="502"/>
      <point x="378" y="502" type="curve" smooth="yes"/>
      <point x="431" y="502"/>
      <point x="507" y="478"/>
      <point x="534" y="397" type="curve"/>
      <point x="589" y="461"/>
      <point x="659" y="502"/>
      <point x="735" y="502" type="curve" smooth="yes"/>
      <point x="817" y="502"/>
      <point x="859" y="455"/>
      <point x="859" y="402" type="curve" smooth="yes"/>
      <point x="859" y="374"/>
      <point x="852" y="341"/>
      <point x="817" y="306" type="curve" smooth="yes"/>
      <point x="774" y="266"/>
      <point x="701" y="226"/>
      <point x="533" y="192" type="curve"/>
      <point x="532" y="185"/>
      <point x="532" y="181"/>
      <point x="532" y="176" type="curve" smooth="yes"/>
      <point x="532" y="97"/>
      <point x="553" y="37"/>
      <point x="623" y="37" type="curve" smooth="yes"/>
      <point x="698" y="37"/>
      <point x="752" y="104"/>
      <point x="788" y="151" type="curve"/>
      <point x="811" y="131" type="line"/>
      <point x="743" y="20"/>
      <point x="655" y="-12"/>
      <point x="582" y="-12" type="curve" smooth="yes"/>
      <point x="544" y="-12"/>
      <point x="479" y="3"/>
      <point x="455" y="79" type="curve"/>
      <point x="408" y="25"/>
      <point x="342" y="-12"/>
      <point x="266" y="-12" type="curve" smooth="yes"/>
      <point x="142" y="-12"/>
      <point x="84" y="62"/>
    </contour>
    <contour>
      <point x="181" y="129" type="curve" smooth="yes"/>
      <point x="181" y="58"/>
      <point x="213" y="23"/>
      <point x="271" y="23" type="curve" smooth="yes"/>
      <point x="408" y="23"/>
      <point x="460" y="291"/>
      <point x="460" y="362" type="curve" smooth="yes"/>
      <point x="460" y="424"/>
      <point x="438" y="467"/>
      <point x="377" y="467" type="curve" smooth="yes"/>
      <point x="245" y="467"/>
      <point x="181" y="237"/>
    </contour>
    <contour>
      <point x="535" y="226" type="curve"/>
      <point x="704" y="262"/>
      <point x="765" y="338"/>
      <point x="765" y="408" type="curve" smooth="yes"/>
      <point x="765" y="443"/>
      <point x="742" y="467"/>
      <point x="707" y="467" type="curve" smooth="yes"/>
      <point x="627" y="467"/>
      <point x="552" y="347"/>
    </contour>
  </outline>
</glyph>
<glyph name="sacute" format="1">
  <advance width="389"/>
  <unicode hex="015B"/>
  <outline>
    <contour>
      <point x="244" y="562" type="line"/>
      <point x="363" y="682" type="line" smooth="yes"/>
      <point x="393" y="713"/>
      <point x="410" y="723"/>
      <point x="427" y="723" type="curve" smooth="yes"/>
      <point x="442" y="723"/>
      <point x="466" y="700"/>
      <point x="466" y="680" type="curve" smooth="yes"/>
      <point x="466" y="659"/>
      <point x="440" y="642"/>
      <point x="410" y="626" type="curve" smooth="yes"/>
      <point x="259" y="542" type="line"/>
    </contour>
    <contour>
      <point x="54" y="83" type="curve" smooth="yes"/>
      <point x="54" y="110"/>
      <point x="76" y="137"/>
      <point x="106" y="137" type="curve" smooth="yes"/>
      <point x="123" y="137"/>
      <point x="132" y="126"/>
      <point x="138" y="107" type="curve" smooth="yes"/>
      <point x="154" y="54"/>
      <point x="191" y="23"/>
      <point x="228" y="23" type="curve" smooth="yes"/>
      <point x="270" y="23"/>
      <point x="300" y="51"/>
      <point x="300" y="98" type="curve" smooth="yes"/>
      <point x="300" y="137"/>
      <point x="274" y="181"/>
      <point x="231" y="215" type="curve" smooth="yes"/>
      <point x="179" y="257"/>
      <point x="143" y="303"/>
      <point x="143" y="355" type="curve" smooth="yes"/>
      <point x="143" y="436"/>
      <point x="203" y="502"/>
      <point x="305" y="502" type="curve" smooth="yes"/>
      <point x="394" y="502"/>
      <point x="432" y="455"/>
      <point x="432" y="424" type="curve" smooth="yes"/>
      <point x="432" y="393"/>
      <point x="404" y="378"/>
      <point x="384" y="378" type="curve" smooth="yes"/>
      <point x="369" y="378"/>
      <point x="361" y="386"/>
      <point x="356" y="398" type="curve" smooth="yes"/>
      <point x="335" y="445"/>
      <point x="309" y="467"/>
      <point x="276" y="467" type="curve" smooth="yes"/>
      <point x="239" y="467"/>
      <point x="214" y="434"/>
      <point x="214" y="402" type="curve" smooth="yes"/>
      <point x="214" y="374"/>
      <point x="225" y="341"/>
      <point x="285" y="292" type="curve" smooth="yes"/>
      <point x="352" y="237"/>
      <point x="377" y="194"/>
      <point x="377" y="139" type="curve" smooth="yes"/>
      <point x="377" y="57"/>
      <point x="312" y="-12"/>
      <point x="204" y="-12" type="curve" smooth="yes"/>
      <point x="109" y="-12"/>
      <point x="54" y="40"/>
    </contour>
  </outline>
</glyph>
<glyph name="scircumflex" format="1">
  <advance width="389"/>
  <unicode hex="015D"/>
  <outline>
    <contour>
      <point x="171" y="567" type="line"/>
      <point x="309" y="696" type="line" smooth="yes"/>
      <point x="324" y="709"/>
      <point x="337" y="720"/>
      <point x="349" y="720" type="curve" smooth="yes"/>
      <point x="360" y="720"/>
      <point x="370" y="708"/>
      <point x="379" y="696" type="curve" smooth="yes"/>
      <point x="468" y="567" type="line"/>
      <point x="445" y="546" type="line"/>
      <point x="360" y="621" type="line" smooth="yes"/>
      <point x="350" y="629"/>
      <point x="341" y="636"/>
      <point x="332" y="636" type="curve" smooth="yes"/>
      <point x="325" y="636"/>
      <point x="312" y="629"/>
      <point x="300" y="621" type="curve" smooth="yes"/>
      <point x="185" y="546" type="line"/>
    </contour>
    <contour>
      <point x="54" y="83" type="curve" smooth="yes"/>
      <point x="54" y="110"/>
      <point x="76" y="137"/>
      <point x="106" y="137" type="curve" smooth="yes"/>
      <point x="123" y="137"/>
      <point x="132" y="126"/>
      <point x="138" y="107" type="curve" smooth="yes"/>
      <point x="154" y="54"/>
      <point x="191" y="23"/>
      <point x="228" y="23" type="curve" smooth="yes"/>
      <point x="270" y="23"/>
      <point x="300" y="51"/>
      <point x="300" y="98" type="curve" smooth="yes"/>
      <point x="300" y="137"/>
      <point x="274" y="181"/>
      <point x="231" y="215" type="curve" smooth="yes"/>
      <point x="179" y="257"/>
      <point x="143" y="303"/>
      <point x="143" y="355" type="curve" smooth="yes"/>
      <point x="143" y="436"/>
      <point x="203" y="502"/>
      <point x="305" y="502" type="curve" smooth="yes"/>
      <point x="394" y="502"/>
      <point x="432" y="455"/>
      <point x="432" y="424" type="curve" smooth="yes"/>
      <point x="432" y="393"/>
      <point x="404" y="378"/>
      <point x="384" y="378" type="curve" smooth="yes"/>
      <point x="369" y="378"/>
      <point x="361" y="386"/>
      <point x="356" y="398" type="curve" smooth="yes"/>
      <point x="335" y="445"/>
      <point x="309" y="467"/>
      <point x="276" y="467" type="curve" smooth="yes"/>
      <point x="239" y="467"/>
      <point x="214" y="434"/>
      <point x="214" y="402" type="curve" smooth="yes"/>
      <point x="214" y="374"/>
      <point x="225" y="341"/>
      <point x="285" y="292" type="curve" smooth="yes"/>
      <point x="352" y="237"/>
      <point x="377" y="194"/>
      <point x="377" y="139" type="curve" smooth="yes"/>
      <point x="377" y="57"/>
      <point x="312" y="-12"/>
      <point x="204" y="-12" type="curve" smooth="yes"/>
      <point x="109" y="-12"/>
      <point x="54" y="40"/>
    </contour>
  </outline>
</glyph>
<glyph name="scedilla" format="1">
  <advance width="389"/>
  <unicode hex="015F"/>
  <outline>
    <contour>
      <point x="80" y="-220" type="curve"/>
      <point x="84" y="-196" type="line"/>
      <point x="129" y="-202"/>
      <point x="182" y="-195"/>
      <point x="182" y="-147" type="curve" smooth="yes"/>
      <point x="182" y="-120"/>
      <point x="162" y="-97"/>
      <point x="127" y="-95" type="curve"/>
      <point x="124" y="-86" type="line"/>
      <point x="184" y="0" type="line"/>
      <point x="229" y="0" type="line"/>
      <point x="185" y="-60" type="line"/>
      <point x="231" y="-66"/>
      <point x="267" y="-107"/>
      <point x="257" y="-157" type="curve" smooth="yes"/>
      <point x="248" y="-203"/>
      <point x="199" y="-230"/>
      <point x="146" y="-230" type="curve" smooth="yes"/>
      <point x="121" y="-230"/>
      <point x="95" y="-226"/>
    </contour>
    <contour>
      <point x="54" y="83" type="curve" smooth="yes"/>
      <point x="54" y="110"/>
      <point x="76" y="137"/>
      <point x="106" y="137" type="curve" smooth="yes"/>
      <point x="123" y="137"/>
      <point x="132" y="126"/>
      <point x="138" y="107" type="curve" smooth="yes"/>
      <point x="154" y="54"/>
      <point x="191" y="23"/>
      <point x="228" y="23" type="curve" smooth="yes"/>
      <point x="270" y="23"/>
      <point x="300" y="51"/>
      <point x="300" y="98" type="curve" smooth="yes"/>
      <point x="300" y="137"/>
      <point x="274" y="181"/>
      <point x="231" y="215" type="curve" smooth="yes"/>
      <point x="179" y="257"/>
      <point x="143" y="303"/>
      <point x="143" y="355" type="curve" smooth="yes"/>
      <point x="143" y="436"/>
      <point x="203" y="502"/>
      <point x="305" y="502" type="curve" smooth="yes"/>
      <point x="394" y="502"/>
      <point x="432" y="455"/>
      <point x="432" y="424" type="curve" smooth="yes"/>
      <point x="432" y="393"/>
      <point x="404" y="378"/>
      <point x="384" y="378" type="curve" smooth="yes"/>
      <point x="369" y="378"/>
      <point x="361" y="386"/>
      <point x="356" y="398" type="curve" smooth="yes"/>
      <point x="335" y="445"/>
      <point x="309" y="467"/>
      <point x="276" y="467" type="curve" smooth="yes"/>
      <point x="239" y="467"/>
      <point x="214" y="434"/>
      <point x="214" y="402" type="curve" smooth="yes"/>
      <point x="214" y="374"/>
      <point x="225" y="341"/>
      <point x="285" y="292" type="curve" smooth="yes"/>
      <point x="352" y="237"/>
      <point x="377" y="194"/>
      <point x="377" y="139" type="curve" smooth="yes"/>
      <point x="377" y="57"/>
      <point x="312" y="-12"/>
      <point x="204" y="-12" type="curve" smooth="yes"/>
      <point x="109" y="-12"/>
      <point x="54" y="40"/>
    </contour>
  </outline>
</glyph>
<glyph name="uni0163" format="1">
  <advance width="341"/>
  <unicode hex="0163"/>
  <outline>
    <contour>
      <point x="45" y="-220" type="curve"/>
      <point x="49" y="-196" type="line"/>
      <point x="94" y="-202"/>
      <point x="147" y="-195"/>
      <point x="147" y="-147" type="curve" smooth="yes"/>
      <point x="147" y="-120"/>
      <point x="127" y="-97"/>
      <point x="92" y="-95" type="curve"/>
      <point x="89" y="-86" type="line"/>
      <point x="149" y="0" type="line"/>
      <point x="194" y="0" type="line"/>
      <point x="150" y="-60" type="line"/>
      <point x="196" y="-66"/>
      <point x="232" y="-107"/>
      <point x="222" y="-157" type="curve" smooth="yes"/>
      <point x="213" y="-203"/>
      <point x="164" y="-230"/>
      <point x="111" y="-230" type="curve" smooth="yes"/>
      <point x="86" y="-230"/>
      <point x="60" y="-226"/>
    </contour>
    <contour>
      <point x="125" y="86" type="curve" smooth="yes"/>
      <point x="215" y="452" type="line"/>
      <point x="132" y="452" type="line"/>
      <point x="143" y="490" type="line"/>
      <point x="224" y="490" type="line"/>
      <point x="237" y="539" type="line"/>
      <point x="334" y="616" type="line"/>
      <point x="346" y="609" type="line"/>
      <point x="312" y="490" type="line"/>
      <point x="439" y="490" type="line"/>
      <point x="428" y="452" type="line"/>
      <point x="303" y="452" type="line"/>
      <point x="214" y="88" type="line" smooth="yes"/>
      <point x="208" y="63"/>
      <point x="208" y="40"/>
      <point x="229" y="40" type="curve" smooth="yes"/>
      <point x="260" y="40"/>
      <point x="311" y="107"/>
      <point x="334" y="146" type="curve"/>
      <point x="356" y="129" type="line"/>
      <point x="316" y="54"/>
      <point x="252" y="-12"/>
      <point x="172" y="-12" type="curve" smooth="yes"/>
      <point x="122" y="-12"/>
      <point x="110" y="29"/>
    </contour>
  </outline>
</glyph>
<glyph name="ubreve" format="1">
  <advance width="618"/>
  <unicode hex="016D"/>
  <outline>
    <contour>
      <point x="322" y="646" type="curve" smooth="yes"/>
      <point x="322" y="661"/>
      <point x="326" y="682"/>
      <point x="333" y="698" type="curve"/>
      <point x="357" y="698" type="line"/>
      <point x="355" y="678"/>
      <point x="357" y="630"/>
      <point x="445" y="630" type="curve" smooth="yes"/>
      <point x="534" y="630"/>
      <point x="559" y="678"/>
      <point x="570" y="698" type="curve"/>
      <point x="596" y="698" type="line"/>
      <point x="580" y="629"/>
      <point x="546" y="568"/>
      <point x="427" y="568" type="curve" smooth="yes"/>
      <point x="370" y="568"/>
      <point x="322" y="585"/>
    </contour>
    <contour>
      <point x="126" y="450" type="line"/>
      <point x="132" y="474" type="line"/>
      <point x="314" y="502" type="line"/>
      <point x="319" y="497" type="line"/>
      <point x="223" y="128" type="line" smooth="yes"/>
      <point x="208" y="70"/>
      <point x="216" y="40"/>
      <point x="248" y="40" type="curve" smooth="yes"/>
      <point x="331" y="40"/>
      <point x="418" y="173"/>
      <point x="462" y="274" type="curve" smooth="yes"/>
      <point x="488" y="335"/>
      <point x="504" y="388"/>
      <point x="533" y="490" type="curve"/>
      <point x="622" y="502" type="line"/>
      <point x="515" y="94" type="line" smooth="yes"/>
      <point x="507" y="63"/>
      <point x="507" y="40"/>
      <point x="528" y="40" type="curve" smooth="yes"/>
      <point x="556" y="40"/>
      <point x="600" y="112"/>
      <point x="620" y="146" type="curve"/>
      <point x="644" y="131" type="line"/>
      <point x="609" y="57"/>
      <point x="549" y="-12"/>
      <point x="477" y="-12" type="curve" smooth="yes"/>
      <point x="424" y="-12"/>
      <point x="412" y="29"/>
      <point x="431" y="96" type="curve" smooth="yes"/>
      <point x="464" y="210" type="line"/>
      <point x="462" y="210" type="line"/>
      <point x="402" y="94"/>
      <point x="297" y="-12"/>
      <point x="201" y="-12" type="curve" smooth="yes"/>
      <point x="121" y="-12"/>
      <point x="113" y="53"/>
      <point x="134" y="133" type="curve" smooth="yes"/>
      <point x="203" y="397" type="line" smooth="yes"/>
      <point x="211" y="428"/>
      <point x="212" y="443"/>
      <point x="188" y="445" type="curve" smooth="yes"/>
    </contour>
  </outline>
</glyph>
<glyph name="Uhungarumlaut" format="1">
  <advance width="794"/>
  <unicode hex="0170"/>
  <outline>
    <contour>
      <point x="628" y="766" type="line"/>
      <point x="698" y="855" type="line" smooth="yes"/>
      <point x="713" y="874"/>
      <point x="730" y="894"/>
      <point x="751" y="894" type="curve" smooth="yes"/>
      <point x="771" y="894"/>
      <point x="795" y="867"/>
      <point x="795" y="846" type="curve" smooth="yes"/>
      <point x="795" y="830"/>
      <point x="784" y="821"/>
      <point x="748" y="800" type="curve" smooth="yes"/>
      <point x="647" y="744" type="line"/>
    </contour>
    <contour>
      <point x="458" y="766" type="line"/>
      <point x="528" y="855" type="line" smooth="yes"/>
      <point x="543" y="874"/>
      <point x="560" y="894"/>
      <point x="581" y="894" type="curve" smooth="yes"/>
      <point x="601" y="894"/>
      <point x="625" y="867"/>
      <point x="625" y="846" type="curve" smooth="yes"/>
      <point x="625" y="830"/>
      <point x="614" y="821"/>
      <point x="578" y="800" type="curve" smooth="yes"/>
      <point x="477" y="744" type="line"/>
    </contour>
    <contour>
      <point x="177" y="256" type="curve" smooth="yes"/>
      <point x="261" y="609" type="line" smooth="yes"/>
      <point x="269" y="642"/>
      <point x="262" y="656"/>
      <point x="239" y="658" type="curve" smooth="yes"/>
      <point x="180" y="663" type="line"/>
      <point x="187" y="692" type="line"/>
      <point x="461" y="692" type="line"/>
      <point x="454" y="663" type="line"/>
      <point x="399" y="659" type="line" smooth="yes"/>
      <point x="374" y="657"/>
      <point x="365" y="643"/>
      <point x="357" y="609" type="curve" smooth="yes"/>
      <point x="278" y="269" type="line" smooth="yes"/>
      <point x="234" y="81"/>
      <point x="304" y="20"/>
      <point x="415" y="20" type="curve" smooth="yes"/>
      <point x="554" y="20"/>
      <point x="603" y="127"/>
      <point x="634" y="260" type="curve" smooth="yes"/>
      <point x="715" y="609" type="line" smooth="yes"/>
      <point x="723" y="642"/>
      <point x="716" y="656"/>
      <point x="693" y="658" type="curve" smooth="yes"/>
      <point x="634" y="663" type="line"/>
      <point x="641" y="692" type="line"/>
      <point x="915" y="692" type="line"/>
      <point x="908" y="663" type="line"/>
      <point x="853" y="658" type="line" smooth="yes"/>
      <point x="828" y="656"/>
      <point x="819" y="643"/>
      <point x="811" y="609" type="curve" smooth="yes"/>
      <point x="726" y="247" type="line" smooth="yes"/>
      <point x="671" y="14"/>
      <point x="546" y="-15"/>
      <point x="410" y="-15" type="curve" smooth="yes"/>
      <point x="238" y="-15"/>
      <point x="130" y="57"/>
    </contour>
  </outline>
</glyph>
<glyph name="Uogonek" format="1">
  <advance width="794"/>
  <unicode hex="0172"/>
  <outline>
    <contour>
      <point x="177" y="256" type="curve" smooth="yes"/>
      <point x="262" y="609" type="line" smooth="yes"/>
      <point x="270" y="642"/>
      <point x="263" y="656"/>
      <point x="240" y="658" type="curve" smooth="yes"/>
      <point x="181" y="663" type="line"/>
      <point x="188" y="692" type="line"/>
      <point x="462" y="692" type="line"/>
      <point x="455" y="663" type="line"/>
      <point x="400" y="659" type="line" smooth="yes"/>
      <point x="375" y="657"/>
      <point x="366" y="643"/>
      <point x="358" y="609" type="curve" smooth="yes"/>
      <point x="279" y="269" type="line" smooth="yes"/>
      <point x="235" y="81"/>
      <point x="305" y="20"/>
      <point x="416" y="20" type="curve" smooth="yes"/>
      <point x="555" y="20"/>
      <point x="604" y="127"/>
      <point x="635" y="260" type="curve" smooth="yes"/>
      <point x="716" y="609" type="line" smooth="yes"/>
      <point x="724" y="642"/>
      <point x="717" y="656"/>
      <point x="694" y="658" type="curve" smooth="yes"/>
      <point x="635" y="663" type="line"/>
      <point x="642" y="692" type="line"/>
      <point x="916" y="692" type="line"/>
      <point x="909" y="663" type="line"/>
      <point x="854" y="658" type="line" smooth="yes"/>
      <point x="829" y="656"/>
      <point x="820" y="643"/>
      <point x="812" y="609" type="curve" smooth="yes"/>
      <point x="727" y="247" type="line" smooth="yes"/>
      <point x="672" y="14"/>
      <point x="547" y="-15"/>
      <point x="411" y="-15" type="curve" smooth="yes"/>
      <point x="401" y="-15"/>
      <point x="391" y="-15"/>
      <point x="381" y="-14" type="curve"/>
      <point x="338" y="-50"/>
      <point x="310" y="-88"/>
      <point x="310" y="-133" type="curve" smooth="yes"/>
      <point x="310" y="-169"/>
      <point x="337" y="-184"/>
      <point x="366" y="-184" type="curve" smooth="yes"/>
      <point x="386" y="-184"/>
      <point x="398" y="-181"/>
      <point x="417" y="-173" type="curve"/>
      <point x="424" y="-189" type="line"/>
      <point x="394" y="-218"/>
      <point x="360" y="-226"/>
      <point x="331" y="-226" type="curve" smooth="yes"/>
      <point x="250" y="-226"/>
      <point x="244" y="-171"/>
      <point x="244" y="-147" type="curve" smooth="yes"/>
      <point x="244" y="-95"/>
      <point x="286" y="-41"/>
      <point x="342" y="-10" type="curve"/>
      <point x="211" y="8"/>
      <point x="137" y="85"/>
    </contour>
  </outline>
</glyph>
<glyph name="Wcircumflex" format="1">
  <advance width="946"/>
  <unicode hex="0174"/>
  <outline>
    <contour>
      <point x="483" y="742" type="line"/>
      <point x="623" y="853" type="line" smooth="yes"/>
      <point x="641" y="868"/>
      <point x="652" y="876"/>
      <point x="665" y="876" type="curve" smooth="yes"/>
      <point x="677" y="876"/>
      <point x="687" y="865"/>
      <point x="698" y="851" type="curve" smooth="yes"/>
      <point x="789" y="741" type="line"/>
      <point x="771" y="722" type="line"/>
      <point x="681" y="781" type="line" smooth="yes"/>
      <point x="669" y="790"/>
      <point x="658" y="797"/>
      <point x="649" y="797" type="curve" smooth="yes"/>
      <point x="641" y="797"/>
      <point x="626" y="790"/>
      <point x="613" y="783" type="curve" smooth="yes"/>
      <point x="496" y="722" type="line"/>
    </contour>
    <contour>
      <point x="121" y="663" type="line"/>
      <point x="127" y="692" type="line"/>
      <point x="380" y="692" type="line"/>
      <point x="373" y="663" type="line"/>
      <point x="308" y="657" type="line" smooth="yes"/>
      <point x="292" y="656"/>
      <point x="285" y="648"/>
      <point x="287" y="625" type="curve" smooth="yes"/>
      <point x="320" y="122" type="line"/>
      <point x="325" y="122" type="line"/>
      <point x="596" y="674" type="line"/>
      <point x="666" y="674" type="line"/>
      <point x="717" y="122" type="line"/>
      <point x="721" y="122" type="line"/>
      <point x="841" y="373" type="line" smooth="yes"/>
      <point x="902" y="500"/>
      <point x="939" y="582"/>
      <point x="955" y="622" type="curve" smooth="yes"/>
      <point x="963" y="643"/>
      <point x="962" y="654"/>
      <point x="946" y="656" type="curve" smooth="yes"/>
      <point x="881" y="663" type="line"/>
      <point x="886" y="692" type="line"/>
      <point x="1110" y="692" type="line"/>
      <point x="1105" y="663" type="line"/>
      <point x="1043" y="657"/>
      <point x="1036" y="651"/>
      <point x="1008" y="603" type="curve" smooth="yes"/>
      <point x="990" y="572"/>
      <point x="939" y="471"/>
      <point x="883" y="357" type="curve" smooth="yes"/>
      <point x="709" y="0" type="line"/>
      <point x="639" y="0" type="line"/>
      <point x="587" y="551" type="line"/>
      <point x="582" y="551" type="line"/>
      <point x="308" y="0" type="line"/>
      <point x="238" y="0" type="line"/>
      <point x="194" y="616" type="line" smooth="yes"/>
      <point x="192" y="646"/>
      <point x="187" y="656"/>
      <point x="165" y="658" type="curve" smooth="yes"/>
    </contour>
  </outline>
</glyph>
<glyph name="Ycircumflex" format="1">
  <advance width="591"/>
  <unicode hex="0176"/>
  <outline>
    <contour>
      <point x="319" y="742" type="line"/>
      <point x="459" y="853" type="line" smooth="yes"/>
      <point x="477" y="868"/>
      <point x="488" y="876"/>
      <point x="501" y="876" type="curve" smooth="yes"/>
      <point x="513" y="876"/>
      <point x="523" y="865"/>
      <point x="534" y="851" type="curve" smooth="yes"/>
      <point x="625" y="741" type="line"/>
      <point x="607" y="722" type="line"/>
      <point x="517" y="781" type="line" smooth="yes"/>
      <point x="505" y="790"/>
      <point x="494" y="797"/>
      <point x="485" y="797" type="curve" smooth="yes"/>
      <point x="477" y="797"/>
      <point x="462" y="790"/>
      <point x="449" y="783" type="curve" smooth="yes"/>
      <point x="332" y="722" type="line"/>
    </contour>
    <contour>
      <point x="131" y="663" type="curve"/>
      <point x="137" y="692" type="line"/>
      <point x="386" y="692" type="line"/>
      <point x="380" y="663" type="line"/>
      <point x="325" y="658" type="line" smooth="yes"/>
      <point x="306" y="656"/>
      <point x="302" y="647"/>
      <point x="306" y="629" type="curve" smooth="yes"/>
      <point x="397" y="322" type="line"/>
      <point x="400" y="322" type="line"/>
      <point x="479" y="429"/>
      <point x="572" y="563"/>
      <point x="611" y="630" type="curve" smooth="yes"/>
      <point x="620" y="647"/>
      <point x="617" y="658"/>
      <point x="596" y="659" type="curve" smooth="yes"/>
      <point x="544" y="663" type="line"/>
      <point x="550" y="692" type="line"/>
      <point x="779" y="692" type="line"/>
      <point x="773" y="663" type="line"/>
      <point x="716" y="659"/>
      <point x="704" y="652"/>
      <point x="668" y="612" type="curve" smooth="yes"/>
      <point x="614" y="551"/>
      <point x="514" y="418"/>
      <point x="438" y="307" type="curve" smooth="yes"/>
      <point x="428" y="293"/>
      <point x="417" y="274"/>
      <point x="410" y="247" type="curve" smooth="yes"/>
      <point x="372" y="78" type="line" smooth="yes"/>
      <point x="366" y="50"/>
      <point x="371" y="37"/>
      <point x="395" y="35" type="curve" smooth="yes"/>
      <point x="471" y="29" type="line"/>
      <point x="465" y="0" type="line"/>
      <point x="155" y="0" type="line"/>
      <point x="161" y="29" type="line"/>
      <point x="233" y="36" type="line" smooth="yes"/>
      <point x="259" y="39"/>
      <point x="268" y="50"/>
      <point x="274" y="78" type="curve" smooth="yes"/>
      <point x="312" y="246" type="line" smooth="yes"/>
      <point x="317" y="267"/>
      <point x="317" y="282"/>
      <point x="312" y="299" type="curve" smooth="yes"/>
      <point x="279" y="409"/>
      <point x="248" y="518"/>
      <point x="214" y="617" type="curve" smooth="yes"/>
      <point x="201" y="656"/>
      <point x="194" y="658"/>
    </contour>
  </outline>
</glyph>
<glyph name="Zdotaccent" format="1">
  <advance width="622"/>
  <unicode hex="017B"/>
  <outline>
    <contour>
      <point x="435" y="787" type="curve" smooth="yes"/>
      <point x="435" y="823"/>
      <point x="461" y="848"/>
      <point x="494" y="848" type="curve" smooth="yes"/>
      <point x="524" y="848"/>
      <point x="542" y="824"/>
      <point x="542" y="799" type="curve" smooth="yes"/>
      <point x="542" y="765"/>
      <point x="519" y="738"/>
      <point x="484" y="738" type="curve" smooth="yes"/>
      <point x="452" y="738"/>
      <point x="435" y="758"/>
    </contour>
    <contour>
      <point x="15" y="13" type="line"/>
      <point x="212" y="229"/>
      <point x="408" y="446"/>
      <point x="598" y="657" type="curve"/>
      <point x="403" y="657" type="line" smooth="yes"/>
      <point x="292" y="657"/>
      <point x="259" y="639"/>
      <point x="218" y="523" type="curve"/>
      <point x="188" y="523" type="line"/>
      <point x="225" y="692" type="line"/>
      <point x="733" y="692" type="line"/>
      <point x="738" y="679" type="line"/>
      <point x="541" y="463"/>
      <point x="344" y="246"/>
      <point x="154" y="35" type="curve"/>
      <point x="357" y="35" type="line" smooth="yes"/>
      <point x="515" y="35"/>
      <point x="558" y="53"/>
      <point x="611" y="176" type="curve"/>
      <point x="641" y="176" type="line"/>
      <point x="590" y="0" type="line"/>
      <point x="19" y="0" type="line"/>
    </contour>
  </outline>
</glyph>
<glyph name="Zcaron" format="1">
  <advance width="622"/>
  <unicode hex="017D"/>
  <outline>
    <contour>
      <point x="334" y="869" type="line"/>
      <point x="352" y="888" type="line"/>
      <point x="442" y="828" type="line" smooth="yes"/>
      <point x="454" y="820"/>
      <point x="465" y="813"/>
      <point x="474" y="813" type="curve" smooth="yes"/>
      <point x="482" y="813"/>
      <point x="497" y="820"/>
      <point x="510" y="827" type="curve" smooth="yes"/>
      <point x="627" y="888" type="line"/>
      <point x="640" y="868" type="line"/>
      <point x="500" y="757" type="line" smooth="yes"/>
      <point x="482" y="742"/>
      <point x="471" y="734"/>
      <point x="458" y="734" type="curve" smooth="yes"/>
      <point x="446" y="734"/>
      <point x="436" y="745"/>
      <point x="425" y="759" type="curve" smooth="yes"/>
    </contour>
    <contour>
      <point x="15" y="13" type="line"/>
      <point x="212" y="229"/>
      <point x="408" y="446"/>
      <point x="598" y="657" type="curve"/>
      <point x="403" y="657" type="line" smooth="yes"/>
      <point x="292" y="657"/>
      <point x="259" y="639"/>
      <point x="218" y="523" type="curve"/>
      <point x="188" y="523" type="line"/>
      <point x="225" y="692" type="line"/>
      <point x="733" y="692" type="line"/>
      <point x="738" y="679" type="line"/>
      <point x="541" y="463"/>
      <point x="344" y="246"/>
      <point x="154" y="35" type="curve"/>
      <point x="357" y="35" type="line" smooth="yes"/>
      <point x="515" y="35"/>
      <point x="558" y="53"/>
      <point x="611" y="176" type="curve"/>
      <point x="641" y="176" type="line"/>
      <point x="590" y="0" type="line"/>
      <point x="19" y="0" type="line"/>
    </contour>
  </outline>
</glyph>
<glyph name="longs" format="1">
  <advance width="305"/>
  <unicode hex="017F"/>
  <outline>
    <contour>
      <point x="-72" y="-184" type="curve" smooth="yes"/>
      <point x="-72" y="-159"/>
      <point x="-49" y="-134"/>
      <point x="-27" y="-134" type="curve" smooth="yes"/>
      <point x="-1" y="-134"/>
      <point x="18" y="-205"/>
      <point x="54" y="-205" type="curve" smooth="yes"/>
      <point x="64" y="-205"/>
      <point x="73" y="-197"/>
      <point x="77" y="-175" type="curve" smooth="yes"/>
      <point x="201" y="452" type="line"/>
      <point x="112" y="452" type="line"/>
      <point x="123" y="490" type="line"/>
      <point x="210" y="490" type="line"/>
      <point x="220" y="527" type="line" smooth="yes"/>
      <point x="250" y="640"/>
      <point x="302" y="742"/>
      <point x="425" y="742" type="curve" smooth="yes"/>
      <point x="484" y="742"/>
      <point x="537" y="707"/>
      <point x="537" y="664" type="curve" smooth="yes"/>
      <point x="537" y="639"/>
      <point x="508" y="620"/>
      <point x="488" y="620" type="curve" smooth="yes"/>
      <point x="473" y="620"/>
      <point x="466" y="627"/>
      <point x="461" y="637" type="curve" smooth="yes"/>
      <point x="439" y="685"/>
      <point x="423" y="707"/>
      <point x="396" y="707" type="curve" smooth="yes"/>
      <point x="370" y="707"/>
      <point x="347" y="672"/>
      <point x="337" y="632" type="curve" smooth="yes"/>
      <point x="304" y="490" type="line"/>
      <point x="203" y="31" type="line" smooth="yes"/>
      <point x="161" y="-161"/>
      <point x="119" y="-242"/>
      <point x="19" y="-242" type="curve" smooth="yes"/>
      <point x="-28" y="-242"/>
      <point x="-72" y="-217"/>
    </contour>
  </outline>
</glyph>
<glyph name="uni0186" format="1">
  <advance width="661"/>
  <unicode hex="0186"/>
  <outline>
    <contour>
      <point x="52" y="38" type="curve"/>
      <point x="77" y="188" type="line"/>
      <point x="107" y="188" type="line"/>
      <point x="107" y="80"/>
      <point x="151" y="20"/>
      <point x="281" y="20" type="curve" smooth="yes"/>
      <point x="388" y="20"/>
      <point x="467" y="78"/>
      <point x="517" y="162" type="curve" smooth="yes"/>
      <point x="565" y="242"/>
      <point x="589" y="353"/>
      <point x="589" y="443" type="curve" smooth="yes"/>
      <point x="589" y="597"/>
      <point x="506" y="672"/>
      <point x="390" y="672" type="curve" smooth="yes"/>
      <point x="276" y="672"/>
      <point x="238" y="615"/>
      <point x="176" y="506" type="curve"/>
      <point x="146" y="506" type="line"/>
      <point x="185" y="665" type="line"/>
      <point x="248" y="694"/>
      <point x="312" y="707"/>
      <point x="383" y="707" type="curve" smooth="yes"/>
      <point x="631" y="707"/>
      <point x="696" y="549"/>
      <point x="696" y="417" type="curve" smooth="yes"/>
      <point x="696" y="348"/>
      <point x="683" y="256"/>
      <point x="628" y="167" type="curve" smooth="yes"/>
      <point x="570" y="73"/>
      <point x="461" y="-15"/>
      <point x="273" y="-15" type="curve" smooth="yes"/>
      <point x="203" y="-15"/>
      <point x="109" y="2"/>
    </contour>
  </outline>
</glyph>
<glyph name="florin" format="1">
  <advance width="530"/>
  <unicode hex="0192"/>
  <outline>
    <contour>
      <point x="39" y="-77" type="curve" smooth="yes"/>
      <point x="40" y="-53"/>
      <point x="63" y="-37"/>
      <point x="79" y="-37" type="curve" smooth="yes"/>
      <point x="90" y="-37"/>
      <point x="98" y="-42"/>
      <point x="107" y="-58" type="curve" smooth="yes"/>
      <point x="124" y="-90"/>
      <point x="140" y="-100"/>
      <point x="154" y="-100" type="curve" smooth="yes"/>
      <point x="166" y="-100"/>
      <point x="177" y="-92"/>
      <point x="189" y="-40" type="curve" smooth="yes"/>
      <point x="283" y="368" type="line"/>
      <point x="185" y="368" type="line"/>
      <point x="194" y="404" type="line"/>
      <point x="292" y="404" type="line"/>
      <point x="304" y="447" type="line" smooth="yes"/>
      <point x="319" y="504"/>
      <point x="342" y="570"/>
      <point x="372" y="613" type="curve" smooth="yes"/>
      <point x="407" y="662"/>
      <point x="454" y="691"/>
      <point x="513" y="691" type="curve" smooth="yes"/>
      <point x="590" y="691"/>
      <point x="623" y="653"/>
      <point x="623" y="624" type="curve" smooth="yes"/>
      <point x="622" y="598"/>
      <point x="597" y="584"/>
      <point x="579" y="584" type="curve" smooth="yes"/>
      <point x="567" y="584"/>
      <point x="560" y="589"/>
      <point x="553" y="603" type="curve" smooth="yes"/>
      <point x="533" y="643"/>
      <point x="512" y="656"/>
      <point x="492" y="656" type="curve" smooth="yes"/>
      <point x="464" y="656"/>
      <point x="441" y="624"/>
      <point x="413" y="511" type="curve" smooth="yes"/>
      <point x="386" y="404" type="line"/>
      <point x="521" y="404" type="line"/>
      <point x="512" y="368" type="line"/>
      <point x="375" y="368" type="line"/>
      <point x="354" y="282" type="line" smooth="yes"/>
      <point x="306" y="91"/>
      <point x="284" y="17"/>
      <point x="256" y="-41" type="curve" smooth="yes"/>
      <point x="226" y="-103"/>
      <point x="186" y="-135"/>
      <point x="126" y="-135" type="curve" smooth="yes"/>
      <point x="77" y="-135"/>
      <point x="39" y="-105"/>
    </contour>
  </outline>
</glyph>
<glyph name="uni0194" format="1">
  <advance width="590"/>
  <unicode hex="0194"/>
  <outline>
    <contour>
      <point x="250" y="60" type="curve" smooth="yes"/>
      <point x="250" y="29"/>
      <point x="265" y="21"/>
      <point x="290" y="21" type="curve" smooth="yes"/>
      <point x="317" y="21"/>
      <point x="352" y="56"/>
      <point x="352" y="100" type="curve" smooth="yes"/>
      <point x="352" y="122"/>
      <point x="351" y="134"/>
      <point x="329" y="196" type="curve"/>
      <point x="327" y="196" type="line"/>
      <point x="293" y="155"/>
      <point x="250" y="100"/>
    </contour>
    <contour>
      <point x="135" y="663" type="curve"/>
      <point x="141" y="692" type="line"/>
      <point x="387" y="692" type="line"/>
      <point x="381" y="663" type="line"/>
      <point x="328" y="658" type="line" smooth="yes"/>
      <point x="309" y="656"/>
      <point x="304" y="647"/>
      <point x="309" y="629" type="curve" smooth="yes"/>
      <point x="394" y="322" type="line"/>
      <point x="397" y="322" type="line"/>
      <point x="476" y="429"/>
      <point x="569" y="563"/>
      <point x="608" y="630" type="curve" smooth="yes"/>
      <point x="617" y="647"/>
      <point x="614" y="657"/>
      <point x="593" y="659" type="curve" smooth="yes"/>
      <point x="544" y="663" type="line"/>
      <point x="550" y="692" type="line"/>
      <point x="773" y="692" type="line"/>
      <point x="767" y="663" type="line"/>
      <point x="710" y="659"/>
      <point x="701" y="652"/>
      <point x="665" y="612" type="curve" smooth="yes"/>
      <point x="611" y="551"/>
      <point x="488" y="381"/>
      <point x="407" y="268" type="curve"/>
      <point x="432" y="178"/>
      <point x="437" y="178"/>
      <point x="437" y="127" type="curve" smooth="yes"/>
      <point x="437" y="17"/>
      <point x="363" y="-14"/>
      <point x="295" y="-14" type="curve" smooth="yes"/>
      <point x="258" y="-14"/>
      <point x="201" y="0"/>
      <point x="201" y="61" type="curve" smooth="yes"/>
      <point x="201" y="106"/>
      <point x="246" y="171"/>
      <point x="315" y="241" type="curve"/>
      <point x="288" y="364"/>
      <point x="253" y="504"/>
      <point x="217" y="617" type="curve" smooth="yes"/>
      <point x="204" y="656"/>
      <point x="198" y="658"/>
    </contour>
  </outline>
</glyph>
<glyph name="uni019F" format="1">
  <advance width="753"/>
  <unicode hex="019F"/>
  <outline>
    <contour>
      <point x="114" y="270" type="curve" smooth="yes"/>
      <point x="114" y="485"/>
      <point x="253" y="707"/>
      <point x="500" y="707" type="curve" smooth="yes"/>
      <point x="665" y="707"/>
      <point x="789" y="619"/>
      <point x="789" y="414" type="curve" smooth="yes"/>
      <point x="789" y="375"/>
      <point x="780" y="273"/>
      <point x="726" y="175" type="curve" smooth="yes"/>
      <point x="671" y="76"/>
      <point x="584" y="-15"/>
      <point x="407" y="-15" type="curve" smooth="yes"/>
      <point x="208" y="-15"/>
      <point x="114" y="105"/>
    </contour>
    <contour>
      <point x="219" y="230" type="curve" smooth="yes"/>
      <point x="219" y="91"/>
      <point x="290" y="20"/>
      <point x="398" y="20" type="curve" smooth="yes"/>
      <point x="528" y="20"/>
      <point x="596" y="113"/>
      <point x="637" y="220" type="curve" smooth="yes"/>
      <point x="654" y="264"/>
      <point x="665" y="305"/>
      <point x="672" y="341" type="curve"/>
      <point x="229" y="341" type="line"/>
      <point x="222" y="303"/>
      <point x="219" y="266"/>
    </contour>
    <contour>
      <point x="237" y="379" type="curve"/>
      <point x="678" y="379" type="line"/>
      <point x="682" y="413"/>
      <point x="684" y="442"/>
      <point x="684" y="466" type="curve" smooth="yes"/>
      <point x="684" y="607"/>
      <point x="614" y="672"/>
      <point x="504" y="672" type="curve" smooth="yes"/>
      <point x="352" y="672"/>
      <point x="271" y="518"/>
    </contour>
  </outline>
</glyph>
<glyph name="uni01B2" format="1">
  <advance width="700"/>
  <unicode hex="01B2"/>
  <outline>
    <contour>
      <point x="177" y="256" type="curve" smooth="yes"/>
      <point x="261" y="609" type="line" smooth="yes"/>
      <point x="269" y="642"/>
      <point x="262" y="656"/>
      <point x="239" y="658" type="curve" smooth="yes"/>
      <point x="180" y="663" type="line"/>
      <point x="187" y="692" type="line"/>
      <point x="461" y="692" type="line"/>
      <point x="454" y="663" type="line"/>
      <point x="399" y="659" type="line" smooth="yes"/>
      <point x="374" y="657"/>
      <point x="365" y="643"/>
      <point x="357" y="609" type="curve" smooth="yes"/>
      <point x="278" y="269" type="line" smooth="yes"/>
      <point x="234" y="81"/>
      <point x="306" y="20"/>
      <point x="393" y="20" type="curve" smooth="yes"/>
      <point x="537" y="20"/>
      <point x="676" y="202"/>
      <point x="676" y="446" type="curve" smooth="yes"/>
      <point x="676" y="488"/>
      <point x="670" y="558"/>
      <point x="627" y="628" type="curve" smooth="yes"/>
      <point x="621" y="638"/>
      <point x="615" y="651"/>
      <point x="615" y="663" type="curve" smooth="yes"/>
      <point x="615" y="688"/>
      <point x="653" y="707"/>
      <point x="685" y="707" type="curve" smooth="yes"/>
      <point x="713" y="707"/>
      <point x="760" y="656"/>
      <point x="760" y="528" type="curve" smooth="yes"/>
      <point x="760" y="338"/>
      <point x="660" y="-15"/>
      <point x="376" y="-15" type="curve" smooth="yes"/>
      <point x="205" y="-15"/>
      <point x="136" y="84"/>
    </contour>
  </outline>
</glyph>
<glyph name="uni01B7" format="1">
  <advance width="550"/>
  <unicode hex="01B7"/>
  <outline>
    <contour>
      <point x="62" y="123" type="curve" smooth="yes"/>
      <point x="62" y="162"/>
      <point x="68" y="206"/>
      <point x="123" y="206" type="curve" smooth="yes"/>
      <point x="156" y="206"/>
      <point x="173" y="182"/>
      <point x="173" y="161" type="curve" smooth="yes"/>
      <point x="173" y="127"/>
      <point x="162" y="117"/>
      <point x="162" y="89" type="curve" smooth="yes"/>
      <point x="162" y="50"/>
      <point x="208" y="20"/>
      <point x="262" y="20" type="curve" smooth="yes"/>
      <point x="371" y="20"/>
      <point x="439" y="100"/>
      <point x="439" y="215" type="curve" smooth="yes"/>
      <point x="439" y="328"/>
      <point x="389" y="346"/>
      <point x="346" y="346" type="curve" smooth="yes"/>
      <point x="317" y="346"/>
      <point x="284" y="342"/>
      <point x="261" y="331" type="curve"/>
      <point x="242" y="363" type="line"/>
      <point x="247" y="378" type="line"/>
      <point x="515" y="613" type="line"/>
      <point x="515" y="616" type="line"/>
      <point x="382" y="616" type="line" smooth="yes"/>
      <point x="266" y="616"/>
      <point x="218" y="601"/>
      <point x="183" y="499" type="curve"/>
      <point x="152" y="499" type="line"/>
      <point x="197" y="692" type="line"/>
      <point x="620" y="692" type="line"/>
      <point x="627" y="675" type="line"/>
      <point x="617" y="656" type="line" smooth="yes"/>
      <point x="606" y="634"/>
      <point x="590" y="619"/>
      <point x="552" y="586" type="curve" smooth="yes"/>
      <point x="325" y="389" type="line"/>
      <point x="326" y="387" type="line"/>
      <point x="333" y="390"/>
      <point x="357" y="393"/>
      <point x="378" y="393" type="curve" smooth="yes"/>
      <point x="501" y="393"/>
      <point x="546" y="314"/>
      <point x="546" y="207" type="curve" smooth="yes"/>
      <point x="546" y="89"/>
      <point x="463" y="-15"/>
      <point x="249" y="-15" type="curve" smooth="yes"/>
      <point x="167" y="-15"/>
      <point x="62" y="46"/>
    </contour>
  </outline>
</glyph>
<glyph name="uni01C5" format="1">
  <advance width="1231"/>
  <unicode hex="01C5"/>
  <outline>
    <contour>
      <point x="985" y="710" type="line"/>
      <point x="1008" y="731" type="line"/>
      <point x="1093" y="656" type="line" smooth="yes"/>
      <point x="1103" y="648"/>
      <point x="1112" y="641"/>
      <point x="1121" y="641" type="curve" smooth="yes"/>
      <point x="1128" y="641"/>
      <point x="1141" y="648"/>
      <point x="1153" y="656" type="curve" smooth="yes"/>
      <point x="1268" y="731" type="line"/>
      <point x="1282" y="710" type="line"/>
      <point x="1144" y="581" type="line" smooth="yes"/>
      <point x="1129" y="568"/>
      <point x="1116" y="557"/>
      <point x="1104" y="557" type="curve" smooth="yes"/>
      <point x="1093" y="557"/>
      <point x="1083" y="569"/>
      <point x="1074" y="581" type="curve" smooth="yes"/>
    </contour>
    <contour>
      <point x="802" y="18" type="curve" smooth="yes"/>
      <point x="802" y="34"/>
      <point x="810" y="56"/>
      <point x="826" y="72" type="curve" smooth="yes"/>
      <point x="934" y="182"/>
      <point x="1050" y="298"/>
      <point x="1177" y="426" type="curve"/>
      <point x="1001" y="426" type="line" smooth="yes"/>
      <point x="954" y="426"/>
      <point x="938" y="395"/>
      <point x="906" y="337" type="curve"/>
      <point x="881" y="348" type="line"/>
      <point x="903" y="417"/>
      <point x="934" y="472"/>
      <point x="948" y="490" type="curve"/>
      <point x="1273" y="490" type="line"/>
      <point x="1281" y="476" type="line"/>
      <point x="1160" y="358"/>
      <point x="1046" y="239"/>
      <point x="935" y="123" type="curve"/>
      <point x="961" y="120"/>
      <point x="996" y="107"/>
      <point x="1029" y="95" type="curve" smooth="yes"/>
      <point x="1066" y="81"/>
      <point x="1111" y="66"/>
      <point x="1142" y="66" type="curve" smooth="yes"/>
      <point x="1187" y="66"/>
      <point x="1211" y="126"/>
      <point x="1236" y="188" type="curve"/>
      <point x="1264" y="181" type="line"/>
      <point x="1237" y="76"/>
      <point x="1207" y="-12"/>
      <point x="1142" y="-12" type="curve" smooth="yes"/>
      <point x="1095" y="-12"/>
      <point x="1048" y="7"/>
      <point x="995" y="28" type="curve" smooth="yes"/>
      <point x="936" y="51"/>
      <point x="901" y="74"/>
      <point x="885" y="74" type="curve" smooth="yes"/>
      <point x="877" y="74"/>
      <point x="872" y="67"/>
      <point x="872" y="56" type="curve" smooth="yes"/>
      <point x="872" y="12" type="line" smooth="yes"/>
      <point x="872" y="-5"/>
      <point x="839" y="-12"/>
      <point x="825" y="-12" type="curve" smooth="yes"/>
      <point x="808" y="-12"/>
      <point x="802" y="5"/>
    </contour>
    <contour>
      <point x="40" y="0" type="line"/>
      <point x="46" y="29" type="line"/>
      <point x="102" y="35" type="line" smooth="yes"/>
      <point x="126" y="37"/>
      <point x="136" y="50"/>
      <point x="143" y="83" type="curve" smooth="yes"/>
      <point x="262" y="609" type="line" smooth="yes"/>
      <point x="269" y="642"/>
      <point x="264" y="656"/>
      <point x="241" y="658" type="curve" smooth="yes"/>
      <point x="182" y="663" type="line"/>
      <point x="188" y="692" type="line"/>
      <point x="457" y="692" type="line" smooth="yes"/>
      <point x="568" y="692"/>
      <point x="658" y="669"/>
      <point x="716" y="620" type="curve" smooth="yes"/>
      <point x="773" y="572"/>
      <point x="802" y="492"/>
      <point x="802" y="411" type="curve" smooth="yes"/>
      <point x="802" y="351"/>
      <point x="792" y="267"/>
      <point x="735" y="181" type="curve" smooth="yes"/>
      <point x="663" y="72"/>
      <point x="547" y="0"/>
      <point x="347" y="0" type="curve" smooth="yes"/>
    </contour>
    <contour>
      <point x="239" y="86" type="line" smooth="yes"/>
      <point x="229" y="42"/>
      <point x="266" y="35"/>
      <point x="321" y="35" type="curve" smooth="yes"/>
      <point x="487" y="35"/>
      <point x="573" y="97"/>
      <point x="630" y="191" type="curve" smooth="yes"/>
      <point x="675" y="265"/>
      <point x="695" y="347"/>
      <point x="695" y="433" type="curve" smooth="yes"/>
      <point x="695" y="513"/>
      <point x="677" y="653"/>
      <point x="469" y="657" type="curve" smooth="yes"/>
      <point x="382" y="657"/>
      <point x="368" y="654"/>
      <point x="360" y="620" type="curve" smooth="yes"/>
    </contour>
  </outline>
</glyph>
<glyph name="uni01C6" format="1">
  <advance width="1055"/>
  <unicode hex="01C6"/>
  <outline>
    <contour>
      <point x="809" y="710" type="line"/>
      <point x="832" y="731" type="line"/>
      <point x="917" y="656" type="line" smooth="yes"/>
      <point x="927" y="648"/>
      <point x="936" y="641"/>
      <point x="945" y="641" type="curve" smooth="yes"/>
      <point x="952" y="641"/>
      <point x="965" y="648"/>
      <point x="977" y="656" type="curve" smooth="yes"/>
      <point x="1092" y="731" type="line"/>
      <point x="1106" y="710" type="line"/>
      <point x="968" y="581" type="line" smooth="yes"/>
      <point x="953" y="568"/>
      <point x="940" y="557"/>
      <point x="928" y="557" type="curve" smooth="yes"/>
      <point x="917" y="557"/>
      <point x="907" y="569"/>
      <point x="898" y="581" type="curve" smooth="yes"/>
    </contour>
    <contour>
      <point x="626" y="18" type="curve" smooth="yes"/>
      <point x="626" y="34"/>
      <point x="634" y="56"/>
      <point x="650" y="72" type="curve" smooth="yes"/>
      <point x="758" y="182"/>
      <point x="874" y="298"/>
      <point x="1001" y="426" type="curve"/>
      <point x="825" y="426" type="line" smooth="yes"/>
      <point x="778" y="426"/>
      <point x="762" y="395"/>
      <point x="730" y="337" type="curve"/>
      <point x="705" y="348" type="line"/>
      <point x="727" y="417"/>
      <point x="758" y="472"/>
      <point x="772" y="490" type="curve"/>
      <point x="1097" y="490" type="line"/>
      <point x="1105" y="476" type="line"/>
      <point x="984" y="358"/>
      <point x="870" y="239"/>
      <point x="759" y="123" type="curve"/>
      <point x="785" y="120"/>
      <point x="820" y="107"/>
      <point x="853" y="95" type="curve" smooth="yes"/>
      <point x="890" y="81"/>
      <point x="935" y="66"/>
      <point x="966" y="66" type="curve" smooth="yes"/>
      <point x="1011" y="66"/>
      <point x="1035" y="126"/>
      <point x="1060" y="188" type="curve"/>
      <point x="1088" y="181" type="line"/>
      <point x="1061" y="76"/>
      <point x="1031" y="-12"/>
      <point x="966" y="-12" type="curve" smooth="yes"/>
      <point x="919" y="-12"/>
      <point x="872" y="7"/>
      <point x="819" y="28" type="curve" smooth="yes"/>
      <point x="760" y="51"/>
      <point x="725" y="74"/>
      <point x="709" y="74" type="curve" smooth="yes"/>
      <point x="701" y="74"/>
      <point x="696" y="67"/>
      <point x="696" y="56" type="curve" smooth="yes"/>
      <point x="696" y="12" type="line" smooth="yes"/>
      <point x="696" y="-5"/>
      <point x="663" y="-12"/>
      <point x="649" y="-12" type="curve" smooth="yes"/>
      <point x="632" y="-12"/>
      <point x="626" y="5"/>
    </contour>
    <contour>
      <point x="72" y="120" type="curve" smooth="yes"/>
      <point x="72" y="241"/>
      <point x="179" y="502"/>
      <point x="412" y="502" type="curve" smooth="yes"/>
      <point x="446" y="502"/>
      <point x="477" y="495"/>
      <point x="496" y="485" type="curve"/>
      <point x="498" y="487" type="line"/>
      <point x="536" y="648" type="line" smooth="yes"/>
      <point x="544" y="680"/>
      <point x="542" y="687"/>
      <point x="518" y="689" type="curve" smooth="yes"/>
      <point x="458" y="695" type="line"/>
      <point x="464" y="718" type="line"/>
      <point x="642" y="742" type="line"/>
      <point x="647" y="737" type="line"/>
      <point x="489" y="95" type="line" smooth="yes"/>
      <point x="481" y="63"/>
      <point x="479" y="40"/>
      <point x="499" y="40" type="curve" smooth="yes"/>
      <point x="527" y="40"/>
      <point x="571" y="111"/>
      <point x="589" y="146" type="curve"/>
      <point x="613" y="132" type="line"/>
      <point x="579" y="56"/>
      <point x="523" y="-12"/>
      <point x="450" y="-12" type="curve" smooth="yes"/>
      <point x="399" y="-13"/>
      <point x="384" y="28"/>
      <point x="404" y="99" type="curve" smooth="yes"/>
      <point x="437" y="218" type="line"/>
      <point x="435" y="218" type="line"/>
      <point x="376" y="111"/>
      <point x="287" y="-12"/>
      <point x="172" y="-12" type="curve" smooth="yes"/>
      <point x="91" y="-12"/>
      <point x="72" y="55"/>
    </contour>
    <contour>
      <point x="171" y="112" type="curve" smooth="yes"/>
      <point x="171" y="67"/>
      <point x="189" y="40"/>
      <point x="221" y="40" type="curve" smooth="yes"/>
      <point x="274" y="40"/>
      <point x="340" y="115"/>
      <point x="388" y="193" type="curve" smooth="yes"/>
      <point x="439" y="276"/>
      <point x="472" y="370"/>
      <point x="487" y="447" type="curve"/>
      <point x="475" y="458"/>
      <point x="449" y="467"/>
      <point x="418" y="467" type="curve" smooth="yes"/>
      <point x="258" y="467"/>
      <point x="171" y="220"/>
    </contour>
  </outline>
</glyph>
<glyph name="uni01C9" format="1">
  <advance width="615"/>
  <unicode hex="01C9"/>
  <outline>
    <contour>
      <point x="552" y="649" type="curve" smooth="yes"/>
      <point x="552" y="681"/>
      <point x="574" y="715"/>
      <point x="617" y="715" type="curve" smooth="yes"/>
      <point x="645" y="715"/>
      <point x="671" y="699"/>
      <point x="671" y="660" type="curve" smooth="yes"/>
      <point x="671" y="620"/>
      <point x="646" y="593"/>
      <point x="607" y="593" type="curve" smooth="yes"/>
      <point x="577" y="593"/>
      <point x="552" y="612"/>
    </contour>
    <contour>
      <point x="246" y="-184" type="curve" smooth="yes"/>
      <point x="246" y="-159"/>
      <point x="269" y="-134"/>
      <point x="291" y="-134" type="curve" smooth="yes"/>
      <point x="304" y="-134"/>
      <point x="311" y="-145"/>
      <point x="317" y="-154" type="curve" smooth="yes"/>
      <point x="344" y="-194"/>
      <point x="362" y="-207"/>
      <point x="374" y="-207" type="curve" smooth="yes"/>
      <point x="386" y="-207"/>
      <point x="393" y="-195"/>
      <point x="397" y="-176" type="curve" smooth="yes"/>
      <point x="519" y="395" type="line" smooth="yes"/>
      <point x="527" y="430"/>
      <point x="528" y="443"/>
      <point x="504" y="445" type="curve" smooth="yes"/>
      <point x="442" y="450" type="line"/>
      <point x="448" y="474" type="line"/>
      <point x="627" y="502" type="line"/>
      <point x="632" y="497" type="line"/>
      <point x="519" y="-3" type="line" smooth="yes"/>
      <point x="499" y="-92"/>
      <point x="476" y="-156"/>
      <point x="448" y="-192" type="curve" smooth="yes"/>
      <point x="420" y="-227"/>
      <point x="387" y="-242"/>
      <point x="341" y="-242" type="curve" smooth="yes"/>
      <point x="289" y="-242"/>
      <point x="247" y="-217"/>
    </contour>
    <contour>
      <point x="116" y="86" type="curve" smooth="yes"/>
      <point x="253" y="639" type="line" smooth="yes"/>
      <point x="263" y="678"/>
      <point x="258" y="685"/>
      <point x="233" y="688" type="curve" smooth="yes"/>
      <point x="176" y="695" type="line"/>
      <point x="182" y="718" type="line"/>
      <point x="361" y="742" type="line"/>
      <point x="366" y="737" type="line"/>
      <point x="205" y="94" type="line" smooth="yes"/>
      <point x="197" y="61"/>
      <point x="197" y="40"/>
      <point x="215" y="40" type="curve" smooth="yes"/>
      <point x="239" y="40"/>
      <point x="284" y="101"/>
      <point x="307" y="146" type="curve"/>
      <point x="331" y="132" type="line"/>
      <point x="299" y="57"/>
      <point x="238" y="-12"/>
      <point x="168" y="-12" type="curve" smooth="yes"/>
      <point x="114" y="-12"/>
      <point x="102" y="29"/>
    </contour>
  </outline>
</glyph>
<glyph name="uni01CF" format="1">
  <advance width="345"/>
  <unicode hex="01CF"/>
  <outline>
    <contour>
      <point x="218" y="869" type="line"/>
      <point x="236" y="888" type="line"/>
      <point x="326" y="828" type="line" smooth="yes"/>
      <point x="338" y="820"/>
      <point x="349" y="813"/>
      <point x="358" y="813" type="curve" smooth="yes"/>
      <point x="366" y="813"/>
      <point x="381" y="820"/>
      <point x="394" y="827" type="curve" smooth="yes"/>
      <point x="511" y="888" type="line"/>
      <point x="524" y="868" type="line"/>
      <point x="384" y="757" type="line" smooth="yes"/>
      <point x="366" y="742"/>
      <point x="355" y="734"/>
      <point x="342" y="734" type="curve" smooth="yes"/>
      <point x="330" y="734"/>
      <point x="320" y="745"/>
      <point x="309" y="759" type="curve" smooth="yes"/>
    </contour>
    <contour>
      <point x="40" y="0" type="line"/>
      <point x="46" y="29" type="line"/>
      <point x="101" y="35" type="line" smooth="yes"/>
      <point x="125" y="37"/>
      <point x="136" y="51"/>
      <point x="143" y="83" type="curve" smooth="yes"/>
      <point x="263" y="609" type="line" smooth="yes"/>
      <point x="270" y="639"/>
      <point x="264" y="657"/>
      <point x="241" y="659" type="curve" smooth="yes"/>
      <point x="182" y="663" type="line"/>
      <point x="189" y="692" type="line"/>
      <point x="463" y="692" type="line"/>
      <point x="456" y="663" type="line"/>
      <point x="401" y="658" type="line" smooth="yes"/>
      <point x="376" y="656"/>
      <point x="366" y="640"/>
      <point x="359" y="609" type="curve" smooth="yes"/>
      <point x="239" y="83" type="line" smooth="yes"/>
      <point x="232" y="52"/>
      <point x="237" y="35"/>
      <point x="261" y="33" type="curve" smooth="yes"/>
      <point x="320" y="29" type="line"/>
      <point x="314" y="0" type="line"/>
    </contour>
  </outline>
</glyph>
<glyph name="uni01D9" format="1">
  <advance width="794"/>
  <unicode hex="01D9"/>
  <outline>
    <contour>
      <point x="462" y="1043" type="line"/>
      <point x="480" y="1062" type="line"/>
      <point x="570" y="1002" type="line" smooth="yes"/>
      <point x="582" y="994"/>
      <point x="593" y="987"/>
      <point x="602" y="987" type="curve" smooth="yes"/>
      <point x="610" y="987"/>
      <point x="625" y="994"/>
      <point x="638" y="1001" type="curve" smooth="yes"/>
      <point x="755" y="1062" type="line"/>
      <point x="768" y="1042" type="line"/>
      <point x="628" y="931" type="line" smooth="yes"/>
      <point x="610" y="916"/>
      <point x="599" y="908"/>
      <point x="586" y="908" type="curve" smooth="yes"/>
      <point x="574" y="908"/>
      <point x="564" y="919"/>
      <point x="553" y="933" type="curve" smooth="yes"/>
    </contour>
    <contour>
      <point x="618" y="787" type="curve" smooth="yes"/>
      <point x="618" y="823"/>
      <point x="644" y="848"/>
      <point x="677" y="848" type="curve" smooth="yes"/>
      <point x="707" y="848"/>
      <point x="725" y="824"/>
      <point x="725" y="799" type="curve" smooth="yes"/>
      <point x="725" y="765"/>
      <point x="702" y="738"/>
      <point x="667" y="738" type="curve" smooth="yes"/>
      <point x="635" y="738"/>
      <point x="618" y="758"/>
    </contour>
    <contour>
      <point x="410" y="787" type="curve" smooth="yes"/>
      <point x="410" y="823"/>
      <point x="436" y="848"/>
      <point x="469" y="848" type="curve" smooth="yes"/>
      <point x="499" y="848"/>
      <point x="517" y="824"/>
      <point x="517" y="799" type="curve" smooth="yes"/>
      <point x="517" y="765"/>
      <point x="494" y="738"/>
      <point x="459" y="738" type="curve" smooth="yes"/>
      <point x="427" y="738"/>
      <point x="410" y="758"/>
    </contour>
    <contour>
      <point x="177" y="256" type="curve" smooth="yes"/>
      <point x="261" y="609" type="line" smooth="yes"/>
      <point x="269" y="642"/>
      <point x="262" y="656"/>
      <point x="239" y="658" type="curve" smooth="yes"/>
      <point x="180" y="663" type="line"/>
      <point x="187" y="692" type="line"/>
      <point x="461" y="692" type="line"/>
      <point x="454" y="663" type="line"/>
      <point x="399" y="659" type="line" smooth="yes"/>
      <point x="374" y="657"/>
      <point x="365" y="643"/>
      <point x="357" y="609" type="curve" smooth="yes"/>
      <point x="278" y="269" type="line" smooth="yes"/>
      <point x="234" y="81"/>
      <point x="304" y="20"/>
      <point x="415" y="20" type="curve" smooth="yes"/>
      <point x="554" y="20"/>
      <point x="603" y="127"/>
      <point x="634" y="260" type="curve" smooth="yes"/>
      <point x="715" y="609" type="line" smooth="yes"/>
      <point x="723" y="642"/>
      <point x="716" y="656"/>
      <point x="693" y="658" type="curve" smooth="yes"/>
      <point x="634" y="663" type="line"/>
      <point x="641" y="692" type="line"/>
      <point x="915" y="692" type="line"/>
      <point x="908" y="663" type="line"/>
      <point x="853" y="658" type="line" smooth="yes"/>
      <point x="828" y="656"/>
      <point x="819" y="643"/>
      <point x="811" y="609" type="curve" smooth="yes"/>
      <point x="726" y="247" type="line" smooth="yes"/>
      <point x="671" y="14"/>
      <point x="546" y="-15"/>
      <point x="410" y="-15" type="curve" smooth="yes"/>
      <point x="238" y="-15"/>
      <point x="130" y="57"/>
    </contour>
  </outline>
</glyph>
